#N canvas 335 141 1280 728 10;
#X obj 90 37 noise~;
#X obj 121 117 inlet f;
#X obj 147 149 inlet q;
#X obj 161 207 inlet t;
#X obj 136 326 inlet q;
#X obj 93 180 bp~ \$1 \$2;
#X obj 93 209 clip~ 0 1;
#X obj 93 240 max~ \$3, f 11;
#X obj 93 301 *~;
#X obj 93 332 *~;
#X obj 93 358 *~ \$4;
#X obj 94 407 outlet~;
#X obj 93 266 -~ \$3;
#X text 172 118 filter freq;
#X text 208 150 resonance;
#X text 211 207 threshold;
#X text 193 328 amp;
#X connect 0 0 5 0;
#X connect 1 0 5 1;
#X connect 2 0 5 2;
#X connect 3 0 7 1;
#X connect 4 0 10 1;
#X connect 5 0 6 0;
#X connect 6 0 7 0;
#X connect 7 0 12 0;
#X connect 8 0 9 0;
#X connect 8 0 9 1;
#X connect 9 0 10 0;
#X connect 10 0 11 0;
#X connect 12 0 8 0;
#X connect 12 0 8 1;
