#N canvas 0 22 1280 728 10;
#X obj 90 37 noise~;
#X obj 162 55 inlet f;
#X obj 194 77 inlet q;
#X obj 230 100 inlet t;
#X obj 261 126 inlet q;
#X obj 93 180 bp~ \$1 \$2;
#X obj 93 209 clip~ 0 1;
#X obj 93 240 max~ \$3;
#X obj 93 301 *~;
#X obj 93 332 *~;
#X obj 93 358 *~ \$4;
#X obj 94 407 outlet~;
#X obj 93 266 -~ \$3;
#X connect 0 0 5 0;
#X connect 1 0 5 1;
#X connect 2 0 5 2;
#X connect 3 0 7 1;
#X connect 5 0 6 0;
#X connect 6 0 7 0;
#X connect 7 0 12 0;
#X connect 8 0 9 0;
#X connect 8 0 9 1;
#X connect 9 0 10 0;
#X connect 10 0 11 0;
#X connect 12 0 8 0;
#X connect 12 0 8 1;
