#N canvas 76 23 1163 728 10;
#X obj 63 -537 gaussian-noise 0.4;
#X obj 63 -502 bp~ 50 0.4;
#X obj 376 -422 *~;
#X obj 358 -360 *~ 80;
#X obj 358 -330 +~ 40;
#X obj 358 -306 phasor~;
#X obj 358 -282 -~ 0.25;
#X obj 358 -252 cos~;
#X obj 358 -221 *~;
#X obj 376 -394 *~ 10;
#X obj 358 -149 -~ 0.35;
#X obj 358 -113 *~ 0.5;
#X obj 358 -86 hip~ 500;
#X obj 358 -57 hip~ 500;
#X obj 63 -471 lop~ 500;
#X obj 358 -179 max~ 0.35;
#X obj 63 68 outlet~;
#X obj 245 -535 inlet;
#X obj 328 -534 inlet;
#X obj 396 -534 inlet;
#X obj 97 -132 / 10;
#X obj 147 -134 / 10;
#X obj 201 -137 / 10;
#X obj 63 -77 *~ \$1;
#X obj 115 -76 *~ \$2;
#X obj 167 -76 *~ \$3;
#X obj 205 -390 * -1;
#X obj 205 -345 + 10;
#X obj 205 -415 clip 0 10;
#X obj 64 -11 hip~ 1000;
#X obj 501 -348 snapshot~;
#X obj 501 -369 noise~;
#X obj 500 -219 line;
#X floatatom 500 -197 5 0 0 0 - - -, f 5;
#X msg 501 -261 \$1 500;
#X obj 501 -305 + 600;
#X obj 501 -326 * 300;
#X obj 469 -534 inlet;
#X text 432 -535 bang:;
#X text 366 -536 hip:;
#X text 179 -537 crossfade:;
#X text 283 -536 drops:;
#X connect 0 0 1 0;
#X connect 1 0 14 0;
#X connect 2 0 9 0;
#X connect 3 0 4 0;
#X connect 4 0 5 0;
#X connect 5 0 6 0;
#X connect 6 0 7 0;
#X connect 7 0 8 0;
#X connect 8 0 15 0;
#X connect 8 0 24 0;
#X connect 9 0 8 1;
#X connect 10 0 11 0;
#X connect 11 0 12 0;
#X connect 12 0 13 0;
#X connect 13 0 25 0;
#X connect 14 0 2 0;
#X connect 14 0 2 1;
#X connect 14 0 3 0;
#X connect 14 0 23 0;
#X connect 15 0 10 0;
#X connect 17 0 20 0;
#X connect 17 0 28 0;
#X connect 18 0 22 0;
#X connect 19 0 29 1;
#X connect 20 0 23 1;
#X connect 21 0 24 1;
#X connect 22 0 25 1;
#X connect 23 0 29 0;
#X connect 24 0 29 0;
#X connect 25 0 29 0;
#X connect 26 0 27 0;
#X connect 27 0 21 0;
#X connect 28 0 26 0;
#X connect 29 0 16 0;
#X connect 30 0 36 0;
#X connect 31 0 30 0;
#X connect 32 0 33 0;
#X connect 32 0 29 1;
#X connect 34 0 32 0;
#X connect 35 0 34 0;
#X connect 36 0 35 0;
#X connect 37 0 30 0;
