#N canvas 76 23 1163 728 10;
#X obj 19 31 gaussian-noise 0.4;
#X obj 19 66 bp~ 50 0.4;
#X obj 332 176 *~;
#X obj 314 238 *~ 80;
#X obj 314 268 +~ 40;
#X obj 314 292 phasor~;
#X obj 314 316 -~ 0.25;
#X obj 314 346 cos~;
#X obj 314 377 *~;
#X obj 332 204 *~ 10;
#X obj 314 449 -~ 0.35;
#X obj 314 485 *~ 0.5;
#X obj 314 512 hip~ 500;
#X obj 314 541 hip~ 500;
#X obj 19 97 lop~ 500;
#X obj 314 419 max~ 0.35;
#X obj 19 666 outlet~;
#X obj 53 466 / 10;
#X obj 103 464 / 10;
#X obj 157 461 / 10;
#X obj 19 521 *~ \$1;
#X obj 71 522 *~ \$2;
#X obj 123 522 *~ \$3;
#X obj 161 208 * -1;
#X obj 161 253 + 10;
#X obj 161 183 clip 0 10;
#X obj 480 396 snapshot~;
#X obj 497 363 noise~;
#X obj 479 525 line;
#X floatatom 479 547 5 0 0 0 - - -, f 5;
#X msg 480 483 \$1 500;
#X obj 480 439 + 600;
#X obj 480 418 * 300;
#X obj 356 61 hsl 64 15 0 10 0 1 empty empty color 75 5 0 10 -262144
-1 -1 4982 1;
#X obj 356 78 hsl 64 15 0.01 15 1 1 empty empty drops 75 5 0 10 -262144
-1 -1 5660 1;
#X obj 356 95 hsl 64 15 100 5000 0 1 empty empty HPF 75 5 0 10 -262144
-1 -1 2781 1;
#X obj 356 8 inlet;
#X obj 396 8 inlet;
#X obj 436 8 inlet;
#X obj 406 526 sig~;
#X obj 19 629 svf~ 500 0;
#X obj 406 578 lop~ 0.1;
#X connect 0 0 1 0;
#X connect 1 0 14 0;
#X connect 2 0 9 0;
#X connect 3 0 4 0;
#X connect 4 0 5 0;
#X connect 5 0 6 0;
#X connect 6 0 7 0;
#X connect 7 0 8 0;
#X connect 8 0 15 0;
#X connect 8 0 21 0;
#X connect 9 0 8 1;
#X connect 10 0 11 0;
#X connect 11 0 12 0;
#X connect 12 0 13 0;
#X connect 13 0 22 0;
#X connect 14 0 2 0;
#X connect 14 0 2 1;
#X connect 14 0 3 0;
#X connect 14 0 20 0;
#X connect 15 0 10 0;
#X connect 17 0 20 1;
#X connect 18 0 21 1;
#X connect 19 0 22 1;
#X connect 20 0 40 0;
#X connect 21 0 40 0;
#X connect 22 0 40 0;
#X connect 23 0 24 0;
#X connect 24 0 18 0;
#X connect 25 0 23 0;
#X connect 26 0 32 0;
#X connect 27 0 26 0;
#X connect 28 0 29 0;
#X connect 30 0 28 0;
#X connect 31 0 30 0;
#X connect 32 0 31 0;
#X connect 33 0 25 0;
#X connect 33 0 17 0;
#X connect 34 0 19 0;
#X connect 35 0 39 0;
#X connect 36 0 33 0;
#X connect 37 0 34 0;
#X connect 38 0 35 0;
#X connect 39 0 41 0;
#X connect 40 1 16 0;
#X connect 41 0 40 1;
#X coords 0 -1 1 1 120 53 2 354 59;
