#N canvas 62 0 1826 1010 10;
#X obj 332 10 inlet;
#X obj 332 32 openpanel;
#X obj 83 340 soundfiler;
#X obj 332 406 outlet~;
#X obj 209 55 table \$0-a;
#X text 374 10 Bang to load file;
#X obj 287 296 inlet~;
#X obj 359 76 symbol \$0-a;
#X obj 332 98 pack s s;
#X obj 332 384 tabread4~ \$0-a;
#X obj 332 340 phasor~ 1, f 46;
#X obj 332 252 swap 1;
#X obj 332 274 /;
#X obj 332 54 t a b;
#X obj 332 362 *~;
#X obj 83 120 t l l, f 42;
#X msg 332 142 read \$1;
#X obj 332 186 unpack f symbol f;
#X obj 332 164 soundfile_info;
#X obj 332 208 swap;
#X obj 332 230 /;
#X obj 332 296 sig~;
#X obj 332 318 *~;
#X text 359 230 total samples / sample rate;
#X text 359 274 1 / file length in seconds;
#X text 359 318 file length in hz * playback ratio;
#X text 425 164 retrieve total samples and sample rate;
#X text 194 296 playback ratio;
#X obj 602 318 inlet;
#X text 641 318 phase control;
#X obj 746 34 inlet;
#X text 779 37 sample filename in;
#X msg 83 318 read -maxsize 6e+006 -resize \$1 \$2;
#X obj 522 406 outlet~;
#X connect 0 0 1 0;
#X connect 1 0 13 0;
#X connect 2 0 14 1;
#X connect 6 0 22 1;
#X connect 7 0 8 1;
#X connect 8 0 15 0;
#X connect 9 0 3 0;
#X connect 10 0 14 0;
#X connect 10 0 33 0;
#X connect 11 0 12 0;
#X connect 11 1 12 1;
#X connect 12 0 21 0;
#X connect 13 0 8 0;
#X connect 13 1 7 0;
#X connect 14 0 9 0;
#X connect 15 0 32 0;
#X connect 15 1 16 0;
#X connect 16 0 18 0;
#X connect 17 0 19 0;
#X connect 17 2 19 1;
#X connect 18 0 17 0;
#X connect 19 0 20 0;
#X connect 19 1 20 1;
#X connect 20 0 11 0;
#X connect 21 0 22 0;
#X connect 22 0 10 0;
#X connect 28 0 10 1;
#X connect 30 0 13 0;
#X connect 32 0 2 0;
