#N canvas 515 44 939 622 10;
#X obj 42 89 phasor~ 0.78;
#X obj 41 136 cos~;
#X obj 41 162 *~ 2;
#X obj 41 188 +~ 2;
#X obj 40 262 *~ 0.8;
#X obj 144 142 wrap~;
#X obj 144 114 +~ 0.5;
#X obj 143 165 cos~;
#X obj 143 191 *~ 2;
#X obj 143 217 +~ 2;
#X msg 196 143 2.385;
#X obj 143 266 *~ 0.8;
#X obj 34 506 outlet~;
#X obj 41 27 inlet~;
#X obj 36 361 delread~ \$0-phasor 21;
#X obj 39 331 delwrite~ \$0-phasor 30000;
#X obj 215 332 delwrite~ \$0-phasor2 30000;
#X obj 217 361 delread~ \$0-phasor2 7;
#X obj 41 220 vd~ \$0-phasor;
#X obj 143 242 vd~ \$0-phasor;
#X obj 42 56 / 100;
#X obj 96 27 inlet;
#X obj 334 227 / 100;
#X obj 152 27 inlet;
#X obj 334 202 clip 0 99;
#X connect 0 0 1 0;
#X connect 0 0 6 0;
#X connect 1 0 2 0;
#X connect 2 0 3 0;
#X connect 3 0 18 0;
#X connect 4 0 15 0;
#X connect 5 0 7 0;
#X connect 6 0 5 0;
#X connect 7 0 8 0;
#X connect 8 0 9 0;
#X connect 9 0 19 0;
#X connect 10 0 2 1;
#X connect 10 0 3 1;
#X connect 10 0 8 1;
#X connect 10 0 9 1;
#X connect 11 0 16 0;
#X connect 13 0 15 0;
#X connect 13 0 16 0;
#X connect 14 0 12 0;
#X connect 17 0 12 0;
#X connect 18 0 4 0;
#X connect 19 0 11 0;
#X connect 20 0 0 0;
#X connect 21 0 20 0;
#X connect 22 0 4 1;
#X connect 22 0 11 1;
#X connect 23 0 24 0;
#X connect 24 0 22 0;
