#N canvas 118 36 1279 729 10;
#X obj 227 230 phasor~ 440;
#X obj 239 273 *~;
#X floatatom 364 211 5 0 0 0 - - -, f 5;
#X floatatom 227 156 5 0 0 0 - - -, f 5;
#X obj 480 368 complex-mod~;
#X obj 480 297 cos~;
#X obj 519 320 cos~;
#X obj 521 295 -~ 0.25;
#X floatatom 580 278 0 0 0 0 - - -;
#X msg 540 189 -163;
#X msg 508 188 0;
#X msg 618 190 -214;
#X msg 579 188 -192;
#X obj 725 119 int;
#X obj 725 145 + 1;
#X floatatom 723 195 5 0 0 0 - - -, f 5;
#X obj 669 192 % 4;
#X obj 227 198 lop~ 2;
#X msg 228 122 198;
#X msg 309 170 65;
#X msg 353 166 98;
#X msg 389 170 295;
#X msg 301 117 -198;
#X msg 350 123 491;
#X msg 388 121 -100;
#X obj 653 229 select 0;
#X obj 534 520 complex-mod~;
#X obj 151 554 +~;
#X obj 562 585 rev1~;
#X obj 344 537 *~ 0.1;
#X msg 602 489 2254;
#X obj 300 238 phasor~ 491;
#X obj 578 344 lop~ 1;
#X obj 579 310 sig~;
#X obj 86 104 loadbang;
#X obj 152 600 *~ 1;
#X obj 714 229 select 0;
#X obj 378 491 / 100;
#X obj 379 55 inlet;
#X obj 725 172 % 2;
#X obj 775 232 select 1;
#X obj 523 53 inlet;
#X obj 150 699 outlet~;
#X text 428 51 bang for chord:;
#X text 327 53 dry/wet:;
#X msg 576 563 1;
#X connect 0 0 1 0;
#X connect 1 0 7 0;
#X connect 1 0 5 0;
#X connect 2 0 31 0;
#X connect 3 0 17 0;
#X connect 4 0 27 0;
#X connect 4 0 26 0;
#X connect 5 0 4 0;
#X connect 6 0 4 1;
#X connect 7 0 6 0;
#X connect 8 0 33 0;
#X connect 9 0 8 0;
#X connect 10 0 8 0;
#X connect 11 0 8 0;
#X connect 12 0 8 0;
#X connect 13 0 14 0;
#X connect 14 0 13 1;
#X connect 14 0 39 0;
#X connect 15 0 36 0;
#X connect 15 0 40 0;
#X connect 16 0 25 0;
#X connect 17 0 0 0;
#X connect 18 0 3 0;
#X connect 19 0 31 0;
#X connect 20 0 31 0;
#X connect 21 0 31 0;
#X connect 22 0 31 0;
#X connect 23 0 31 0;
#X connect 24 0 31 0;
#X connect 26 0 28 0;
#X connect 27 0 35 0;
#X connect 28 0 29 0;
#X connect 29 0 27 0;
#X connect 29 0 27 1;
#X connect 30 0 26 2;
#X connect 31 0 1 1;
#X connect 32 0 4 2;
#X connect 33 0 32 0;
#X connect 34 0 18 0;
#X connect 34 0 30 0;
#X connect 34 0 45 0;
#X connect 35 0 42 0;
#X connect 36 0 10 0;
#X connect 37 0 29 1;
#X connect 38 0 37 0;
#X connect 39 0 15 0;
#X connect 39 0 16 0;
#X connect 40 0 9 0;
#X connect 41 0 13 0;
#X connect 45 0 28 1;
