#N canvas 415 22 450 300 10;
#X obj 123 241 +~;
#X obj 138 215 *~;
#X obj 190 181 *~;
#X obj 136 185 osc~;
#X obj 123 273 phasor~;
#X obj 222 113 lop~ 40;
#X obj 97 185 lop~ 1;
#X obj 137 142 *~ 0.01;
#X msg 221 62 1;
#X obj 97 30 inlet~;
#X obj 221 33 loadbang;
#X obj 122 301 outlet~;
#X connect 0 0 4 0;
#X connect 1 0 0 1;
#X connect 2 0 1 1;
#X connect 3 0 1 0;
#X connect 4 0 11 0;
#X connect 5 0 2 1;
#X connect 6 0 0 0;
#X connect 7 0 3 0;
#X connect 7 0 2 0;
#X connect 8 0 5 0;
#X connect 9 0 6 0;
#X connect 9 0 7 0;
#X connect 10 0 8 0;
