#N canvas 62 0 1826 1010 10;
#X obj 80 20 inlet;
#X obj 150 173 -~ 0.5;
#X obj 184 125 phasor~;
#X obj 106 258 *~, f 2;
#X obj 226 182 -~ 0.5;
#X obj 154 197 *~ 0.5;
#X obj 227 208 *~ 1;
#X obj 228 160 >~;
#X obj 247 122 +~ 0.5;
#X obj 250 97 *~ 0.4;
#X obj 248 74 osc~ 0.2;
#X text 265 166 squarify the saw;
#X text 305 75 pwm;
#X text 121 169 saw;
#X obj 81 81 t b f;
#X text 16 225 amp env;
#X obj 102 299 outlet~;
#X text 118 18 pitch in hz;
#X obj 11 163 loadbang;
#X obj 11 185 f \$1;
#X obj 69 225 ead~ 20;
#X connect 0 0 14 0;
#X connect 1 0 5 0;
#X connect 2 0 1 0;
#X connect 2 0 7 0;
#X connect 3 0 16 0;
#X connect 4 0 6 0;
#X connect 5 0 3 1;
#X connect 6 0 3 1;
#X connect 7 0 4 0;
#X connect 8 0 7 1;
#X connect 9 0 8 0;
#X connect 10 0 9 0;
#X connect 14 0 20 0;
#X connect 14 1 2 0;
#X connect 18 0 19 0;
#X connect 19 0 20 2;
#X connect 20 0 3 0;
