#N canvas 415 22 450 300 10;
#X obj 80 -33 osc~ 440;
#X floatatom 226 -121 5 0 0 0 - - -, f 5;
#X obj 436 55 vline~;
#X obj 244 208 *~;
#X obj 435 88 lop~ 20;
#X obj 293 -32 osc~ 440;
#X obj 353 -31 osc~ 440;
#X obj 294 86 +~;
#X obj 292 -76 * 4.87;
#X obj 302 223 *~;
#X obj 571 54 vline~;
#X obj 570 87 lop~ 20;
#X obj 354 -72 * 20;
#X obj 225 136 *~;
#X obj 225 -66 * 10;
#X obj 114 150 noise~;
#X obj 158 -31 osc~ 110;
#X obj 227 -32 osc~ 673;
#X obj 227 -153 mtof;
#X obj 114 181 *~ 0.2;
#X obj 248 241 +~;
#X msg 563 -198 55;
#X msg 528 -198 57;
#X obj 436 -142 t b;
#X obj 227 -194 inlet;
#X obj 248 397 outlet~;
#X msg 572 3 3 200 \, 0 1000 100;
#X msg 437 5 1 500 \, 0 100 1000;
#X connect 0 0 13 0;
#X connect 1 0 0 0;
#X connect 1 0 8 0;
#X connect 1 0 12 0;
#X connect 1 0 14 0;
#X connect 1 0 16 0;
#X connect 2 0 4 0;
#X connect 3 0 20 0;
#X connect 4 0 3 1;
#X connect 5 0 7 0;
#X connect 6 0 7 1;
#X connect 7 0 9 0;
#X connect 8 0 5 0;
#X connect 9 0 20 1;
#X connect 10 0 11 0;
#X connect 11 0 9 1;
#X connect 12 0 6 0;
#X connect 13 0 3 0;
#X connect 14 0 17 0;
#X connect 15 0 19 0;
#X connect 16 0 7 0;
#X connect 17 0 13 1;
#X connect 18 0 1 0;
#X connect 19 0 9 0;
#X connect 20 0 25 0;
#X connect 23 0 26 0;
#X connect 23 0 27 0;
#X connect 24 0 23 0;
#X connect 24 0 18 0;
#X connect 26 0 10 0;
#X connect 27 0 2 0;
