#N canvas 314 123 1280 728 10;
#X obj 23 388 *~;
#X obj 122 385 *~;
#X obj 226 386 *~;
#X obj 327 386 *~;
#X obj 438 382 *~;
#X obj 589 164 t b;
#X obj 26 468 +~;
#X obj 23 419 *~ 1;
#X obj 227 466 +~;
#X obj 85 549 +~;
#X obj 86 511 +~;
#X obj 24 110 sig~;
#X obj 24 135 lop~ 4000;
#X obj 24 35 inlet;
#X obj 122 164 *~ 2.54845;
#X obj 226 161 *~ 4.6606;
#X obj 327 156 *~ 6.82018;
#X obj 439 153 *~ 6.934;
#X obj 85 613 outlet~;
#X obj 23 271 sine-fm;
#X obj 122 271 sine-fm;
#X obj 225 270 sine-fm;
#X obj 327 269 sine-fm;
#X obj 438 265 sine-fm;
#X obj 438 417 *~ 0.4;
#X obj 327 419 *~ 0.6;
#X obj 226 418 *~ 0.7;
#X obj 122 418 *~ 0.8;
#X obj 341 36 hsl 64 15 0.01 0.5 1 1 empty empty ratio 75 5 0 10 -262144
-1 -1 3100 1;
#X obj 341 53 hsl 64 15 0.1 10 1 1 empty empty index 75 5 0 10 -262144
-1 -1 3500 1;
#X obj 63 190 sig~;
#X obj 63 212 lop~ 20;
#X obj 279 190 sig~;
#X obj 279 212 lop~ 20;
#X obj 43 245 *~ 1;
#X obj 89 245 *~ 1;
#X obj 140 248 *~ 1;
#X obj 186 248 *~ 1;
#X obj 236 249 *~ 1;
#X obj 282 249 *~ 1;
#X obj 331 246 *~ 1;
#X obj 377 246 *~ 1;
#X obj 443 245 *~ 1;
#X obj 489 245 *~ 1;
#X obj 537 313 *~;
#X obj 680 313 *~;
#X obj 818 313 *~;
#X obj 956 313 *~;
#X obj 1096 313 *~;
#X obj 537 291 adsr~ 10 10 2000 4000;
#X obj 680 291 adsr~ 10 10 1000 4000;
#X obj 818 291 adsr~ 10 10 500 4000;
#X obj 956 291 adsr~ 10 10 250 2000;
#X obj 1096 291 adsr~ 10 10 250 1000;
#X connect 0 0 7 0;
#X connect 1 0 27 0;
#X connect 2 0 26 0;
#X connect 3 0 25 0;
#X connect 4 0 24 0;
#X connect 5 0 49 0;
#X connect 5 0 50 0;
#X connect 5 0 51 0;
#X connect 5 0 52 0;
#X connect 5 0 53 0;
#X connect 6 0 10 0;
#X connect 7 0 6 0;
#X connect 8 0 10 1;
#X connect 9 0 18 0;
#X connect 10 0 9 0;
#X connect 11 0 12 0;
#X connect 12 0 14 0;
#X connect 12 0 15 0;
#X connect 12 0 16 0;
#X connect 12 0 17 0;
#X connect 12 0 19 0;
#X connect 13 0 5 0;
#X connect 13 0 11 0;
#X connect 14 0 20 0;
#X connect 15 0 21 0;
#X connect 16 0 22 0;
#X connect 17 0 23 0;
#X connect 19 0 0 0;
#X connect 20 0 1 0;
#X connect 21 0 2 0;
#X connect 22 0 3 0;
#X connect 23 0 4 0;
#X connect 24 0 9 1;
#X connect 25 0 8 1;
#X connect 26 0 8 0;
#X connect 27 0 6 1;
#X connect 28 0 30 0;
#X connect 29 0 32 0;
#X connect 30 0 31 0;
#X connect 31 0 34 0;
#X connect 31 0 36 0;
#X connect 31 0 38 0;
#X connect 31 0 40 0;
#X connect 31 0 42 0;
#X connect 32 0 33 0;
#X connect 33 0 35 0;
#X connect 33 0 37 0;
#X connect 33 0 39 0;
#X connect 33 0 41 0;
#X connect 33 0 43 0;
#X connect 34 0 19 1;
#X connect 35 0 19 2;
#X connect 36 0 20 1;
#X connect 37 0 20 2;
#X connect 38 0 21 1;
#X connect 39 0 21 2;
#X connect 40 0 22 1;
#X connect 41 0 22 2;
#X connect 42 0 23 1;
#X connect 43 0 23 2;
#X connect 44 0 0 1;
#X connect 45 0 1 1;
#X connect 46 0 2 1;
#X connect 47 0 3 1;
#X connect 48 0 4 1;
#X connect 49 0 44 0;
#X connect 49 0 44 1;
#X connect 50 0 45 0;
#X connect 50 0 45 1;
#X connect 51 0 46 0;
#X connect 51 0 46 1;
#X connect 52 0 47 0;
#X connect 52 0 47 1;
#X connect 53 0 48 0;
#X connect 53 0 48 1;
#X coords 0 -1 1 1 120 36 2 339 34;
