#N canvas 0 23 1280 728 10;
#X obj 23 338 *~;
#X obj 122 335 *~;
#X obj 226 336 *~;
#X obj 327 336 *~;
#X obj 438 332 *~;
#X msg 137 149 2.54845;
#X msg 240 153 4.6606;
#X msg 341 152 6.82018;
#X msg 453 152 6.934;
#X obj 589 164 t b;
#X obj 542 291 adsr~ 10 10 1000 2000;
#X obj 680 291 adsr~ 10 10 500 2000;
#X obj 808 291 adsr~ 10 10 250 2000;
#X obj 936 291 adsr~ 10 10 125 1000;
#X obj 1066 291 adsr~ 10 10 125 500;
#X obj 26 418 +~;
#X obj 23 369 *~ 1;
#X obj 227 416 +~;
#X obj 85 549 +~;
#X obj 86 511 +~;
#X obj 24 110 sig~;
#X obj 24 135 lop~ 4000;
#X obj 24 35 inlet;
#X obj 122 244 *~ 2.54845;
#X obj 226 241 *~ 4.6606;
#X obj 327 236 *~ 6.82018;
#X obj 439 233 *~ 6.934;
#X obj 85 613 outlet~;
#X obj 23 271 sine-fm;
#X obj 122 271 sine-fm;
#X obj 225 270 sine-fm;
#X obj 327 269 sine-fm;
#X obj 438 265 sine-fm;
#X obj 438 367 *~ 0.4;
#X obj 327 369 *~ 0.6;
#X obj 226 368 *~ 0.7;
#X obj 122 368 *~ 0.8;
#X connect 0 0 16 0;
#X connect 1 0 36 0;
#X connect 2 0 35 0;
#X connect 3 0 34 0;
#X connect 4 0 33 0;
#X connect 5 0 23 1;
#X connect 6 0 24 1;
#X connect 7 0 25 1;
#X connect 8 0 26 1;
#X connect 9 0 10 0;
#X connect 9 0 11 0;
#X connect 9 0 12 0;
#X connect 9 0 13 0;
#X connect 9 0 14 0;
#X connect 10 0 0 1;
#X connect 11 0 1 1;
#X connect 12 0 2 1;
#X connect 13 0 3 1;
#X connect 14 0 4 1;
#X connect 15 0 19 0;
#X connect 16 0 15 0;
#X connect 17 0 19 1;
#X connect 18 0 27 0;
#X connect 19 0 18 0;
#X connect 20 0 21 0;
#X connect 21 0 23 0;
#X connect 21 0 24 0;
#X connect 21 0 25 0;
#X connect 21 0 26 0;
#X connect 21 0 28 0;
#X connect 22 0 9 0;
#X connect 22 0 20 0;
#X connect 23 0 29 0;
#X connect 24 0 30 0;
#X connect 25 0 31 0;
#X connect 26 0 32 0;
#X connect 28 0 0 0;
#X connect 29 0 1 0;
#X connect 30 0 2 0;
#X connect 31 0 3 0;
#X connect 32 0 4 0;
#X connect 33 0 18 1;
#X connect 34 0 17 1;
#X connect 35 0 17 0;
#X connect 36 0 15 1;
