#N canvas 482 220 884 780 10;
#X obj 33 12 inlet;
#X text 74 14 pitch in hz;
#X obj 111 156 osc~;
#X obj 25 276 outlet~;
#X obj 27 242 *~;
#X obj 33 35 t b f;
#X obj 171 14 loadbang;
#X obj 171 36 f \$1;
#X obj 18 103 ead~ 10;
#X obj 320 16 inlet~;
#X text 368 14 fm signal;
#X obj 110 89 sig~;
#X obj 110 124 +~;
#X obj 17 145 lop~ 50;
#X obj 207 37 f \$2;
#X connect 0 0 5 0;
#X connect 2 0 4 1;
#X connect 4 0 3 0;
#X connect 5 0 8 0;
#X connect 5 1 11 0;
#X connect 6 0 7 0;
#X connect 6 0 14 0;
#X connect 7 0 8 1;
#X connect 8 0 13 0;
#X connect 9 0 12 1;
#X connect 11 0 12 0;
#X connect 12 0 2 0;
#X connect 13 0 4 0;
#X connect 14 0 8 2;
