#N canvas 266 22 450 300 10;
#X obj 100 189 +~;
#X obj 100 221 osc~;
#X obj 115 163 *~;
#X obj 202 118 *~;
#X obj 114 90 *~;
#X obj 113 133 osc~;
#X obj 33 21 inlet~;
#X obj 129 24 inlet~;
#X obj 219 26 inlet~;
#X obj 100 278 outlet~;
#X connect 0 0 1 0;
#X connect 1 0 9 0;
#X connect 2 0 0 1;
#X connect 3 0 2 1;
#X connect 4 0 5 0;
#X connect 4 0 3 0;
#X connect 5 0 2 0;
#X connect 6 0 0 0;
#X connect 6 0 4 0;
#X connect 7 0 4 1;
#X connect 8 0 3 1;
