#N canvas 415 22 610 491 10;
#X obj 37 80 snapshot~;
#X obj 47 59 noise~;
#X obj 36 211 *~;
#X obj 125 190 lop~ 20;
#X obj 123 163 phasor~ 9, f 12;
#X obj 37 164 osc~ 200, f 10;
#X obj 38 23 inlet;
#X obj 35 341 outlet~;
#X text 3 22 bang:;
#X obj 37 102 * \$1;
#X obj 37 123 + \$2;
#X obj 36 236 *~ \$3;
#X text 71 103 range;
#X text 67 123 base pitch;
#X text 75 234 amp;
#X connect 0 0 9 0;
#X connect 1 0 0 0;
#X connect 2 0 11 0;
#X connect 3 0 2 1;
#X connect 4 0 3 0;
#X connect 5 0 2 0;
#X connect 6 0 0 0;
#X connect 9 0 10 0;
#X connect 10 0 5 0;
#X connect 11 0 7 0;
