#N canvas 415 22 610 491 10;
#X obj 37 80 snapshot~;
#X obj 37 59 noise~;
#X obj 36 211 *~;
#X obj 125 190 lop~ 20;
#X obj 37 102 * 405;
#X obj 37 123 + 1560;
#X obj 123 163 phasor~ 9, f 12;
#X obj 37 164 osc~ 200, f 10;
#X obj 36 236 *~ 0.25;
#X obj 38 23 inlet;
#X obj 35 341 outlet~;
#X obj 118 22 inlet;
#X text 78 21 range:;
#X text 3 22 bang:;
#X text 157 22 min freq:;
#X obj 217 22 inlet;
#X obj 217 81 * 100;
#X connect 0 0 4 0;
#X connect 1 0 0 0;
#X connect 2 0 8 0;
#X connect 3 0 2 1;
#X connect 4 0 5 0;
#X connect 5 0 7 0;
#X connect 6 0 3 0;
#X connect 7 0 2 0;
#X connect 8 0 10 0;
#X connect 9 0 0 0;
#X connect 15 0 16 0;
#X connect 16 0 5 1;
