#N canvas 398 152 887 752 10;
#X obj 67 155 fx/mod-delay;
#X obj 112 24 bng 15 250 50 0 empty empty empty 17 7 0 10 -262144 -1
-1;
#X obj 71 125 *~;
#X obj 199 154 fx/mod-delay;
#X obj 86 284 dac~ 1 2 3 4;
#X obj 344 152 fx/mod-delay;
#X obj 478 149 fx/mod-delay;
#X obj 117 74 ead~ 10 200;
#X obj 42 68 osc~ 1000;
#X connect 0 0 4 0;
#X connect 1 0 7 0;
#X connect 2 0 0 0;
#X connect 2 0 3 0;
#X connect 2 0 5 0;
#X connect 2 0 6 0;
#X connect 3 0 4 1;
#X connect 5 0 4 2;
#X connect 6 0 4 3;
#X connect 7 0 2 1;
#X connect 8 0 2 0;
