#N canvas 62 0 1826 1010 10;
#X obj 597 472 fx/pitch-shifter;
#X obj 615 549 fdn~;
#X obj 513 553 *~;
#X obj 427 363 synths/sine-glass;
#X obj 633 310 mtof;
#X obj 634 232 bng 19 250 50 0 empty empty empty 17 7 0 10 -262144
-1 -1;
#X floatatom 692 506 5 0 0 0 - - -, f 5;
#X obj 975 41 tgl 15 0 empty empty empty 17 7 0 10 -262144 -1 -1 0
1;
#X obj 847 283 counter 4;
#X msg 795 624 \$1 300;
#X obj 659 643 vline~;
#X obj 873 557 random 10;
#X obj 921 306 s bang;
#X msg 691 201 78;
#X msg 662 204 83;
#X obj 616 582 lop~ 200;
#X msg 633 270 72;
#X obj 620 502 *~ 0.2;
#X obj 725 446 route 4 9;
#X obj 685 270 t b;
#X obj 743 393 random 4;
#X obj -109 425 synths/sine-fm;
#X msg 593 421 9;
#X msg 626 422 105;
#X msg 659 421 139;
#X msg 690 422 0.5;
#X obj 802 315 metro 4000;
#X obj 216 453 rev1~;
#X obj 209 339 osc~;
#X obj 335 264 random 6;
#X obj 336 300 + 1;
#X obj 204 407 *~;
#X obj 261 370 adsr~ 20 10 1000 1000;
#X floatatom -110 378 5 0 0 0 - - -, f 5;
#X floatatom -71 378 5 0 0 0 - - -, f 5;
#X floatatom -34 378 5 0 0 0 - - -, f 5;
#X obj -76 282 random 100;
#X obj 1005 93 tgl 15 0 empty empty empty 17 7 0 10 -262144 -1 -1 1
1;
#X obj -93 248 metro 500;
#X obj -37 319 random 100;
#X obj -127 736 synths/sine-fm;
#X floatatom -128 689 5 0 0 0 - - -, f 5;
#X floatatom -89 689 5 0 0 0 - - -, f 5;
#X floatatom -52 689 5 0 0 0 - - -, f 5;
#X obj -127 591 random 100;
#X obj -53 617 random 100;
#X obj 75 801 *~ 0.05;
#X obj 26 655 *~ 0.05;
#X floatatom 111 324 6 0 0 0 - - -, f 6;
#X obj -126 556 delay;
#X obj -83 530 / 2;
#X obj -154 505 * 2;
#X obj 29 833 rev1~;
#X msg -112 811 1;
#X obj 78 770 +~;
#X floatatom 534 755 5 0 0 0 - - -, f 5;
#X obj 161 751 / 100;
#X obj 661 726 mtof;
#X msg 910 699 49;
#X obj 534 780 sig~;
#X msg 551 688 61;
#X msg 591 686 64;
#X obj 404 740 synths/gaussian-rain-ground;
#X obj 423 858 *~ 2;
#X floatatom 644 693 5 0 0 0 - - -, f 5;
#X obj 538 903 synths/phasor-vib;
#X obj 655 901 synths/phasor-vib;
#X obj 772 901 synths/phasor-vib;
#X obj 888 900 synths/phasor-vib;
#X obj 1002 899 synths/phasor-vib;
#X msg 875 699 44;
#X obj 537 809 lop~ 10;
#X obj 119 579 * 1.428;
#X msg 986 696 52;
#X msg 947 696 51;
#X obj 881 636 random 4;
#X obj 880 664 select 0 1 2 3;
#X obj 155 655 random 2;
#X obj 157 680 + 1;
#X obj 158 717 line;
#X msg 157 699 \$1 100;
#X obj 53 549 random 2;
#X obj 55 574 + 1;
#X obj 56 611 line;
#X msg 55 593 \$1 100;
#X obj 85 636 / 100;
#X floatatom 734 203 5 0 0 0 - - -, f 5;
#X msg 815 234 73;
#X msg 850 235 78;
#X msg 788 235 71;
#X msg 882 236 83;
#X obj 792 207 select 0 1 2 3 4;
#X obj 893 149 counter 4;
#X obj 902 180 select 0;
#X obj 793 179 random 4;
#X floatatom 345 137 5 0 0 0 - - -, f 5;
#X obj 344 218 * 8;
#X msg 741 484 46;
#X obj 964 388 loadbang;
#X msg 528 523 0.5;
#X obj -185 788 loadbang;
#X msg 238 414 1;
#X text 992 39 saw strings;
#X text 1024 90 fm sine / glass;
#X text 382 136 BPM;
#X obj 424 893 *~;
#X obj 976 215 tgl 15 0 empty empty empty 17 7 0 10 -262144 -1 -1 0
1;
#X obj 975 276 sig~;
#X obj 974 306 lop~ 0.5;
#X text 996 214 rain;
#X msg 285 138 700;
#X obj 167 897 *~ 0.5;
#X obj 253 904 *~ 0.5;
#X obj 1148 953 *~;
#X obj 1243 883 r sawToggle;
#X obj 1244 920 sig~;
#X obj 1246 954 lop~ 0.2;
#X obj 911 992 *~;
#X obj 851 992 *~;
#X obj 791 992 *~;
#X obj 731 992 *~;
#X obj 1112 61 s sawToggle;
#X obj 1005 780 sig~ 2;
#X obj 996 864 *~;
#X obj 894 866 *~;
#X obj 907 782 sig~ 1.5;
#X obj 795 786 sig~ 0.604;
#X obj 769 876 *~;
#X obj 655 874 *~;
#X obj 663 776 sig~ 1.21;
#X obj 1000 946 *~ 0.2;
#X obj 1094 866 hsl 128 15 0 5 0 0 empty empty empty -2 -8 0 10 -262144
-1 -1 12700 1;
#X obj 524 1633 outlet~;
#X obj 575 1633 outlet~;
#X obj 626 1633 outlet~;
#X obj 677 1633 outlet~;
#X obj 413 435 s~ fmclean;
#X obj 527 1010 r~ fmclean;
#X obj 511 597 s~ fmverb;
#X obj 525 1066 surround/random-speaker;
#X obj 633 332 t b;
#X obj 633 354 s fmtrig;
#X obj 624 1001 r fmtrig;
#X obj 661 1096 hradio 15 0 0 4 empty empty empty 0 -8 0 10 -262144
-1 -1 3;
#X text 764 1680 hoi;
#X obj 1011 1270 r~ fmverb;
#X obj 965 1347 fx/4mod-delay;
#X obj 1148 919 sig~ 0.1;
#X obj 219 496 s~ sine;
#X obj 935 1272 r~ sine;
#X obj 208 261 sig~ 369.5;
#X obj 212 301 *~ 1;
#X obj 935 1309 *~ 0.2;
#X obj 531 1041 *~ 0.15;
#X obj 1129 1023 *~ 0.5;
#X obj 1129 1045 +~ 0.5;
#X obj 1129 1001 osc~ 0.4;
#X obj 1129 1067 *~ 300;
#X obj 736 1127 svf~ 100;
#X obj 829 1127 svf~ 100;
#X obj 922 1127 svf~ 100;
#X obj 1015 1127 svf~ 100;
#X obj 1058 997 sig~ 1500;
#X obj 1055 1078 +~ 0;
#X obj 306 882 sig~;
#X obj 306 904 lop~ 10;
#X obj 195 970 *~;
#X obj 235 972 *~;
#X obj 890 122 metro 500;
#X obj 303 1094 surround/select-speaker;
#X obj 388 1021 hradio 15 0 0 5 empty empty empty 0 -8 0 10 -262144
-1 -1 0;
#X obj 1123 1274 *~ 0.1;
#X obj 201 1100 r cam1;
#X obj 214 1124 r cam2;
#X obj 233 1147 r cam3;
#X obj 262 1170 r cam4;
#X obj 108 1208 surround/speaker-gate 50 0.1 0.5;
#X obj 98 1331 fx/4mod-delay;
#X obj 99 1295 *~ 0.1;
#X obj -106 186 r sawToggle;
#X obj 306 860 r sawToggle;
#X obj 1016 1308 *~ 0.5;
#X connect 0 0 17 0;
#X connect 1 0 15 0;
#X connect 2 0 138 0;
#X connect 3 0 0 0;
#X connect 3 0 136 0;
#X connect 4 0 3 0;
#X connect 4 0 140 0;
#X connect 5 0 19 0;
#X connect 5 0 29 0;
#X connect 5 0 32 0;
#X connect 6 0 1 1;
#X connect 7 0 26 0;
#X connect 7 0 121 0;
#X connect 9 0 10 0;
#X connect 11 0 9 0;
#X connect 13 0 4 0;
#X connect 14 0 4 0;
#X connect 15 0 2 0;
#X connect 16 0 4 0;
#X connect 17 0 1 0;
#X connect 18 0 0 1;
#X connect 18 1 0 1;
#X connect 19 0 20 0;
#X connect 20 0 18 0;
#X connect 21 0 47 0;
#X connect 22 0 0 1;
#X connect 23 0 0 2;
#X connect 24 0 0 3;
#X connect 25 0 0 4;
#X connect 26 0 8 0;
#X connect 26 0 11 0;
#X connect 26 0 12 0;
#X connect 26 0 20 0;
#X connect 26 0 5 0;
#X connect 26 0 75 0;
#X connect 27 0 148 0;
#X connect 28 0 31 0;
#X connect 29 0 30 0;
#X connect 30 0 151 1;
#X connect 31 0 27 0;
#X connect 32 0 31 1;
#X connect 33 0 21 0;
#X connect 33 0 51 0;
#X connect 34 0 21 1;
#X connect 35 0 21 2;
#X connect 36 0 34 0;
#X connect 37 0 168 0;
#X connect 38 0 36 0;
#X connect 38 0 39 0;
#X connect 38 0 49 0;
#X connect 38 0 77 0;
#X connect 38 0 81 0;
#X connect 39 0 35 0;
#X connect 40 0 52 0;
#X connect 40 0 54 1;
#X connect 41 0 40 0;
#X connect 42 0 40 1;
#X connect 43 0 40 2;
#X connect 44 0 42 0;
#X connect 45 0 43 0;
#X connect 46 0 111 0;
#X connect 47 0 112 0;
#X connect 48 0 38 1;
#X connect 48 0 50 0;
#X connect 49 0 44 0;
#X connect 49 0 45 0;
#X connect 50 0 49 1;
#X connect 51 0 41 0;
#X connect 53 0 52 1;
#X connect 54 0 46 0;
#X connect 55 0 59 0;
#X connect 56 0 46 1;
#X connect 57 0 55 0;
#X connect 58 0 57 0;
#X connect 58 0 72 0;
#X connect 59 0 71 0;
#X connect 60 0 57 0;
#X connect 61 0 57 0;
#X connect 62 0 63 0;
#X connect 63 0 105 0;
#X connect 64 0 57 0;
#X connect 65 0 120 0;
#X connect 66 0 119 0;
#X connect 67 0 118 0;
#X connect 68 0 117 0;
#X connect 69 0 130 0;
#X connect 70 0 57 0;
#X connect 71 0 123 0;
#X connect 71 0 124 0;
#X connect 71 0 127 0;
#X connect 71 0 128 0;
#X connect 71 0 65 0;
#X connect 72 0 33 0;
#X connect 73 0 57 0;
#X connect 74 0 57 0;
#X connect 75 0 76 0;
#X connect 76 0 70 0;
#X connect 76 1 58 0;
#X connect 76 2 74 0;
#X connect 76 3 73 0;
#X connect 77 0 78 0;
#X connect 78 0 80 0;
#X connect 79 0 56 0;
#X connect 80 0 79 0;
#X connect 81 0 82 0;
#X connect 82 0 84 0;
#X connect 83 0 85 0;
#X connect 84 0 83 0;
#X connect 85 0 47 1;
#X connect 86 0 4 0;
#X connect 87 0 4 0;
#X connect 88 0 4 0;
#X connect 89 0 4 0;
#X connect 90 0 4 0;
#X connect 91 0 89 0;
#X connect 91 1 87 0;
#X connect 91 2 88 0;
#X connect 91 3 90 0;
#X connect 92 0 93 0;
#X connect 93 0 94 0;
#X connect 94 0 91 0;
#X connect 95 0 96 0;
#X connect 95 0 48 0;
#X connect 96 0 26 1;
#X connect 97 0 6 0;
#X connect 98 0 22 0;
#X connect 98 0 23 0;
#X connect 98 0 24 0;
#X connect 98 0 25 0;
#X connect 98 0 97 0;
#X connect 98 0 99 0;
#X connect 98 0 101 0;
#X connect 98 0 110 0;
#X connect 99 0 2 1;
#X connect 100 0 53 0;
#X connect 101 0 27 1;
#X connect 106 0 107 0;
#X connect 107 0 108 0;
#X connect 108 0 105 1;
#X connect 110 0 95 0;
#X connect 111 0 166 0;
#X connect 112 0 167 0;
#X connect 113 0 117 1;
#X connect 113 0 118 1;
#X connect 113 0 119 1;
#X connect 113 0 120 1;
#X connect 114 0 115 0;
#X connect 115 0 116 0;
#X connect 116 0 113 1;
#X connect 117 0 161 0;
#X connect 118 0 160 0;
#X connect 119 0 159 0;
#X connect 120 0 158 0;
#X connect 122 0 123 1;
#X connect 123 0 69 0;
#X connect 124 0 68 0;
#X connect 125 0 124 1;
#X connect 126 0 127 1;
#X connect 127 0 67 0;
#X connect 128 0 66 0;
#X connect 129 0 128 1;
#X connect 130 0 117 0;
#X connect 130 0 118 0;
#X connect 130 0 119 0;
#X connect 130 0 120 0;
#X connect 131 0 69 1;
#X connect 131 0 68 1;
#X connect 131 0 67 1;
#X connect 131 0 66 1;
#X connect 131 0 65 1;
#X connect 137 0 153 0;
#X connect 139 0 132 0;
#X connect 139 1 133 0;
#X connect 139 2 134 0;
#X connect 139 3 135 0;
#X connect 139 4 143 0;
#X connect 140 0 141 0;
#X connect 142 0 139 1;
#X connect 145 0 181 0;
#X connect 146 0 132 0;
#X connect 146 1 133 0;
#X connect 146 2 134 0;
#X connect 146 3 135 0;
#X connect 147 0 113 0;
#X connect 149 0 152 0;
#X connect 150 0 151 0;
#X connect 151 0 28 0;
#X connect 152 0 146 0;
#X connect 153 0 139 0;
#X connect 154 0 155 0;
#X connect 155 0 157 0;
#X connect 156 0 154 0;
#X connect 158 0 132 0;
#X connect 158 2 171 0;
#X connect 159 0 133 0;
#X connect 159 2 171 0;
#X connect 160 0 134 0;
#X connect 160 2 171 0;
#X connect 161 0 135 0;
#X connect 161 2 171 0;
#X connect 162 0 163 0;
#X connect 163 0 158 1;
#X connect 163 0 159 1;
#X connect 163 0 160 1;
#X connect 163 0 161 1;
#X connect 164 0 165 0;
#X connect 165 0 166 1;
#X connect 165 0 167 1;
#X connect 166 0 176 0;
#X connect 166 0 176 1;
#X connect 166 0 176 2;
#X connect 166 0 176 3;
#X connect 167 0 169 0;
#X connect 167 0 176 0;
#X connect 167 0 176 1;
#X connect 167 0 176 2;
#X connect 167 0 176 3;
#X connect 168 0 92 0;
#X connect 169 0 132 0;
#X connect 169 1 133 0;
#X connect 169 2 134 0;
#X connect 169 3 135 0;
#X connect 170 0 169 1;
#X connect 171 0 146 0;
#X connect 172 0 176 4;
#X connect 173 0 176 5;
#X connect 174 0 176 6;
#X connect 175 0 176 7;
#X connect 176 0 132 0;
#X connect 176 0 178 0;
#X connect 176 1 133 0;
#X connect 176 1 178 0;
#X connect 176 2 134 0;
#X connect 176 2 178 0;
#X connect 176 3 135 0;
#X connect 176 3 178 0;
#X connect 177 0 132 0;
#X connect 177 1 133 0;
#X connect 177 2 134 0;
#X connect 177 3 135 0;
#X connect 178 0 177 0;
#X connect 179 0 38 0;
#X connect 180 0 164 0;
#X connect 181 0 146 0;
