#N canvas 62 0 1826 1010 10;
#X obj 308 1179 outlet~;
#X obj 359 1179 outlet~;
#X obj 410 1179 outlet~;
#X obj 461 1179 outlet~;
#X obj 531 231 synths/looper~;
#X obj 1033 227 loadbang;
#X msg 647 198 mad-speech.wav;
#X obj 705 408 synths/looper~;
#X msg 841 345 mad1.wav;
#X obj 564 128 s phaseReset;
#X obj 556 197 r phaseReset;
#X obj 758 350 r phaseReset;
#X obj 695 267 util/phasor-end 0.9999;
#X obj 801 437 util/phasor-end 0.99;
#X obj 703 381 sig~ 0;
#X obj 613 296 bng 15 250 50 0 empty empty empty 17 7 0 10 -262144
-1 -1;
#X obj 639 522 surround/random-speaker;
#X obj 698 303 t 1 0 b;
#X obj 804 478 t 1 0 b;
#X obj 841 564 synths/looper~;
#X obj 894 506 r phaseReset;
#X obj 839 537 sig~ 0;
#X msg 978 512 mad2.wav;
#X obj 912 601 util/phasor-end 0.99;
#X obj 757 675 surround/random-speaker;
#X obj 916 637 t 1 0 b;
#X obj 526 160 sig~ 1;
#X text 1008 1240 onderkant;
#X obj 952 739 synths/looper~;
#X obj 1005 681 r phaseReset;
#X obj 950 712 sig~ 0;
#X obj 1023 776 util/phasor-end 0.99;
#X obj 865 848 surround/random-speaker;
#X obj 1023 798 t 1 0 b;
#X msg 1092 685 mad3.wav;
#X obj 1086 904 synths/looper~;
#X obj 1139 846 r phaseReset;
#X obj 1084 877 sig~ 0;
#X obj 927 1064 surround/4chvca~;
#X obj 1016 1036 sin~;
#X obj 1054 1036 cos~;
#X msg 1233 850 mad4.wav;
#X obj 1017 1004 phasor~ 0.1;
#X obj 1098 1069 *~;
#X obj 1087 1090 *~;
#X obj 1082 1131 *~ 500;
#X obj 1275 999 delay 4000;
#X msg 1275 1021 0;
#X obj 1179 1076 *~ 0.1;
#X obj 1174 1022 osc~ 2500;
#X text 1199 904 crazy;
#X text 820 407 solo;
#X text 946 567 solo;
#X text 1065 740 solo;
#X obj 1177 963 t 1 0 b;
#X obj 1177 941 util/phasor-end 0.999;
#X obj 1456 1000 outlet;
#X obj 523 22 inlet;
#X obj 527 48 bng 15 250 50 0 empty empty empty 17 7 0 10 -262144 -1
-1;
#X obj 523 358 surround/random-speaker;
#X msg 1239 1022 0.01;
#X obj 298 607 osc~ 0.2;
#X obj 141 676 -~ 0.5;
#X obj 297 648 +~ 1;
#X obj 76 663 -~ 0.5;
#X obj 210 645 -~ 0.5;
#X obj 208 623 phasor~ 55.3;
#X obj 210 667 *~ 0.5;
#X obj 297 670 *~ 100;
#X obj 76 641 phasor~;
#X obj 141 654 phasor~;
#X obj 214 559 *~ 1.5;
#X obj 89 307 f;
#X obj 146 311 + 1;
#X obj 297 701 +~ 300;
#X obj 118 791 svf~ 400 0.2;
#X obj 531 87 t b 1 0;
#X obj 234 203 t 1 40;
#X obj 1151 995 s \$0_stop;
#X obj 63 113 r \$0_stop;
#X obj 35 875 *~;
#X obj 98 477 lop~ 1;
#X obj 89 407 sig~;
#X obj 138 553 *~ 1.005;
#X obj 84 246 metro 1500;
#X obj 237 346 r cam1;
#X obj 282 346 r cam2;
#X obj 327 346 r cam3;
#X obj 372 346 r cam4;
#X obj 248 391 +;
#X obj 328 387 +;
#X obj 292 428 +;
#X obj 304 733 *~;
#X obj 355 723 +~ 1;
#X obj 955 907 bng 15 250 50 0 empty empty empty 17 7 0 10 -262144
-1 -1;
#X obj 295 460 * 0.0002;
#X obj 299 499 + 1.5;
#X obj 355 701 *~ 7;
#X obj 222 119 bng 15 250 50 0 empty empty empty 17 7 0 10 -262144
-1 -1;
#X obj 274 821 *~ 0.8;
#X obj 116 830 *~;
#X obj 273 898 number~;
#X obj 274 843 +~ 0.1;
#X obj 274 865 *~ 0.2;
#X text 571 22 start;
#X obj 926 59 inlet;
#X obj 924 85 bng 15 250 50 0 empty empty empty 17 7 0 10 -262144 -1
-1;
#X text 974 59 stop;
#X obj 924 105 t 0;
#X obj 953 153 s \$0_stop;
#X connect 4 0 0 0;
#X connect 4 0 59 0;
#X connect 4 1 12 0;
#X connect 5 0 6 0;
#X connect 5 0 8 0;
#X connect 5 0 22 0;
#X connect 5 0 34 0;
#X connect 5 0 41 0;
#X connect 6 0 4 3;
#X connect 7 0 16 0;
#X connect 7 1 13 0;
#X connect 8 0 7 3;
#X connect 10 0 4 2;
#X connect 11 0 7 2;
#X connect 11 0 14 0;
#X connect 12 0 17 0;
#X connect 13 0 18 0;
#X connect 14 0 7 0;
#X connect 15 0 17 0;
#X connect 16 0 0 0;
#X connect 16 1 1 0;
#X connect 16 2 2 0;
#X connect 16 3 3 0;
#X connect 17 0 14 0;
#X connect 17 1 4 2;
#X connect 17 1 26 0;
#X connect 17 2 16 1;
#X connect 18 0 21 0;
#X connect 18 1 14 0;
#X connect 18 1 7 2;
#X connect 18 2 16 1;
#X connect 18 2 24 1;
#X connect 19 0 24 0;
#X connect 19 1 23 0;
#X connect 20 0 19 2;
#X connect 20 0 21 0;
#X connect 21 0 19 0;
#X connect 22 0 19 3;
#X connect 23 0 25 0;
#X connect 24 0 0 0;
#X connect 24 1 1 0;
#X connect 24 2 2 0;
#X connect 24 3 3 0;
#X connect 25 0 30 0;
#X connect 25 1 21 0;
#X connect 25 1 19 2;
#X connect 25 2 24 1;
#X connect 25 2 32 1;
#X connect 26 0 4 0;
#X connect 28 0 32 0;
#X connect 28 1 31 0;
#X connect 29 0 28 2;
#X connect 29 0 30 0;
#X connect 30 0 28 0;
#X connect 31 0 33 0;
#X connect 32 0 0 0;
#X connect 32 1 1 0;
#X connect 32 2 2 0;
#X connect 32 3 3 0;
#X connect 33 0 37 0;
#X connect 33 1 30 0;
#X connect 33 1 28 2;
#X connect 33 1 35 2;
#X connect 33 2 32 1;
#X connect 34 0 28 3;
#X connect 35 0 38 0;
#X connect 35 0 38 1;
#X connect 35 0 38 2;
#X connect 35 0 38 3;
#X connect 35 1 43 0;
#X connect 35 1 43 1;
#X connect 35 1 55 0;
#X connect 36 0 35 2;
#X connect 36 0 37 0;
#X connect 37 0 35 0;
#X connect 38 0 0 0;
#X connect 38 1 1 0;
#X connect 38 2 2 0;
#X connect 38 3 3 0;
#X connect 39 0 38 4;
#X connect 40 0 38 5;
#X connect 41 0 35 3;
#X connect 42 0 39 0;
#X connect 42 0 40 0;
#X connect 43 0 44 0;
#X connect 43 0 44 1;
#X connect 44 0 45 0;
#X connect 44 0 97 0;
#X connect 44 0 99 0;
#X connect 45 0 42 0;
#X connect 46 0 47 0;
#X connect 47 0 48 1;
#X connect 48 0 0 0;
#X connect 48 0 1 0;
#X connect 48 0 2 0;
#X connect 48 0 3 0;
#X connect 49 0 48 0;
#X connect 54 1 35 2;
#X connect 54 1 37 0;
#X connect 54 1 78 0;
#X connect 54 2 46 0;
#X connect 54 2 60 0;
#X connect 54 2 56 0;
#X connect 55 0 54 0;
#X connect 57 0 58 0;
#X connect 58 0 76 0;
#X connect 59 0 0 0;
#X connect 59 1 1 0;
#X connect 59 2 2 0;
#X connect 59 3 3 0;
#X connect 60 0 48 1;
#X connect 61 0 63 0;
#X connect 62 0 75 0;
#X connect 63 0 68 0;
#X connect 64 0 75 0;
#X connect 65 0 67 0;
#X connect 66 0 65 0;
#X connect 67 0 75 0;
#X connect 68 0 74 0;
#X connect 69 0 64 0;
#X connect 70 0 62 0;
#X connect 71 0 66 0;
#X connect 72 0 73 0;
#X connect 72 0 82 0;
#X connect 73 0 72 1;
#X connect 74 0 92 0;
#X connect 75 0 100 0;
#X connect 76 0 77 0;
#X connect 76 1 26 0;
#X connect 76 2 9 0;
#X connect 77 0 80 0;
#X connect 77 0 84 0;
#X connect 77 1 72 1;
#X connect 79 0 80 0;
#X connect 79 0 84 0;
#X connect 80 0 1 0;
#X connect 80 0 2 0;
#X connect 80 0 3 0;
#X connect 81 0 71 0;
#X connect 81 0 69 0;
#X connect 81 0 83 0;
#X connect 82 0 81 0;
#X connect 83 0 70 0;
#X connect 84 0 72 0;
#X connect 85 0 89 0;
#X connect 86 0 89 1;
#X connect 87 0 90 0;
#X connect 88 0 90 1;
#X connect 89 0 91 0;
#X connect 90 0 91 1;
#X connect 91 0 95 0;
#X connect 92 0 75 1;
#X connect 93 0 92 1;
#X connect 94 0 33 0;
#X connect 95 0 96 0;
#X connect 96 0 71 1;
#X connect 97 0 93 0;
#X connect 98 0 77 0;
#X connect 99 0 75 2;
#X connect 99 0 102 0;
#X connect 100 0 80 1;
#X connect 102 0 103 0;
#X connect 103 0 100 1;
#X connect 103 0 101 0;
#X connect 105 0 106 0;
#X connect 106 0 108 0;
#X connect 108 0 26 0;
#X connect 108 0 14 0;
#X connect 108 0 21 0;
#X connect 108 0 30 0;
#X connect 108 0 37 0;
#X connect 108 0 9 0;
#X connect 108 0 109 0;
