#N canvas 124 111 1111 754 10;
#X obj 37 222 synths/gaussian-rain-ground;
#X obj 41 361 outlet~;
#X obj 177 222 synths/gaussian-rain-ground;
#X obj 181 361 outlet~;
#X obj 327 222 synths/gaussian-rain-ground;
#X obj 331 361 outlet~;
#X obj 467 222 synths/gaussian-rain-ground;
#X obj 471 361 outlet~;
#X obj 25 54 r cam1;
#X obj 171 54 r cam2;
#X obj 323 60 r cam3;
#X obj 464 60 r cam4;
#X obj 34 179 -;
#X obj 201 176 -;
#X obj 331 181 -;
#X obj 465 173 -;
#X obj 29 97 * 50;
#X obj 170 101 * 50;
#X obj 323 104 * 50;
#X obj 461 95 * 50;
#X obj 613 87 r diff;
#X obj 613 109 / 500;
#X obj 30 134 swap 3000;
#X obj 170 144 swap 3000;
#X obj 323 145 swap 3000;
#X obj 467 137 swap 3000;
#X floatatom 681 175 5 0 0 0 - - -, f 5;
#X obj 621 230 sig~;
#X obj 621 261 lop~ 0.5;
#X obj 42 310 *~;
#X obj 176 315 *~;
#X obj 331 314 *~;
#X obj 472 314 *~;
#X obj 615 201 clip 0.5 1;
#X obj 621 147 / 8;
#X connect 0 0 29 0;
#X connect 2 0 30 0;
#X connect 4 0 31 0;
#X connect 6 0 32 0;
#X connect 8 0 16 0;
#X connect 9 0 17 0;
#X connect 10 0 18 0;
#X connect 11 0 19 0;
#X connect 12 0 0 2;
#X connect 13 0 2 2;
#X connect 14 0 4 2;
#X connect 15 0 6 2;
#X connect 16 0 22 0;
#X connect 17 0 23 0;
#X connect 18 0 24 0;
#X connect 19 0 25 0;
#X connect 20 0 21 0;
#X connect 21 0 0 0;
#X connect 21 0 6 0;
#X connect 21 0 4 0;
#X connect 21 0 2 0;
#X connect 21 0 34 0;
#X connect 22 0 12 0;
#X connect 22 1 12 1;
#X connect 23 0 13 0;
#X connect 23 1 13 1;
#X connect 24 0 14 0;
#X connect 24 1 14 1;
#X connect 25 0 15 0;
#X connect 25 1 15 1;
#X connect 27 0 28 0;
#X connect 28 0 32 1;
#X connect 28 0 31 1;
#X connect 28 0 30 1;
#X connect 28 0 29 1;
#X connect 29 0 1 0;
#X connect 30 0 3 0;
#X connect 31 0 5 0;
#X connect 32 0 7 0;
#X connect 33 0 27 0;
#X connect 34 0 26 0;
#X connect 34 0 33 0;
