#N canvas 62 0 1826 1010 10;
#X obj 152 270 synths/looper~;
#X obj 758 467 loadbang;
#X msg 267 198 mad-speech.wav;
#X obj 325 408 synths/looper~;
#X msg 461 345 mad1.wav;
#X obj 844 417 s phaseReset;
#X obj 378 350 r phaseReset;
#X obj 315 267 util/phasor-end 0.9999;
#X obj 421 437 util/phasor-end 0.99;
#X obj 233 296 bng 15 250 50 0 empty empty empty 17 7 0 10 -262144
-1 -1;
#X obj 318 303 t 1 0 b;
#X obj 424 478 t 1 0 b;
#X obj 461 564 synths/looper~;
#X obj 514 506 r phaseReset;
#X msg 598 512 mad2.wav;
#X obj 532 601 util/phasor-end 0.99;
#X obj 536 637 t 1 0 b;
#X text 628 1800 onderkant;
#X obj 572 739 synths/looper~;
#X obj 625 681 r phaseReset;
#X obj 643 776 util/phasor-end 0.99;
#X obj 643 798 t 1 0 b;
#X msg 712 685 mad3.wav;
#X obj 876 1104 synths/looper~;
#X obj 929 1026 r phaseReset;
#X obj 567 1314 surround/4chvca~;
#X obj 656 1286 sin~;
#X obj 694 1286 cos~;
#X obj 706 1235 phasor~ 0.1;
#X obj 822 1259 *~;
#X obj 822 1281 *~;
#X obj 812 1352 *~ 500;
#X text 440 407 solo;
#X text 566 567 solo;
#X text 685 740 solo;
#X obj 143 22 inlet;
#X obj 147 48 bng 15 250 50 0 empty empty empty 17 7 0 10 -262144 -1
-1;
#X obj 151 87 t b 1 0;
#X obj 474 798 bng 15 250 50 0 empty empty empty 17 7 0 10 -262144
-1 -1;
#X text 191 22 start;
#X obj 936 98 inlet;
#X obj 934 365 bng 15 250 50 0 empty empty empty 17 7 0 10 -262144
-1 -1;
#X text 984 98 stop;
#X obj 1004 435 s \$0_stop;
#X obj 822 1237 *~ 0.5;
#X obj 822 1215 +~ 1;
#X obj 822 1193 osc~ 0.05;
#X obj 1092 1026 tgl 15 0 empty empty empty 17 7 0 10 -262144 -1 -1
0 1;
#X obj 822 1325 *~;
#X obj 1093 1054 s \$0_active;
#X obj 852 1303 r \$0_active;
#X obj 698 886 synths/looper~;
#X obj 751 828 r phaseReset;
#X obj 769 923 util/phasor-end 0.99;
#X obj 769 945 t 1 0 b;
#X obj 715 915 bng 15 250 50 0 empty empty empty 17 7 0 10 -262144
-1 -1;
#X msg 838 832 mad4.wav;
#X msg 1023 1050 mad5.wav;
#X text 811 887 crazy;
#X text 969 1104 crazy loop;
#X obj 377 675 surround/random-speaker 10;
#X obj 485 848 surround/random-speaker 10;
#X obj 602 980 surround/random-speaker 10;
#X obj 56 297 surround/random-speaker 10;
#X obj 259 522 surround/random-speaker;
#X obj 380 647 *~ 2;
#X obj 290 466 *~ 1.5;
#X obj 934 385 t 0;
#X obj 324 379 lop~ 10;
#X obj 458 540 lop~ 10;
#X obj 573 711 lop~ 10;
#X obj 693 856 lop~ 10;
#X obj 867 1066 lop~ 10;
#X obj 188 154 r phaseReset;
#X obj 70 1017 outlet~;
#X obj 121 1017 outlet~;
#X obj 172 1017 outlet~;
#X obj 223 1017 outlet~;
#X obj 153 201 lop~ 10;
#X obj 840 335 inlet;
#X text 888 335 pauze;
#X obj 886 153 t 0 b;
#X connect 0 0 63 0;
#X connect 0 1 7 0;
#X connect 1 0 2 0;
#X connect 1 0 4 0;
#X connect 1 0 14 0;
#X connect 1 0 22 0;
#X connect 1 0 57 0;
#X connect 1 0 56 0;
#X connect 2 0 0 3;
#X connect 3 0 66 0;
#X connect 3 1 8 0;
#X connect 4 0 3 3;
#X connect 6 0 3 2;
#X connect 6 0 68 0;
#X connect 7 0 10 0;
#X connect 8 0 11 0;
#X connect 9 0 10 0;
#X connect 10 0 68 0;
#X connect 10 1 0 2;
#X connect 10 1 78 0;
#X connect 10 2 64 1;
#X connect 11 0 69 0;
#X connect 11 1 3 2;
#X connect 11 1 12 2;
#X connect 11 1 68 0;
#X connect 11 2 60 1;
#X connect 11 2 64 1;
#X connect 12 0 65 0;
#X connect 12 1 15 0;
#X connect 13 0 12 2;
#X connect 13 0 69 0;
#X connect 14 0 12 3;
#X connect 15 0 16 0;
#X connect 16 0 70 0;
#X connect 16 1 12 2;
#X connect 16 1 18 2;
#X connect 16 1 69 0;
#X connect 16 2 60 1;
#X connect 16 2 61 1;
#X connect 18 0 61 0;
#X connect 18 1 20 0;
#X connect 19 0 18 2;
#X connect 19 0 70 0;
#X connect 20 0 21 0;
#X connect 21 0 71 0;
#X connect 21 1 18 2;
#X connect 21 1 51 2;
#X connect 21 1 70 0;
#X connect 21 2 61 1;
#X connect 21 2 62 1;
#X connect 22 0 18 3;
#X connect 23 0 25 0;
#X connect 23 0 25 1;
#X connect 23 0 25 2;
#X connect 23 0 25 3;
#X connect 24 0 23 2;
#X connect 24 0 72 0;
#X connect 25 0 74 0;
#X connect 25 1 75 0;
#X connect 25 2 76 0;
#X connect 25 3 77 0;
#X connect 26 0 25 4;
#X connect 27 0 25 5;
#X connect 28 0 26 0;
#X connect 28 0 27 0;
#X connect 29 0 30 0;
#X connect 29 0 30 1;
#X connect 30 0 48 0;
#X connect 31 0 28 0;
#X connect 35 0 36 0;
#X connect 36 0 37 0;
#X connect 37 0 63 1;
#X connect 37 1 78 0;
#X connect 37 2 5 0;
#X connect 38 0 21 0;
#X connect 40 0 81 0;
#X connect 41 0 67 0;
#X connect 44 0 29 0;
#X connect 44 0 29 1;
#X connect 45 0 44 0;
#X connect 46 0 45 0;
#X connect 47 0 49 0;
#X connect 48 0 31 0;
#X connect 50 0 48 1;
#X connect 51 0 62 0;
#X connect 51 1 53 0;
#X connect 52 0 51 2;
#X connect 52 0 71 0;
#X connect 53 0 54 0;
#X connect 54 0 47 0;
#X connect 54 0 72 0;
#X connect 54 1 51 2;
#X connect 54 1 23 2;
#X connect 54 1 28 1;
#X connect 54 1 46 1;
#X connect 54 1 71 0;
#X connect 54 2 62 1;
#X connect 55 0 54 0;
#X connect 56 0 51 3;
#X connect 57 0 23 3;
#X connect 60 0 74 0;
#X connect 60 1 75 0;
#X connect 60 2 76 0;
#X connect 60 3 77 0;
#X connect 60 4 61 2;
#X connect 61 0 74 0;
#X connect 61 1 75 0;
#X connect 61 2 76 0;
#X connect 61 3 77 0;
#X connect 61 4 62 2;
#X connect 62 0 74 0;
#X connect 62 1 75 0;
#X connect 62 2 76 0;
#X connect 62 3 77 0;
#X connect 63 0 74 0;
#X connect 63 1 75 0;
#X connect 63 2 76 0;
#X connect 63 3 77 0;
#X connect 63 4 64 2;
#X connect 64 0 74 0;
#X connect 64 1 75 0;
#X connect 64 2 76 0;
#X connect 64 3 77 0;
#X connect 64 4 60 2;
#X connect 65 0 60 0;
#X connect 66 0 64 0;
#X connect 67 0 43 0;
#X connect 67 0 47 0;
#X connect 67 0 5 0;
#X connect 68 0 3 0;
#X connect 69 0 12 0;
#X connect 70 0 18 0;
#X connect 71 0 51 0;
#X connect 72 0 23 0;
#X connect 73 0 78 0;
#X connect 78 0 0 0;
#X connect 79 0 41 0;
#X connect 81 0 0 2;
#X connect 81 1 41 0;
