#N canvas 62 0 1826 1010 10;
#X obj 152 270 synths/looper~;
#X obj 758 467 loadbang;
#X msg 267 198 mad-speech.wav;
#X obj 325 408 synths/looper~;
#X msg 461 345 mad1.wav;
#X obj 844 417 s phaseReset;
#X obj 378 350 r phaseReset;
#X obj 315 267 util/phasor-end 0.9999;
#X obj 421 437 util/phasor-end 0.99;
#X obj 233 296 bng 15 250 50 0 empty empty empty 17 7 0 10 -262144
-1 -1;
#X obj 318 303 t 1 0 b;
#X obj 424 478 t 1 0 b;
#X obj 461 564 synths/looper~;
#X obj 514 506 r phaseReset;
#X msg 598 512 mad2.wav;
#X obj 532 601 util/phasor-end 0.99;
#X obj 536 637 t 1 0 b;
#X text 628 1800 onderkant;
#X obj 572 739 synths/looper~;
#X obj 625 681 r phaseReset;
#X obj 643 776 util/phasor-end 0.99;
#X obj 643 798 t 1 0 b;
#X msg 712 685 mad3.wav;
#X obj 865 1129 synths/looper~;
#X obj 929 1026 r phaseReset;
#X obj 567 1314 surround/4chvca~;
#X obj 656 1286 sin~;
#X obj 694 1286 cos~;
#X obj 706 1235 phasor~ 0.1;
#X obj 822 1259 *~;
#X obj 822 1281 *~;
#X obj 812 1352 *~ 500;
#X text 440 407 solo;
#X text 566 567 solo;
#X text 685 740 solo;
#X obj 143 22 inlet;
#X obj 147 48 bng 15 250 50 0 empty empty empty 17 7 0 10 -262144 -1
-1;
#X obj 151 87 t b 1 0;
#X obj 474 798 bng 15 250 50 0 empty empty empty 17 7 0 10 -262144
-1 -1;
#X text 191 22 start;
#X obj 936 98 inlet;
#X obj 934 365 bng 15 250 50 0 empty empty empty 17 7 0 10 -262144
-1 -1;
#X text 984 98 stop;
#X obj 1004 435 s \$0_stop;
#X obj 822 1237 *~ 0.5;
#X obj 822 1215 +~ 1;
#X obj 822 1193 osc~ 0.05;
#X obj 1102 1046 tgl 15 0 empty empty empty 17 7 0 10 -262144 -1 -1
0 1;
#X obj 822 1325 *~;
#X obj 1103 1074 s \$0_active;
#X obj 698 886 synths/looper~;
#X obj 751 828 r phaseReset;
#X obj 769 923 util/phasor-end 0.99;
#X obj 769 945 t 1 0 b;
#X obj 715 915 bng 15 250 50 0 empty empty empty 17 7 0 10 -262144
-1 -1;
#X msg 838 832 mad4.wav;
#X msg 1023 1050 mad5.wav;
#X text 811 887 crazy;
#X text 969 1104 crazy loop;
#X obj 377 675 surround/random-speaker 10;
#X obj 485 848 surround/random-speaker 10;
#X obj 602 980 surround/random-speaker 10;
#X obj 47 357 surround/random-speaker 10;
#X obj 380 647 *~ 2;
#X obj 290 466 *~ 1.5;
#X obj 934 385 t 0;
#X obj 324 379 lop~ 10;
#X obj 458 540 lop~ 10;
#X obj 573 711 lop~ 10;
#X obj 693 856 lop~ 10;
#X obj 867 1066 lop~ 10;
#X obj 188 154 r phaseReset;
#X obj 200 907 outlet~;
#X obj 251 907 outlet~;
#X obj 302 907 outlet~;
#X obj 353 907 outlet~;
#X obj 153 201 lop~ 10;
#X obj 950 335 inlet;
#X text 998 335 pauze;
#X obj 886 153 t 0 b;
#X obj 1227 240 r fase;
#X obj 320 341 gate;
#X obj 1227 335 tgl 15 0 empty empty empty 17 7 0 10 -262144 -1 -1
1 1;
#X text 1249 333 kruisje betekent dat ie door mag spelen;
#X obj 1227 273 >= 3;
#X obj 1220 382 outlet;
#X obj 185 1241 s speech;
#X obj 192 1121 snapshot~;
#X obj 256 1027 loadbang;
#X obj 256 1049 tgl 15 0 empty empty empty 17 7 0 10 -262144 -1 -1
1 1;
#X obj 260 1072 metro 20;
#X obj 70 990 ||~;
#X obj 151 987 ||~;
#X obj 231 987 ||~;
#X obj 110 1020 ||~;
#X obj 190 1050 ||~;
#X obj 53 962 >~ 0;
#X obj 92 962 >~ 0;
#X obj 131 962 >~ 0;
#X obj 170 962 >~ 0;
#X obj 209 962 >~ 0;
#X obj 248 962 >~ 0;
#X obj 160 292 *~ 5;
#X obj 259 522 surround/random-speaker 10;
#X msg 797 1098 0.5;
#X obj 647 928 *~ 0.7;
#X obj 710 1088 bng 15 250 50 0 empty empty empty 17 7 0 10 -262144
-1 -1;
#X obj 944 1169 util/phasor-end 0.99;
#X obj 944 1251 f;
#X obj 1030 1209 r fase, f 7;
#X obj 944 1273 == 4;
#X msg 944 1295 \$1 2000;
#X obj 944 1317 line;
#X floatatom 944 1339 5 0 0 0 - - -, f 5;
#X connect 0 0 102 0;
#X connect 0 1 7 0;
#X connect 1 0 2 0;
#X connect 1 0 4 0;
#X connect 1 0 14 0;
#X connect 1 0 22 0;
#X connect 1 0 56 0;
#X connect 1 0 55 0;
#X connect 2 0 0 3;
#X connect 3 0 64 0;
#X connect 3 1 8 0;
#X connect 4 0 3 3;
#X connect 6 0 3 2;
#X connect 6 0 66 0;
#X connect 7 0 10 0;
#X connect 8 0 11 0;
#X connect 9 0 10 0;
#X connect 10 0 81 1;
#X connect 10 1 0 2;
#X connect 10 1 76 0;
#X connect 10 2 103 1;
#X connect 11 0 67 0;
#X connect 11 1 3 2;
#X connect 11 1 12 2;
#X connect 11 1 66 0;
#X connect 11 2 59 1;
#X connect 11 2 103 1;
#X connect 12 0 63 0;
#X connect 12 1 15 0;
#X connect 13 0 12 2;
#X connect 13 0 67 0;
#X connect 14 0 12 3;
#X connect 15 0 16 0;
#X connect 16 0 68 0;
#X connect 16 1 12 2;
#X connect 16 1 18 2;
#X connect 16 1 67 0;
#X connect 16 2 59 1;
#X connect 16 2 60 1;
#X connect 18 0 60 0;
#X connect 18 1 20 0;
#X connect 19 0 18 2;
#X connect 19 0 68 0;
#X connect 20 0 21 0;
#X connect 21 0 69 0;
#X connect 21 1 18 2;
#X connect 21 1 50 2;
#X connect 21 1 68 0;
#X connect 21 2 60 1;
#X connect 21 2 61 1;
#X connect 22 0 18 3;
#X connect 23 0 25 0;
#X connect 23 0 25 1;
#X connect 23 0 25 2;
#X connect 23 0 25 3;
#X connect 23 1 107 0;
#X connect 24 0 23 2;
#X connect 24 0 70 0;
#X connect 25 0 72 0;
#X connect 25 1 73 0;
#X connect 25 2 74 0;
#X connect 25 3 75 0;
#X connect 26 0 25 4;
#X connect 27 0 25 5;
#X connect 28 0 26 0;
#X connect 28 0 27 0;
#X connect 29 0 30 0;
#X connect 29 0 30 1;
#X connect 30 0 48 0;
#X connect 31 0 28 0;
#X connect 35 0 36 0;
#X connect 36 0 37 0;
#X connect 37 0 62 1;
#X connect 37 1 76 0;
#X connect 37 2 5 0;
#X connect 38 0 21 0;
#X connect 40 0 79 0;
#X connect 41 0 65 0;
#X connect 44 0 29 0;
#X connect 44 0 29 1;
#X connect 45 0 44 0;
#X connect 46 0 45 0;
#X connect 47 0 49 0;
#X connect 47 0 48 1;
#X connect 48 0 31 0;
#X connect 50 0 105 0;
#X connect 50 1 52 0;
#X connect 51 0 50 2;
#X connect 51 0 69 0;
#X connect 52 0 53 0;
#X connect 53 0 47 0;
#X connect 53 0 70 0;
#X connect 53 1 50 2;
#X connect 53 1 23 2;
#X connect 53 1 28 1;
#X connect 53 1 69 0;
#X connect 53 2 61 1;
#X connect 53 2 104 0;
#X connect 53 2 106 0;
#X connect 54 0 53 0;
#X connect 55 0 50 3;
#X connect 56 0 23 3;
#X connect 59 0 72 0;
#X connect 59 1 73 0;
#X connect 59 2 74 0;
#X connect 59 3 75 0;
#X connect 59 4 60 2;
#X connect 60 0 72 0;
#X connect 60 1 73 0;
#X connect 60 2 74 0;
#X connect 60 3 75 0;
#X connect 60 4 61 2;
#X connect 61 0 72 0;
#X connect 61 1 73 0;
#X connect 61 2 74 0;
#X connect 61 3 75 0;
#X connect 62 0 72 0;
#X connect 62 1 73 0;
#X connect 62 2 74 0;
#X connect 62 3 75 0;
#X connect 62 4 103 2;
#X connect 63 0 59 0;
#X connect 64 0 103 0;
#X connect 65 0 43 0;
#X connect 65 0 47 0;
#X connect 65 0 5 0;
#X connect 66 0 3 0;
#X connect 66 0 97 0;
#X connect 67 0 12 0;
#X connect 67 0 98 0;
#X connect 68 0 18 0;
#X connect 68 0 99 0;
#X connect 69 0 50 0;
#X connect 69 0 100 0;
#X connect 70 0 23 0;
#X connect 70 0 101 0;
#X connect 71 0 76 0;
#X connect 76 0 0 0;
#X connect 76 0 96 0;
#X connect 77 0 41 0;
#X connect 79 0 0 2;
#X connect 79 1 41 0;
#X connect 80 0 84 0;
#X connect 81 0 66 0;
#X connect 82 0 85 0;
#X connect 82 0 81 0;
#X connect 84 0 82 0;
#X connect 87 0 86 0;
#X connect 88 0 89 0;
#X connect 89 0 90 0;
#X connect 90 0 87 0;
#X connect 91 0 94 0;
#X connect 92 0 94 1;
#X connect 93 0 95 1;
#X connect 94 0 95 0;
#X connect 95 0 87 0;
#X connect 96 0 91 0;
#X connect 97 0 91 1;
#X connect 98 0 92 0;
#X connect 99 0 92 1;
#X connect 100 0 93 0;
#X connect 101 0 93 1;
#X connect 102 0 62 0;
#X connect 103 0 72 0;
#X connect 103 1 73 0;
#X connect 103 2 74 0;
#X connect 103 3 75 0;
#X connect 103 4 59 2;
#X connect 104 0 46 1;
#X connect 105 0 61 0;
#X connect 107 0 108 0;
#X connect 108 0 110 0;
#X connect 109 0 108 1;
#X connect 110 0 111 0;
#X connect 110 0 47 0;
#X connect 111 0 112 0;
#X connect 112 0 70 0;
#X connect 112 0 113 0;
