#N canvas 62 0 1826 1010 10;
#X obj 782 472 fx/pitch-shifter;
#X obj 800 549 fdn~;
#X obj 698 553 *~;
#X obj 612 363 synths/sine-glass;
#X obj 818 310 mtof;
#X obj 754 159 bng 19 250 50 0 empty empty empty 17 7 0 10 -262144
-1 -1;
#X floatatom 877 506 5 0 0 0 - - -, f 5;
#X obj 743 49 tgl 15 0 empty empty empty 17 7 0 10 -262144 -1 -1 0
1;
#X msg 856 201 78;
#X msg 827 204 83;
#X obj 801 582 lop~ 200;
#X msg 798 200 72;
#X obj 805 502 *~ 0.2;
#X obj 910 446 route 4 9;
#X obj 928 393 random 4;
#X obj 76 425 synths/sine-fm;
#X msg 778 421 9;
#X msg 811 422 105;
#X msg 844 421 139;
#X msg 875 422 0.5;
#X obj 401 453 rev1~;
#X obj 394 339 osc~;
#X obj 520 264 random 6;
#X obj 521 300 + 1;
#X obj 389 407 *~;
#X obj 446 370 adsr~ 20 10 1000 1000;
#X floatatom 75 378 5 0 0 0 - - -, f 5;
#X floatatom 114 378 5 0 0 0 - - -, f 5;
#X floatatom 151 378 5 0 0 0 - - -, f 5;
#X obj 109 282 random 100;
#X obj 1017 14 tgl 15 0 empty empty empty 17 7 0 10 -262144 -1 -1 0
1;
#X obj 92 248 metro 500;
#X obj 148 319 random 100;
#X obj 58 736 synths/sine-fm;
#X floatatom 57 689 5 0 0 0 - - -, f 5;
#X floatatom 96 689 5 0 0 0 - - -, f 5;
#X floatatom 133 689 5 0 0 0 - - -, f 5;
#X obj 58 591 random 100;
#X obj 132 617 random 100;
#X obj 260 801 *~ 0.05;
#X obj 211 655 *~ 0.05;
#X floatatom 296 324 6 0 0 0 - - -, f 6;
#X obj 59 556 delay;
#X obj 102 530 / 2;
#X obj 31 505 * 2;
#X obj 263 770 +~;
#X floatatom 719 755 5 0 0 0 - - -, f 5;
#X obj 346 751 / 100;
#X obj 776 726 mtof;
#X msg 1185 679 49;
#X obj 719 780 sig~;
#X obj 723 903 synths/phasor-vib;
#X obj 840 901 synths/phasor-vib;
#X obj 957 901 synths/phasor-vib;
#X obj 1073 900 synths/phasor-vib;
#X obj 1187 899 synths/phasor-vib;
#X msg 1150 679 44;
#X obj 304 579 * 1.428;
#X msg 1261 676 52;
#X msg 1222 676 51;
#X obj 1156 616 random 4;
#X obj 1155 644 select 0 1 2 3;
#X obj 340 655 random 2;
#X obj 342 680 + 1;
#X obj 343 717 line;
#X msg 342 699 \$1 100;
#X obj 238 549 random 2;
#X obj 240 574 + 1;
#X obj 241 611 line;
#X msg 240 593 \$1 100;
#X obj 270 636 / 100;
#X floatatom 899 203 5 0 0 0 - - -, f 5;
#X msg 970 274 73;
#X msg 1005 275 78;
#X msg 943 275 71;
#X msg 1037 276 83;
#X obj 947 247 select 0 1 2 3 4;
#X obj 990 183 select 0;
#X obj 948 219 random 4;
#X floatatom 530 137 5 0 0 0 - - -, f 5;
#X obj 529 218 * 8;
#X msg 926 484 46;
#X obj 1149 388 loadbang;
#X msg 713 523 0.5;
#X msg 423 414 1;
#X text 760 47 saw strings;
#X text 1036 11 fm sine / glass;
#X text 567 136 BPM;
#X msg 470 138 700;
#X obj 1204 1020 *~;
#X obj 1430 937 r sawToggle;
#X obj 1429 980 sig~;
#X obj 1147 1053 *~;
#X obj 1056 1054 *~;
#X obj 977 1057 *~;
#X obj 892 1036 *~;
#X obj 734 73 s sawToggle;
#X obj 1177 829 *~;
#X obj 1079 866 *~;
#X obj 1092 782 sig~ 1.5;
#X obj 980 786 sig~ 0.604;
#X obj 954 876 *~;
#X obj 840 874 *~;
#X obj 848 776 sig~ 1.21;
#X obj 1279 866 hsl 128 15 0 10 0 0 empty empty empty -2 -8 0 10 -262144
-1 -1 166 1;
#X obj 709 1853 outlet~;
#X obj 760 1853 outlet~;
#X obj 811 1853 outlet~;
#X obj 862 1853 outlet~;
#X obj 598 435 s~ fmclean;
#X obj 709 941 r~ fmclean;
#X obj 696 597 s~ fmverb;
#X obj 818 332 t b;
#X obj 818 354 s fmtrig;
#X obj 809 1001 r fmtrig;
#X obj 846 1096 hradio 15 0 0 4 empty empty empty 0 -8 0 10 -262144
-1 -1 3;
#X text 949 1900 hoi;
#X obj 1390 1412 r~ fmverb;
#X obj 1150 1527 fx/4mod-delay;
#X obj 404 496 s~ sine;
#X obj 393 261 sig~ 369.5;
#X obj 397 301 *~ 1;
#X obj 981 1357 svf~ 100;
#X obj 1074 1357 svf~ 100;
#X obj 1167 1357 svf~ 100;
#X obj 1260 1357 svf~ 100;
#X obj 491 882 sig~;
#X obj 491 904 lop~ 10;
#X obj 380 970 *~;
#X obj 420 972 *~;
#X obj 1308 1454 *~ 0.1;
#X obj 386 1100 r cam1;
#X obj 399 1124 r cam2;
#X obj 418 1147 r cam3;
#X obj 447 1170 r cam4;
#X obj 293 1208 surround/speaker-gate 50 0.1 0.5;
#X obj 283 1331 fx/4mod-delay;
#X obj 79 186 r sawToggle;
#X obj 491 860 r sawToggle;
#X obj 744 23 inlet;
#X obj 878 19 inlet;
#X obj 710 1066 surround/random-speaker 5;
#X obj 1326 1036 r cam1;
#X obj 1326 1148 sig~;
#X obj 1326 1170 lop~ 1;
#X obj 1376 1148 sig~;
#X obj 1376 1170 lop~ 1;
#X obj 1426 1148 sig~;
#X obj 1426 1170 lop~ 1;
#X obj 1476 1148 sig~;
#X obj 1476 1170 lop~ 1;
#X obj 1376 1036 r cam2;
#X obj 1426 1036 r cam3;
#X obj 1476 1036 r cam4;
#X obj 1279 1322 +~;
#X obj 1197 1331 +~;
#X obj 1098 1323 +~;
#X obj 1004 1317 +~;
#X obj 352 897 *~ 0.1;
#X obj 438 904 *~ 0.1;
#X obj 284 1295 *~ 0.01;
#X obj 1326 1078 * 20;
#X obj 1376 1078 * 20;
#X obj 1426 1078 * 20;
#X obj 1476 1078 * 20;
#X obj 1246 129 bng 53 250 50 0 empty empty empty 17 7 0 10 -262144
-1 -1;
#X obj 1315 264 t b b;
#X floatatom 1381 358 5 0 0 0 - - -, f 5;
#X obj 1337 292 random 4000;
#X obj 573 1178 fx/4mod-delay;
#X obj 574 1043 r~ sine;
#X obj 1337 314 + 2000;
#X obj 988 159 counter 2;
#X obj 1191 222 gate;
#X obj 1236 37 t f f;
#X obj 1236 85 sel 1;
#X obj 988 59 t b b;
#X floatatom 1036 132 5 0 0 0 - - -, f 5;
#X obj 1015 83 random 500;
#X obj 1015 105 + 500;
#X obj 986 133 delay;
#X obj 1305 353 delay;
#X msg 582 1154 1000 0.3 1 1 200 1;
#X obj 583 1130 loadbang;
#X obj 1278 1512 loadbang;
#X obj 1159 514 f;
#X obj 1195 514 + 1;
#X obj 1159 536 % 3;
#X obj 1159 558 sel 0;
#X obj 1159 580 bng 15 250 50 0 empty empty empty 17 7 0 10 -262144
-1 -1;
#X text 1308 141 IrRegular Metro Generator;
#X obj 574 1106 *~ 0.1;
#X obj 1391 1450 *~ 0.5;
#X msg 1277 1534 500 0.6 2 0.2 500 1;
#X text 1292 677 saw base pitch;
#X obj 722 809 lop~ 10;
#X obj 710 976 *~ 0.05;
#X obj 1204 990 sig~ 0.15;
#X obj 1431 1004 lop~ 0.1;
#X obj 1634 899 r speech;
#X floatatom 1634 931 5 0 0 0 - - -, f 5;
#X obj 1326 1110 -;
#X obj 1376 1110 -;
#X obj 1426 1110 -;
#X obj 1476 1110 -;
#X obj 1234 1040 sig~ 200;
#X msg 1636 1031 \$1 2000;
#X obj 1633 1070 line;
#X obj 1474 1336 number~;
#X obj 1632 984 * 150;
#X obj 1045 1000 *~ 0;
#X obj 894 1001 *~ 0;
#X obj 976 1003 *~ 1;
#X obj 1120 996 *~ 0;
#X obj 1190 780 sig~ 0.25;
#X obj 1169 996 *~ 1;
#X obj 915 969 unpack f f f f f, f 47;
#X obj 1178 858 lop~ 1;
#X msg 1332 934 0 1 0 0 1;
#X msg 1324 961 1 1 1 1 1;
#X obj 1318 758 sel 0 1;
#X msg 1266 780 2;
#X msg 1299 784 0.25;
#X obj 1391 713 r cam1;
#X obj 1441 713 r cam2;
#X obj 1491 713 r cam3;
#X obj 1541 713 r cam4;
#X obj 1426 772 +;
#X obj 1453 772 +;
#X obj 1426 794 +;
#X obj 1426 816 * 0.02;
#X obj 1430 959 + 0;
#X connect 0 0 12 0;
#X connect 1 0 10 0;
#X connect 2 0 111 0;
#X connect 3 0 0 0;
#X connect 3 0 109 0;
#X connect 4 0 3 0;
#X connect 4 0 112 0;
#X connect 5 0 22 0;
#X connect 5 0 25 0;
#X connect 6 0 1 1;
#X connect 7 0 96 0;
#X connect 8 0 4 0;
#X connect 9 0 4 0;
#X connect 10 0 2 0;
#X connect 11 0 4 0;
#X connect 12 0 1 0;
#X connect 13 0 0 1;
#X connect 13 1 0 1;
#X connect 14 0 13 0;
#X connect 15 0 40 0;
#X connect 16 0 0 1;
#X connect 17 0 0 2;
#X connect 18 0 0 3;
#X connect 19 0 0 4;
#X connect 20 0 119 0;
#X connect 21 0 24 0;
#X connect 22 0 23 0;
#X connect 23 0 121 1;
#X connect 24 0 20 0;
#X connect 25 0 24 1;
#X connect 26 0 15 0;
#X connect 26 0 44 0;
#X connect 27 0 15 1;
#X connect 28 0 15 2;
#X connect 29 0 27 0;
#X connect 30 0 174 0;
#X connect 31 0 29 0;
#X connect 31 0 32 0;
#X connect 31 0 42 0;
#X connect 31 0 62 0;
#X connect 31 0 66 0;
#X connect 32 0 28 0;
#X connect 33 0 45 1;
#X connect 34 0 33 0;
#X connect 35 0 33 1;
#X connect 36 0 33 2;
#X connect 37 0 35 0;
#X connect 38 0 36 0;
#X connect 39 0 158 0;
#X connect 40 0 159 0;
#X connect 41 0 31 1;
#X connect 41 0 43 0;
#X connect 42 0 37 0;
#X connect 42 0 38 0;
#X connect 43 0 42 1;
#X connect 44 0 34 0;
#X connect 45 0 39 0;
#X connect 46 0 50 0;
#X connect 47 0 39 1;
#X connect 48 0 46 0;
#X connect 49 0 48 0;
#X connect 49 0 57 0;
#X connect 50 0 195 0;
#X connect 51 0 211 0;
#X connect 52 0 212 0;
#X connect 53 0 210 0;
#X connect 54 0 213 0;
#X connect 55 0 215 0;
#X connect 56 0 48 0;
#X connect 57 0 26 0;
#X connect 58 0 48 0;
#X connect 59 0 48 0;
#X connect 60 0 61 0;
#X connect 61 0 56 0;
#X connect 61 1 49 0;
#X connect 61 2 59 0;
#X connect 61 3 58 0;
#X connect 62 0 63 0;
#X connect 63 0 65 0;
#X connect 64 0 47 0;
#X connect 65 0 64 0;
#X connect 66 0 67 0;
#X connect 67 0 69 0;
#X connect 68 0 70 0;
#X connect 69 0 68 0;
#X connect 70 0 40 1;
#X connect 71 0 4 0;
#X connect 72 0 4 0;
#X connect 73 0 4 0;
#X connect 74 0 4 0;
#X connect 75 0 4 0;
#X connect 76 0 74 0;
#X connect 76 1 72 0;
#X connect 76 2 73 0;
#X connect 76 3 75 0;
#X connect 77 0 78 0;
#X connect 78 0 76 0;
#X connect 79 0 80 0;
#X connect 79 0 41 0;
#X connect 81 0 6 0;
#X connect 82 0 16 0;
#X connect 82 0 17 0;
#X connect 82 0 18 0;
#X connect 82 0 19 0;
#X connect 82 0 81 0;
#X connect 82 0 83 0;
#X connect 82 0 84 0;
#X connect 82 0 88 0;
#X connect 83 0 2 1;
#X connect 84 0 20 1;
#X connect 88 0 79 0;
#X connect 89 0 92 1;
#X connect 89 0 93 1;
#X connect 89 0 94 1;
#X connect 89 0 95 1;
#X connect 90 0 231 0;
#X connect 91 0 198 0;
#X connect 92 0 125 0;
#X connect 93 0 124 0;
#X connect 94 0 123 0;
#X connect 95 0 122 0;
#X connect 97 0 217 0;
#X connect 98 0 54 0;
#X connect 99 0 98 1;
#X connect 100 0 101 1;
#X connect 101 0 53 0;
#X connect 102 0 52 0;
#X connect 103 0 102 1;
#X connect 104 0 55 1;
#X connect 104 0 54 1;
#X connect 104 0 53 1;
#X connect 104 0 52 1;
#X connect 104 0 51 1;
#X connect 110 0 196 0;
#X connect 112 0 113 0;
#X connect 114 0 141 1;
#X connect 117 0 192 0;
#X connect 118 0 105 0;
#X connect 118 1 106 0;
#X connect 118 2 107 0;
#X connect 118 3 108 0;
#X connect 120 0 121 0;
#X connect 121 0 21 0;
#X connect 122 0 105 0;
#X connect 122 2 130 0;
#X connect 123 0 106 0;
#X connect 123 2 130 0;
#X connect 124 0 107 0;
#X connect 124 2 130 0;
#X connect 125 0 108 0;
#X connect 125 2 130 0;
#X connect 126 0 127 0;
#X connect 127 0 128 1;
#X connect 127 0 129 1;
#X connect 128 0 135 0;
#X connect 128 0 135 1;
#X connect 128 0 135 2;
#X connect 128 0 135 3;
#X connect 129 0 135 0;
#X connect 129 0 135 1;
#X connect 129 0 135 2;
#X connect 129 0 135 3;
#X connect 130 0 118 0;
#X connect 131 0 135 4;
#X connect 132 0 135 5;
#X connect 133 0 135 6;
#X connect 134 0 135 7;
#X connect 135 0 105 0;
#X connect 135 0 160 0;
#X connect 135 1 106 0;
#X connect 135 1 160 0;
#X connect 135 2 107 0;
#X connect 135 2 160 0;
#X connect 135 3 108 0;
#X connect 135 3 160 0;
#X connect 136 0 105 0;
#X connect 136 1 106 0;
#X connect 136 2 107 0;
#X connect 136 3 108 0;
#X connect 137 0 31 0;
#X connect 138 0 126 0;
#X connect 139 0 7 0;
#X connect 140 0 30 0;
#X connect 141 0 105 0;
#X connect 141 1 106 0;
#X connect 141 2 107 0;
#X connect 141 3 108 0;
#X connect 141 4 115 0;
#X connect 142 0 161 0;
#X connect 143 0 144 0;
#X connect 144 0 157 1;
#X connect 145 0 146 0;
#X connect 146 0 156 1;
#X connect 147 0 148 0;
#X connect 148 0 155 1;
#X connect 149 0 150 0;
#X connect 150 0 154 1;
#X connect 151 0 162 0;
#X connect 152 0 163 0;
#X connect 153 0 164 0;
#X connect 154 0 125 1;
#X connect 154 0 208 0;
#X connect 155 0 124 1;
#X connect 156 0 123 1;
#X connect 157 0 122 1;
#X connect 158 0 128 0;
#X connect 159 0 129 0;
#X connect 160 0 136 0;
#X connect 161 0 201 0;
#X connect 162 0 202 0;
#X connect 163 0 203 0;
#X connect 164 0 204 0;
#X connect 165 0 166 0;
#X connect 165 0 173 1;
#X connect 166 0 181 0;
#X connect 166 0 185 0;
#X connect 166 1 168 0;
#X connect 168 0 171 0;
#X connect 169 0 105 0;
#X connect 169 1 106 0;
#X connect 169 2 107 0;
#X connect 169 3 108 0;
#X connect 171 0 167 0;
#X connect 171 0 181 1;
#X connect 172 0 77 0;
#X connect 173 0 176 0;
#X connect 173 0 5 0;
#X connect 173 0 14 0;
#X connect 174 0 175 0;
#X connect 174 1 173 0;
#X connect 175 0 165 0;
#X connect 176 0 180 0;
#X connect 176 1 178 0;
#X connect 178 0 179 0;
#X connect 179 0 177 0;
#X connect 179 0 180 1;
#X connect 180 0 172 0;
#X connect 181 0 165 0;
#X connect 182 0 169 1;
#X connect 183 0 182 0;
#X connect 184 0 193 0;
#X connect 185 0 186 0;
#X connect 185 0 187 0;
#X connect 186 0 185 1;
#X connect 187 0 188 0;
#X connect 188 0 189 0;
#X connect 189 0 60 0;
#X connect 191 0 169 0;
#X connect 192 0 118 0;
#X connect 193 0 118 1;
#X connect 195 0 97 0;
#X connect 195 0 98 0;
#X connect 195 0 101 0;
#X connect 195 0 102 0;
#X connect 195 0 51 0;
#X connect 196 0 141 0;
#X connect 197 0 89 0;
#X connect 198 0 89 1;
#X connect 199 0 200 0;
#X connect 200 0 209 0;
#X connect 200 0 220 0;
#X connect 201 0 143 0;
#X connect 202 0 145 0;
#X connect 203 0 147 0;
#X connect 204 0 149 0;
#X connect 205 0 154 0;
#X connect 205 0 155 0;
#X connect 205 0 156 0;
#X connect 205 0 157 0;
#X connect 206 0 207 0;
#X connect 207 0 204 1;
#X connect 207 0 203 1;
#X connect 207 0 202 1;
#X connect 207 0 201 1;
#X connect 209 0 206 0;
#X connect 210 0 93 0;
#X connect 211 0 95 0;
#X connect 212 0 94 0;
#X connect 213 0 92 0;
#X connect 214 0 97 1;
#X connect 215 0 92 0;
#X connect 215 0 93 0;
#X connect 215 0 94 0;
#X connect 215 0 95 0;
#X connect 216 0 211 1;
#X connect 216 1 212 1;
#X connect 216 2 210 1;
#X connect 216 3 213 1;
#X connect 216 4 215 1;
#X connect 217 0 55 0;
#X connect 218 0 216 0;
#X connect 219 0 216 0;
#X connect 220 0 219 0;
#X connect 220 0 221 0;
#X connect 220 1 218 0;
#X connect 220 1 222 0;
#X connect 221 0 214 0;
#X connect 222 0 214 0;
#X connect 223 0 227 0;
#X connect 224 0 227 1;
#X connect 225 0 228 0;
#X connect 226 0 228 1;
#X connect 227 0 229 0;
#X connect 228 0 229 1;
#X connect 229 0 230 0;
#X connect 230 0 104 0;
#X connect 231 0 91 0;
