#N canvas 0 22 1280 728 10;
#X obj 320 949 dac~ 1 2;
#X obj 597 352 fx/pitch-shifter;
#X obj 615 429 fdn~;
#X obj 344 623 +~;
#X obj 513 433 *~;
#X obj 427 243 synths/sine-glass;
#X obj 633 190 mtof;
#X obj 634 112 bng 19 250 50 0 empty empty empty 17 7 0 10 -262144
-1 -1;
#X floatatom 692 386 5 0 0 0 - - -, f 5;
#X obj 975 21 tgl 15 0 empty empty empty 17 7 0 10 -262144 -1 -1 1
1;
#X obj 847 163 counter 4;
#X msg 795 504 \$1 300;
#X obj 659 523 vline~;
#X obj 476 489 vcf~ 0.1;
#X obj 873 437 random 10;
#X obj 379 578 *~ 2;
#X obj 921 186 s bang;
#X msg 691 81 78;
#X msg 662 84 83;
#X obj 616 462 lop~ 200;
#X msg 633 150 72;
#X obj 620 382 *~ 0.2;
#X obj 725 326 route 4 9;
#X obj 685 150 t b;
#X obj 743 273 random 4;
#X obj -109 305 synths/sine-fm;
#X msg 593 301 9;
#X msg 626 302 105;
#X msg 659 301 139;
#X msg 690 302 0.5;
#X obj 296 582 *~ 0.05;
#X obj 802 195 metro 4000;
#X obj 216 333 rev1~;
#X obj 209 219 osc~;
#X obj 335 144 random 6;
#X obj 336 180 + 1;
#X obj 204 287 *~;
#X obj 261 250 adsr~ 20 10 1000 1000;
#X obj 212 181 *~ 369.5;
#X floatatom -110 258 5 0 0 0 - - -, f 5;
#X floatatom -71 258 5 0 0 0 - - -, f 5;
#X floatatom -34 258 5 0 0 0 - - -, f 5;
#X obj -76 162 random 100;
#X obj 975 43 tgl 15 0 empty empty empty 17 7 0 10 -262144 -1 -1 1
1;
#X obj -93 128 metro 500;
#X obj -37 199 random 100;
#X obj -127 616 synths/sine-fm;
#X floatatom -128 569 5 0 0 0 - - -, f 5;
#X floatatom -89 569 5 0 0 0 - - -, f 5;
#X floatatom -52 569 5 0 0 0 - - -, f 5;
#X obj -127 471 random 100;
#X obj -53 497 random 100;
#X obj 75 681 *~ 0.05;
#X obj 26 535 *~ 0.05;
#X floatatom 53 195 5 0 0 0 - - -, f 5;
#X obj -126 436 delay;
#X obj -83 410 / 2;
#X obj -154 385 * 2;
#X obj 29 713 rev1~;
#X msg -112 691 1;
#X obj 78 650 +~;
#X floatatom 534 635 5 0 0 0 - - -, f 5;
#X obj 161 631 / 100;
#X floatatom 475 691 5 0 0 0 - - -, f 5;
#X obj 661 606 mtof;
#X msg 910 579 49;
#X obj 534 660 sig~;
#X msg 551 568 61;
#X obj 655 704 *~ 1.21;
#X obj 771 684 *~ 0.604, f 14;
#X msg 591 566 64;
#X obj 423 821 +~;
#X obj 404 620 synths/gaussian-rain-ground;
#X obj 423 738 *~ 2;
#X floatatom 644 573 5 0 0 0 - - -, f 5;
#X obj 538 733 synths/phasor-vib;
#X obj 655 731 synths/phasor-vib;
#X obj 772 731 synths/phasor-vib;
#X obj 888 730 synths/phasor-vib;
#X obj 1001 730 synths/phasor-vib;
#X floatatom 889 682 6 0 0 0 - - -, f 6;
#X obj 879 652 *~ 1.49;
#X obj 997 645 *~ 1.985;
#X msg 875 579 44;
#X obj 537 689 lop~ 10;
#X obj 119 459 * 1.428;
#X msg 986 576 52;
#X msg 947 576 51;
#X obj 881 516 random 4;
#X obj 880 544 select 0 1 2 3;
#X obj 440 864 hip~ 1000;
#X floatatom 664 811 5 0 0 0 - - -, f 5;
#X obj 759 798 line;
#X obj 214 783 random 700;
#X obj 215 805 + 300;
#X msg 759 767 \$1 100;
#X obj 155 535 random 2;
#X obj 157 560 + 1;
#X obj 158 597 line;
#X msg 157 579 \$1 100;
#X obj 53 429 random 2;
#X obj 55 454 + 1;
#X obj 56 491 line;
#X msg 55 473 \$1 100;
#X obj 85 516 / 100;
#X obj 424 910 *~ 0.8;
#X floatatom 734 83 5 0 0 0 - - -, f 5;
#X msg 815 114 73;
#X msg 850 115 78;
#X msg 788 115 71;
#X msg 882 116 83;
#X obj 792 87 select 0 1 2 3 4;
#X obj 33 64 counter 4;
#X obj 145 71 select 0;
#X obj 793 59 random 4;
#X floatatom 345 17 5 0 0 0 - - -, f 5;
#X msg 56 229 411;
#X obj 344 98 * 8;
#X msg 741 364 46;
#X obj 964 268 loadbang;
#X msg 528 403 0.5;
#X obj -185 668 loadbang;
#X floatatom 231 616 5 0 0 0 - - -, f 5;
#X msg 238 294 1;
#X text 992 19 saw strings;
#X text 994 40 fm sine / glass;
#X text 382 16 BPM;
#X obj 800 6 inlet;
#X obj 644 10 inlet;
#X text 840 3 comment;
#X text 840 7 level saw strings;
#X text 681 9 level rain;
#X obj 492 9 inlet;
#X text 530 8 level noise;
#X obj 643 45 clip 0 2;
#X obj 800 32 clip 0 0.05;
#X obj 59 12 inlet;
#X text 93 12 bpm noise;
#X obj 210 858 *~ 0;
#X obj 975 68 tgl 15 0 empty empty empty 17 7 0 10 -262144 -1 -1 1
1;
#X text 995 66 noise;
#X obj 260 850 *~ 0;
#X obj 453 815 *~;
#X obj 572 790 sig~;
#X obj 497 822 lop~ 0.2;
#X floatatom 561 25 5 0 0 0 - - -, f 5;
#X obj 928 111 * 0.05;
#X obj 424 773 *~;
#X obj 976 95 tgl 15 0 empty empty empty 17 7 0 10 -262144 -1 -1 1
1;
#X obj 975 156 sig~;
#X obj 974 186 lop~ 0.5;
#X text 996 94 rain;
#X obj 470 727 clip 0 2;
#X obj 460 783 *~ 1.2;
#X obj 1094 14 inlet;
#X text 1129 11 saw detune;
#X msg 285 18 700;
#X obj 231 649 clip 0 1;
#X obj 207 737 *~ 0.5;
#X obj 243 734 *~ 0.5;
#X obj 180 12 inlet;
#X text 218 12 bpm;
#X connect 1 0 21 0;
#X connect 2 0 19 0;
#X connect 3 0 0 0;
#X connect 3 0 0 1;
#X connect 3 0 13 0;
#X connect 4 0 3 1;
#X connect 5 0 1 0;
#X connect 5 0 30 0;
#X connect 6 0 5 0;
#X connect 7 0 23 0;
#X connect 7 0 34 0;
#X connect 7 0 37 0;
#X connect 8 0 2 1;
#X connect 9 0 31 0;
#X connect 9 0 146 0;
#X connect 11 0 12 0;
#X connect 12 0 13 1;
#X connect 13 0 15 0;
#X connect 14 0 11 0;
#X connect 15 0 0 1;
#X connect 17 0 6 0;
#X connect 18 0 6 0;
#X connect 19 0 4 0;
#X connect 20 0 6 0;
#X connect 21 0 2 0;
#X connect 22 0 1 1;
#X connect 22 1 1 1;
#X connect 23 0 24 0;
#X connect 24 0 22 0;
#X connect 25 0 53 0;
#X connect 26 0 1 1;
#X connect 27 0 1 2;
#X connect 28 0 1 3;
#X connect 29 0 1 4;
#X connect 30 0 0 0;
#X connect 30 0 0 1;
#X connect 31 0 10 0;
#X connect 31 0 14 0;
#X connect 31 0 16 0;
#X connect 31 0 24 0;
#X connect 31 0 7 0;
#X connect 31 0 88 0;
#X connect 32 0 30 0;
#X connect 33 0 36 0;
#X connect 34 0 35 0;
#X connect 35 0 38 1;
#X connect 36 0 32 0;
#X connect 37 0 36 1;
#X connect 38 0 33 0;
#X connect 39 0 25 0;
#X connect 39 0 57 0;
#X connect 40 0 25 1;
#X connect 41 0 25 2;
#X connect 42 0 40 0;
#X connect 43 0 44 0;
#X connect 44 0 42 0;
#X connect 44 0 45 0;
#X connect 44 0 55 0;
#X connect 44 0 93 0;
#X connect 44 0 96 0;
#X connect 44 0 100 0;
#X connect 44 0 112 0;
#X connect 45 0 41 0;
#X connect 46 0 58 0;
#X connect 46 0 60 1;
#X connect 47 0 46 0;
#X connect 48 0 46 1;
#X connect 49 0 46 2;
#X connect 50 0 48 0;
#X connect 51 0 49 0;
#X connect 52 0 158 0;
#X connect 53 0 159 0;
#X connect 54 0 44 1;
#X connect 54 0 56 0;
#X connect 55 0 50 0;
#X connect 55 0 51 0;
#X connect 56 0 55 1;
#X connect 57 0 47 0;
#X connect 59 0 58 1;
#X connect 60 0 52 0;
#X connect 61 0 66 0;
#X connect 62 0 52 1;
#X connect 63 0 152 0;
#X connect 64 0 61 0;
#X connect 65 0 64 0;
#X connect 65 0 85 0;
#X connect 66 0 84 0;
#X connect 67 0 64 0;
#X connect 68 0 76 0;
#X connect 69 0 77 0;
#X connect 70 0 64 0;
#X connect 71 0 90 0;
#X connect 72 0 73 0;
#X connect 73 0 147 0;
#X connect 74 0 64 0;
#X connect 75 0 153 0;
#X connect 76 0 153 0;
#X connect 77 0 153 0;
#X connect 78 0 153 0;
#X connect 79 0 153 0;
#X connect 80 0 78 0;
#X connect 81 0 78 0;
#X connect 82 0 79 0;
#X connect 83 0 64 0;
#X connect 84 0 68 0;
#X connect 84 0 69 0;
#X connect 84 0 81 0;
#X connect 84 0 82 0;
#X connect 84 0 75 0;
#X connect 85 0 39 0;
#X connect 86 0 64 0;
#X connect 87 0 64 0;
#X connect 88 0 89 0;
#X connect 89 0 83 0;
#X connect 89 1 65 0;
#X connect 89 2 87 0;
#X connect 89 3 86 0;
#X connect 90 0 0 1;
#X connect 90 0 105 0;
#X connect 91 0 90 1;
#X connect 92 0 91 0;
#X connect 93 0 94 0;
#X connect 94 0 95 0;
#X connect 95 0 92 0;
#X connect 96 0 97 0;
#X connect 97 0 99 0;
#X connect 98 0 62 0;
#X connect 99 0 98 0;
#X connect 100 0 101 0;
#X connect 101 0 103 0;
#X connect 102 0 104 0;
#X connect 103 0 102 0;
#X connect 104 0 53 1;
#X connect 105 0 0 0;
#X connect 106 0 6 0;
#X connect 107 0 6 0;
#X connect 108 0 6 0;
#X connect 109 0 6 0;
#X connect 110 0 6 0;
#X connect 111 0 109 0;
#X connect 111 1 107 0;
#X connect 111 2 108 0;
#X connect 111 3 110 0;
#X connect 112 0 113 0;
#X connect 113 0 114 0;
#X connect 114 0 111 0;
#X connect 115 0 54 0;
#X connect 115 0 117 0;
#X connect 117 0 31 1;
#X connect 118 0 8 0;
#X connect 119 0 26 0;
#X connect 119 0 27 0;
#X connect 119 0 28 0;
#X connect 119 0 29 0;
#X connect 119 0 118 0;
#X connect 119 0 120 0;
#X connect 119 0 123 0;
#X connect 119 0 156 0;
#X connect 120 0 4 1;
#X connect 121 0 59 0;
#X connect 122 0 157 0;
#X connect 123 0 32 1;
#X connect 127 0 135 0;
#X connect 128 0 134 0;
#X connect 132 0 122 0;
#X connect 134 0 73 1;
#X connect 135 0 153 1;
#X connect 136 0 54 0;
#X connect 138 0 0 0;
#X connect 139 0 138 1;
#X connect 139 0 141 1;
#X connect 141 0 0 1;
#X connect 142 0 71 0;
#X connect 143 0 144 0;
#X connect 144 0 142 1;
#X connect 145 0 134 0;
#X connect 146 0 143 0;
#X connect 147 0 71 1;
#X connect 148 0 149 0;
#X connect 149 0 150 0;
#X connect 150 0 147 1;
#X connect 152 0 153 1;
#X connect 153 0 142 0;
#X connect 154 0 79 1;
#X connect 154 0 78 1;
#X connect 154 0 77 1;
#X connect 154 0 76 1;
#X connect 154 0 75 1;
#X connect 156 0 115 0;
#X connect 157 0 158 1;
#X connect 157 0 159 1;
#X connect 158 0 138 0;
#X connect 159 0 141 0;
#X connect 160 0 115 0;
