#N canvas 62 0 1826 1010 10;
#X obj 319 735 fdn~;
#X msg 392 614 exponential 32 10 10000;
#X floatatom 92 340 5 0 0 0 - - -, f 5;
#X obj 62 99 random 4;
#X obj 56 202 sel 0 1 2 3;
#X obj 59 49 tgl 15 0 empty empty empty 17 7 0 10 -262144 -1 -1 1 1
;
#X obj 101 417 mtof;
#X obj 372 591 loadbang;
#X obj 60 124 change;
#X obj 234 241 f;
#X obj 249 89 t b b;
#X obj 92 315 +;
#X msg 270 183 4;
#X msg 298 183 7;
#X obj 80 147 t f b;
#X floatatom 310 216 5 0 0 0 - - -, f 5;
#X msg 365 182 0;
#X floatatom 193 319 5 0 0 0 - - -, f 5;
#X obj 234 265 +, f 5;
#X obj 230 297 % 12;
#X msg 334 183 -5;
#X msg 56 227 60;
#X msg 83 227 64;
#X msg 110 227 64;
#X msg 137 227 71;
#X obj 276 118 random 32;
#X text 341 119 4/32th chance to modulate;
#X text 230 321 transposition;
#X text 278 463 fm modulator;
#X obj 367 736 fdn~;
#X text 407 735 reverb;
#X obj 276 145 sel 0 1 2, f 19;
#X obj 89 276 + 4;
#X obj 327 889 dac~ 1 2 3 4;
#X obj 323 856 *~;
#X obj 348 856 *~;
#X obj 373 856 *~;
#X obj 398 856 *~;
#X obj 575 766 hsl 128 15 0.01 1 1 0 empty empty empty -2 -8 0 10 -262144
-1 -1 7800 1;
#X obj 575 808 sig~;
#X obj 575 830 lop~ 10;
#X obj 575 786 - 0.01;
#X obj 227 413 * 0.5;
#X msg 393 655 10;
#X msg 394 636 15;
#X obj 227 437 synths/sine-pluck 200 5000;
#X obj 99 489 synths/sine-pluck 10 2000;
#X obj 63 75 metro 1000;
#X obj 84 619 fx/4mod-delay;
#X obj 73 790 *~ 0.05;
#X obj 141 794 *~ 0.05;
#X obj 227 461 *~ 500;
#X obj 507 324 * 2;
#X obj 488 433 synths/sine-pluck 1000 2000;
#X obj 642 387 synths/sine-pluck 500 6000;
#X obj 640 356 * 1.5;
#X obj 642 409 *~ 400;
#X obj 296 630 *~ 0.02;
#X obj 132 552 *~ 0.2;
#X obj 484 467 *~ 0;
#X connect 0 0 34 0;
#X connect 0 1 35 0;
#X connect 1 0 0 0;
#X connect 1 0 29 0;
#X connect 2 0 6 0;
#X connect 3 0 8 0;
#X connect 4 0 21 0;
#X connect 4 1 22 0;
#X connect 4 2 23 0;
#X connect 4 3 24 0;
#X connect 5 0 47 0;
#X connect 6 0 42 0;
#X connect 6 0 46 0;
#X connect 6 0 52 0;
#X connect 7 0 1 0;
#X connect 7 0 44 0;
#X connect 7 0 43 0;
#X connect 8 0 14 0;
#X connect 9 0 18 0;
#X connect 10 0 9 0;
#X connect 10 1 25 0;
#X connect 11 0 2 0;
#X connect 12 0 15 0;
#X connect 13 0 15 0;
#X connect 14 0 4 0;
#X connect 14 1 10 0;
#X connect 15 0 18 1;
#X connect 16 0 15 0;
#X connect 17 0 9 1;
#X connect 17 0 11 1;
#X connect 18 0 19 0;
#X connect 19 0 17 0;
#X connect 20 0 15 0;
#X connect 21 0 32 0;
#X connect 22 0 32 0;
#X connect 23 0 32 0;
#X connect 24 0 32 0;
#X connect 25 0 31 0;
#X connect 29 0 36 0;
#X connect 29 1 37 0;
#X connect 31 0 12 0;
#X connect 31 1 13 0;
#X connect 31 2 20 0;
#X connect 31 3 16 0;
#X connect 32 0 11 0;
#X connect 34 0 33 0;
#X connect 35 0 33 1;
#X connect 36 0 33 2;
#X connect 37 0 33 3;
#X connect 38 0 41 0;
#X connect 39 0 40 0;
#X connect 40 0 37 1;
#X connect 40 0 36 1;
#X connect 40 0 35 1;
#X connect 40 0 34 1;
#X connect 41 0 39 0;
#X connect 42 0 45 0;
#X connect 43 0 0 2;
#X connect 43 0 29 2;
#X connect 44 0 0 1;
#X connect 44 0 29 1;
#X connect 45 0 51 0;
#X connect 46 0 58 0;
#X connect 47 0 3 0;
#X connect 48 0 34 0;
#X connect 48 0 49 0;
#X connect 49 0 0 0;
#X connect 50 0 29 0;
#X connect 51 0 46 1;
#X connect 52 0 53 0;
#X connect 52 0 55 0;
#X connect 53 0 59 0;
#X connect 54 0 56 0;
#X connect 55 0 54 0;
#X connect 56 0 53 1;
#X connect 57 0 0 0;
#X connect 57 0 29 0;
#X connect 58 0 48 0;
#X connect 58 0 57 0;
#X connect 59 0 57 0;
