#N canvas 54 -8 1842 1026 10;
#X obj 566 615 cnv 15 500 135 empty empty fx 470 12 0 14 -233017 -66577
0;
#X obj 782 355 cnv 15 529 207 empty empty sub 493 12 0 14 -233017 -66577
0;
#X obj 465 357 cnv 15 283 149 empty empty fm\ pluck 207 8 0 14 -233017
-66577 0;
#X obj 475 12 cnv 15 494 321 empty empty midi 454 11 0 14 -233017 -66577
0;
#X obj 107 518 dac~ 1 2 3 4;
#X obj 103 485 *~;
#X obj 128 485 *~;
#X obj 153 485 *~;
#X obj 178 485 *~;
#X obj 32 211 osc~;
#X obj 35 113 mtof;
#X msg 36 42 60 64 67 71;
#X obj 47 71 unpack f f f f;
#X obj 35 135 sig~;
#X obj 88 210 osc~;
#X obj 91 112 mtof;
#X obj 91 134 sig~;
#X obj 141 206 osc~;
#X obj 144 108 mtof;
#X obj 144 130 sig~;
#X obj 193 207 osc~;
#X obj 196 109 mtof;
#X obj 196 131 sig~;
#X msg 140 35 62 65 69 74;
#X obj 35 169 lop~ 2;
#X obj 91 168 lop~ 2;
#X obj 144 164 lop~ 2;
#X obj 196 165 lop~ 2;
#X floatatom 249 134 5 0 0 0 - - -, f 5;
#X obj 225 357 hsl 128 15 0.01 1 1 0 empty empty empty -2 -8 0 10 -262144
-1 -1 0 1;
#X obj 223 421 sig~;
#X obj 223 452 lop~ 10;
#X obj 223 390 - 0.01;
#X obj 490 802 dac~;
#X obj 792 712 fdn~;
#X msg 895 654 exponential 32 10 10000;
#X floatatom 521 312 5 0 0 0 - - -, f 5;
#X obj 491 71 random 4;
#X obj 485 174 sel 0 1 2 3;
#X obj 488 21 tgl 15 0 empty empty empty 17 7 0 10 -262144 -1 -1 0
1;
#X obj 478 376 mtof;
#X obj 478 480 *~ 0.5;
#X obj 872 629 loadbang;
#X msg 894 674 10;
#X msg 893 693 3;
#X obj 489 96 change;
#X obj 663 213 f;
#X obj 678 61 t b b;
#X obj 521 287 +;
#X msg 699 155 4;
#X msg 727 155 7;
#X msg 757 156 -1;
#X obj 509 119 t f b;
#X floatatom 739 188 5 0 0 0 - - -, f 5;
#X msg 821 156 0;
#X floatatom 622 291 5 0 0 0 - - -, f 5;
#X obj 663 237 +, f 5;
#X obj 659 269 % 12;
#X msg 787 154 -5;
#X obj 705 117 sel 0 1 2 3, f 19;
#X msg 485 199 60;
#X msg 512 199 64;
#X msg 539 199 64;
#X msg 566 199 71;
#X obj 598 396 synths/sine-pluck 5000;
#X obj 705 90 random 32;
#X text 770 91 4/32th chance to modulate;
#X obj 959 407 mtof;
#X text 659 293 transposition;
#X obj 959 363 change;
#X obj 963 506 lop~ 1000;
#X obj 791 464 synths/saw-pwm-pluck 10000;
#X obj 593 659 lop~ 5000;
#X obj 960 464 synths/saw-pwm-pluck 10000;
#X obj 959 441 * 1.01;
#X obj 1142 466 synths/saw-pwm-pluck 10000;
#X obj 1141 443 * 1.5;
#X text 649 422 fm modulator;
#X obj 598 420 *~ 1000;
#X obj 880 538 *~ 0.1;
#X obj 476 448 synths/sine-pluck 400;
#X text 830 711 reverb;
#X obj 959 386 + 40;
#X obj 518 248 + 4;
#X obj 598 372 * 3;
#X obj 796 637 *~ 0.1;
#X obj 596 685 *~ 0.3;
#X obj 492 47 metro 400;
#X obj 594 635 lofidelay~ 630 0.3;
#X connect 5 0 4 0;
#X connect 6 0 4 1;
#X connect 7 0 4 2;
#X connect 8 0 4 3;
#X connect 9 0 5 0;
#X connect 10 0 13 0;
#X connect 11 0 12 0;
#X connect 12 0 10 0;
#X connect 12 1 15 0;
#X connect 12 2 18 0;
#X connect 12 3 21 0;
#X connect 13 0 24 0;
#X connect 14 0 6 0;
#X connect 15 0 16 0;
#X connect 16 0 25 0;
#X connect 17 0 7 0;
#X connect 18 0 19 0;
#X connect 19 0 26 0;
#X connect 20 0 8 0;
#X connect 21 0 22 0;
#X connect 22 0 27 0;
#X connect 23 0 12 0;
#X connect 24 0 9 0;
#X connect 25 0 14 0;
#X connect 26 0 17 0;
#X connect 27 0 20 0;
#X connect 28 0 27 1;
#X connect 28 0 26 1;
#X connect 28 0 25 1;
#X connect 28 0 24 1;
#X connect 29 0 32 0;
#X connect 30 0 31 0;
#X connect 31 0 8 1;
#X connect 31 0 7 1;
#X connect 31 0 6 1;
#X connect 31 0 5 1;
#X connect 32 0 30 0;
#X connect 34 0 33 0;
#X connect 34 1 33 1;
#X connect 35 0 34 0;
#X connect 36 0 40 0;
#X connect 37 0 45 0;
#X connect 38 0 60 0;
#X connect 38 1 61 0;
#X connect 38 2 62 0;
#X connect 38 3 63 0;
#X connect 39 0 87 0;
#X connect 40 0 80 0;
#X connect 40 0 84 0;
#X connect 41 0 33 0;
#X connect 41 0 33 1;
#X connect 41 0 85 0;
#X connect 41 0 88 0;
#X connect 42 0 35 0;
#X connect 42 0 43 0;
#X connect 42 0 44 0;
#X connect 43 0 34 1;
#X connect 44 0 34 2;
#X connect 45 0 52 0;
#X connect 46 0 56 0;
#X connect 47 0 46 0;
#X connect 47 1 65 0;
#X connect 48 0 36 0;
#X connect 49 0 53 0;
#X connect 50 0 53 0;
#X connect 51 0 53 0;
#X connect 52 0 38 0;
#X connect 52 1 47 0;
#X connect 53 0 56 1;
#X connect 54 0 53 0;
#X connect 55 0 46 1;
#X connect 55 0 69 0;
#X connect 55 0 48 1;
#X connect 56 0 57 0;
#X connect 57 0 55 0;
#X connect 58 0 53 0;
#X connect 59 0 49 0;
#X connect 59 1 50 0;
#X connect 59 2 51 0;
#X connect 59 3 58 0;
#X connect 59 4 54 0;
#X connect 60 0 83 0;
#X connect 61 0 83 0;
#X connect 62 0 83 0;
#X connect 63 0 83 0;
#X connect 64 0 78 0;
#X connect 65 0 59 0;
#X connect 67 0 71 0;
#X connect 67 0 74 0;
#X connect 67 0 76 0;
#X connect 69 0 82 0;
#X connect 70 0 79 0;
#X connect 71 0 70 0;
#X connect 72 0 86 0;
#X connect 73 0 70 0;
#X connect 74 0 73 0;
#X connect 75 0 70 0;
#X connect 76 0 75 0;
#X connect 78 0 80 1;
#X connect 79 0 33 0;
#X connect 79 0 33 1;
#X connect 79 0 85 0;
#X connect 79 0 88 0;
#X connect 80 0 41 0;
#X connect 82 0 67 0;
#X connect 83 0 48 0;
#X connect 84 0 64 0;
#X connect 85 0 34 0;
#X connect 86 0 33 0;
#X connect 86 0 33 1;
#X connect 87 0 37 0;
#X connect 88 0 72 0;
