#N canvas 62 0 1826 1010 10;
#X obj 23 25 util/osc-in;
#X floatatom 23 90 9 0 0 0 - - -, f 9;
#X floatatom 117 90 9 0 0 0 - - -, f 9;
#X floatatom 211 90 9 0 0 0 - - -, f 9;
#X floatatom 305 90 9 0 0 0 - - -, f 9;
#X obj 332 327 f 0;
#X obj 369 347 + 1;
#X obj 305 297 t f b;
#N canvas 0 0 450 300 (subpatch) 0;
#X array cam3 32 float 6 black black;
#X coords 0 1000 32 0 200 100 1;
#X restore 23 556 graph;
#N canvas 0 0 450 300 (subpatch) 0;
#X array cam4 32 float 6 black black;
#X coords 0 1000 32 0 200 100 1;
#X restore 233 556 graph;
#X obj 23 407 hsl 195 15 0 32 0 0 empty empty empty -2 -8 0 10 -262144
-1 -1 18794 1;
#N canvas 0 0 450 300 (subpatch) 0;
#X array cam2 32 float 6 black black;
#X coords 0 1000 32 0 200 100 1;
#X restore 233 436 graph;
#N canvas 0 0 450 300 (subpatch) 0;
#X array cam1 32 float 6 black black;
#X coords 0 1000 32 0 200 100 1;
#X restore 23 436 graph;
#X obj 332 349 % 32;
#X obj 419 299 bng 15 250 50 0 empty empty empty 17 7 0 10 -262144
-1 -1;
#X text 439 299 Clear graphs;
#X obj 419 319 uzi 32, f 11;
#X msg 419 341 0;
#X obj 482 341 - 1;
#X msg 450 341 -1;
#X floatatom 533 71 5 0 0 0 - - -, f 5;
#X floatatom 631 71 5 0 0 0 - - -, f 5;
#X floatatom 729 71 5 0 0 0 - - -, f 5;
#X text 570 71 PIN 8 \, 9;
#X text 668 71 PIN 2 \, 3;
#X text 766 71 PIN 4 \, 5;
#X obj 533 25 util/arduino-in;
#X obj 533 48 unpack f f f, f 33;
#X obj 23 381 tabwrite cam1;
#X obj 117 381 tabwrite cam2;
#X obj 211 381 tabwrite cam3;
#X obj 305 381 tabwrite cam4;
#X obj 533 381 tabwrite sens1;
#X obj 631 381 tabwrite sens2;
#X obj 729 381 tabwrite sens3;
#X obj 827 381 tabwrite sens4;
#N canvas 0 0 450 300 (subpatch) 0;
#X array sens1 32 float 6 black black;
#X coords 0 1000 32 0 200 100 1;
#X restore 467 436 graph;
#N canvas 0 0 450 300 (subpatch) 0;
#X array sens2 32 float 6 black black;
#X coords 0 1000 32 0 200 100 1;
#X restore 677 436 graph;
#N canvas 0 0 450 300 (subpatch) 0;
#X array sens3 32 float 6 black black;
#X coords 0 1000 32 0 200 100 1;
#X restore 467 556 graph;
#N canvas 0 0 450 300 (subpatch) 0;
#X array sens4 32 float 6 black black;
#X coords 0 1000 32 0 200 100 1;
#X restore 677 556 graph;
#X obj 756 177 f 0;
#X obj 793 197 + 1;
#X obj 729 147 t f b;
#X obj 756 199 % 32;
#X obj 23 48 unpack s f f f f f f f f, f 77;
#X obj 399 90 +;
#X obj 426 90 +;
#X obj 399 112 +;
#X floatatom 399 134 5 0 0 0 - - -, f 5;
#X text 436 134 Difference;
#X obj 442 436 vsl 15 215 0 7000 0 0 empty empty empty 0 -9 0 10 -262144
-1 -1 20857 1;
#X obj 986 129 fase1;
#X obj 1014 531 dac~ 1 2 3 4;
#X obj 1011 469 *~;
#X obj 1128 375 hsl 128 15 0.01 1 1 0 empty empty empty -2 -8 0 10
-262144 -1 -1 0 1;
#X obj 1040 469 *~;
#X obj 1069 469 *~;
#X obj 1098 469 *~;
#X obj 1128 395 sig~;
#X obj 1128 417 lop~ 10;
#X obj 35 179 s cam1;
#X obj 129 197 s cam2;
#X obj 226 192 s cam3;
#X obj 317 195 s cam4;
#X obj 439 223 s diff;
#X obj 35 149 line;
#X obj 137 156 line;
#X obj 229 155 line;
#X obj 317 146 line;
#X obj 442 191 line;
#X msg 442 161 \$1 1000;
#X msg 35 119 \$1 500;
#X msg 137 126 \$1 500;
#X msg 229 125 \$1 500;
#X msg 317 116 \$1 500;
#X connect 0 0 44 0;
#X connect 1 0 28 0;
#X connect 1 0 71 0;
#X connect 2 0 29 0;
#X connect 2 0 72 0;
#X connect 3 0 30 0;
#X connect 3 0 73 0;
#X connect 4 0 7 0;
#X connect 4 0 74 0;
#X connect 5 0 6 0;
#X connect 5 0 13 0;
#X connect 6 0 5 1;
#X connect 7 0 31 0;
#X connect 7 1 5 0;
#X connect 13 0 10 0;
#X connect 13 0 28 1;
#X connect 13 0 29 1;
#X connect 13 0 30 1;
#X connect 13 0 31 1;
#X connect 14 0 16 0;
#X connect 16 0 17 0;
#X connect 16 1 19 0;
#X connect 16 2 18 0;
#X connect 17 0 28 0;
#X connect 17 0 29 0;
#X connect 17 0 30 0;
#X connect 17 0 31 0;
#X connect 17 0 32 0;
#X connect 17 0 33 0;
#X connect 17 0 34 0;
#X connect 17 0 35 0;
#X connect 18 0 28 1;
#X connect 18 0 29 1;
#X connect 18 0 30 1;
#X connect 18 0 31 1;
#X connect 18 0 32 1;
#X connect 18 0 33 1;
#X connect 18 0 34 1;
#X connect 18 0 35 1;
#X connect 19 0 5 0;
#X connect 20 0 32 0;
#X connect 21 0 33 0;
#X connect 22 0 42 0;
#X connect 26 0 27 0;
#X connect 27 0 20 0;
#X connect 27 1 21 0;
#X connect 27 2 22 0;
#X connect 40 0 41 0;
#X connect 40 0 43 0;
#X connect 41 0 40 1;
#X connect 42 0 34 0;
#X connect 42 1 40 0;
#X connect 43 0 35 1;
#X connect 43 0 34 1;
#X connect 43 0 33 1;
#X connect 43 0 32 1;
#X connect 44 1 1 0;
#X connect 44 2 45 0;
#X connect 44 3 2 0;
#X connect 44 4 45 1;
#X connect 44 5 3 0;
#X connect 44 6 46 0;
#X connect 44 7 4 0;
#X connect 44 8 46 1;
#X connect 45 0 47 0;
#X connect 46 0 47 1;
#X connect 47 0 48 0;
#X connect 48 0 50 0;
#X connect 48 0 70 0;
#X connect 51 0 53 0;
#X connect 51 1 55 0;
#X connect 51 2 56 0;
#X connect 51 3 57 0;
#X connect 53 0 52 0;
#X connect 54 0 58 0;
#X connect 55 0 52 1;
#X connect 56 0 52 2;
#X connect 57 0 52 3;
#X connect 58 0 59 0;
#X connect 59 0 57 1;
#X connect 59 0 56 1;
#X connect 59 0 55 1;
#X connect 59 0 53 1;
#X connect 65 0 60 0;
#X connect 66 0 61 0;
#X connect 67 0 62 0;
#X connect 68 0 63 0;
#X connect 69 0 64 0;
#X connect 70 0 69 0;
#X connect 71 0 65 0;
#X connect 72 0 66 0;
#X connect 73 0 67 0;
#X connect 74 0 68 0;
