#N canvas 62 0 1826 1010 10;
#X obj 102 503 dac~ 1 2 3 4;
#X obj 98 470 *~;
#X obj 123 470 *~;
#X obj 148 470 *~;
#X obj 173 470 *~;
#X obj 27 196 osc~;
#X obj 30 98 mtof;
#X msg 31 27 60 64 67 71;
#X obj 42 56 unpack f f f f;
#X obj 30 120 sig~;
#X obj 83 195 osc~;
#X obj 86 97 mtof;
#X obj 86 119 sig~;
#X obj 136 191 osc~;
#X obj 139 93 mtof;
#X obj 139 115 sig~;
#X obj 188 192 osc~;
#X obj 191 94 mtof;
#X obj 191 116 sig~;
#X msg 135 20 62 65 69 74;
#X obj 30 154 lop~ 2;
#X obj 86 153 lop~ 2;
#X obj 139 149 lop~ 2;
#X obj 191 150 lop~ 2;
#X floatatom 244 119 5 0 0 0 - - -, f 5;
#X obj 220 342 hsl 128 15 0.01 1 1 0 empty empty empty -2 -8 0 10 -262144
-1 -1 0 1;
#X obj 218 406 sig~;
#X obj 218 437 lop~ 10;
#X obj 218 375 - 0.01;
#X obj 625 518 dac~;
#X obj 645 482 fdn~;
#X msg 689 439 exponential 32 10 10000;
#X floatatom 501 225 5 0 0 0 - - -, f 5;
#X obj 486 56 random 4;
#X obj 496 138 sel 0 1 2 3;
#X obj 483 6 tgl 15 0 empty empty empty 17 7 0 10 -262144 -1 -1 1 1
;
#X obj 507 255 mtof;
#X obj 502 360 *~ 0.5;
#X msg 496 163 50;
#X msg 523 163 54;
#X msg 550 163 57;
#X msg 577 163 61;
#X obj 420 456 lop~ 3000;
#X obj 487 32 metro 1500;
#X obj 689 404 loadbang;
#X msg 836 439 10;
#X msg 863 439 3;
#X obj 484 81 change;
#X obj 420 432 lofidelay~ 600 0.6;
#X obj 624 435 *~ 0.1;
#X obj 507 197 + 7;
#X obj 423 482 *~ 0;
#X obj 507 325 synths/sine-pluck 2000;
#X obj 637 251 * 0.5;
#X obj 636 273 synths/sine-pluck 500;
#X obj 639 298 *~ 200;
#X connect 1 0 0 0;
#X connect 2 0 0 1;
#X connect 3 0 0 2;
#X connect 4 0 0 3;
#X connect 5 0 1 0;
#X connect 6 0 9 0;
#X connect 7 0 8 0;
#X connect 8 0 6 0;
#X connect 8 1 11 0;
#X connect 8 2 14 0;
#X connect 8 3 17 0;
#X connect 9 0 20 0;
#X connect 10 0 2 0;
#X connect 11 0 12 0;
#X connect 12 0 21 0;
#X connect 13 0 3 0;
#X connect 14 0 15 0;
#X connect 15 0 22 0;
#X connect 16 0 4 0;
#X connect 17 0 18 0;
#X connect 18 0 23 0;
#X connect 19 0 8 0;
#X connect 20 0 5 0;
#X connect 21 0 10 0;
#X connect 22 0 13 0;
#X connect 23 0 16 0;
#X connect 24 0 23 1;
#X connect 24 0 22 1;
#X connect 24 0 21 1;
#X connect 24 0 20 1;
#X connect 25 0 28 0;
#X connect 26 0 27 0;
#X connect 27 0 4 1;
#X connect 27 0 3 1;
#X connect 27 0 2 1;
#X connect 27 0 1 1;
#X connect 28 0 26 0;
#X connect 30 0 29 0;
#X connect 30 1 29 1;
#X connect 31 0 30 0;
#X connect 32 0 36 0;
#X connect 33 0 47 0;
#X connect 34 0 38 0;
#X connect 34 1 39 0;
#X connect 34 2 40 0;
#X connect 34 3 41 0;
#X connect 35 0 43 0;
#X connect 36 0 52 0;
#X connect 36 0 53 0;
#X connect 37 0 29 0;
#X connect 37 0 29 1;
#X connect 37 0 48 0;
#X connect 37 0 49 0;
#X connect 38 0 50 0;
#X connect 39 0 50 0;
#X connect 40 0 50 0;
#X connect 41 0 50 0;
#X connect 42 0 51 0;
#X connect 43 0 33 0;
#X connect 44 0 31 0;
#X connect 44 0 45 0;
#X connect 44 0 46 0;
#X connect 45 0 30 1;
#X connect 46 0 30 2;
#X connect 47 0 34 0;
#X connect 48 0 42 0;
#X connect 49 0 30 0;
#X connect 50 0 32 0;
#X connect 51 0 29 0;
#X connect 51 0 29 1;
#X connect 52 0 37 0;
#X connect 53 0 54 0;
#X connect 54 0 55 0;
#X connect 55 0 52 1;
