#N canvas 62 0 1826 1010 10;
#X obj 23 95 util/osc-in;
#X floatatom 23 160 9 0 0 0 - - -, f 9;
#X floatatom 117 160 9 0 0 0 - - -, f 9;
#X floatatom 211 160 9 0 0 0 - - -, f 9;
#X floatatom 305 160 9 0 0 0 - - -, f 9;
#X obj 332 397 f 0;
#X obj 369 417 + 1;
#X obj 305 367 t f b;
#N canvas 0 0 450 300 (subpatch) 0;
#X array cam3 32 float 6 black black;
#X coords 0 1000 32 0 200 100 1;
#X restore 23 656 graph;
#N canvas 0 0 450 300 (subpatch) 0;
#X array cam4 32 float 6 black black;
#X coords 0 1000 32 0 200 100 1;
#X restore 233 656 graph;
#X obj 23 477 hsl 195 15 0 32 0 0 empty empty empty -2 -8 0 10 -262144
-1 -1 1819 1;
#N canvas 0 0 450 300 (subpatch) 0;
#X array cam2 32 float 6 black black;
#X coords 0 1000 32 0 200 100 1;
#X restore 233 536 graph;
#N canvas 0 0 450 300 (subpatch) 0;
#X array cam1 32 float 6 black black;
#X coords 0 1000 32 0 200 100 1;
#X restore 23 536 graph;
#X obj 332 419 % 32;
#X obj 419 369 bng 15 250 50 0 empty empty empty 17 7 0 10 -262144
-1 -1;
#X text 439 369 Clear graphs;
#X obj 419 389 uzi 32, f 11;
#X msg 419 411 0;
#X obj 482 411 - 1;
#X msg 450 411 -1;
#X floatatom 533 201 5 0 0 0 - - -, f 5;
#X floatatom 632 201 5 0 0 0 - - -, f 5;
#X floatatom 830 201 5 0 0 0 - - -, f 5;
#X obj 533 95 util/arduino-in;
#X obj 23 451 tabwrite cam1;
#X obj 117 451 tabwrite cam2;
#X obj 211 451 tabwrite cam3;
#X obj 305 451 tabwrite cam4;
#X obj 533 451 tabwrite sens1;
#X obj 631 451 tabwrite sens2;
#X obj 731 451 tabwrite sens3;
#X obj 830 451 tabwrite sens4;
#N canvas 0 0 450 300 (subpatch) 0;
#X array sens1 32 float 6 black black;
#X coords 0 500 32 0 200 100 1;
#X restore 447 536 graph;
#N canvas 0 0 450 300 (subpatch) 0;
#X array sens2 32 float 6 black black;
#X coords 0 500 32 0 200 100 1;
#X restore 657 536 graph;
#N canvas 0 0 450 300 (subpatch) 0;
#X array sens3 32 float 6 black black;
#X coords 0 500 32 0 200 100 1;
#X restore 447 656 graph;
#N canvas 0 0 450 300 (subpatch) 0;
#X array sens4 32 float 6 black black;
#X coords 0 500 32 0 200 100 1;
#X restore 657 656 graph;
#X obj 917 397 f 0;
#X obj 954 417 + 1;
#X obj 830 367 t f b, f 15;
#X obj 917 419 % 32;
#X obj 23 118 unpack s f f f f f f f f, f 77;
#X obj 429 160 +;
#X obj 456 160 +;
#X obj 429 182 +;
#X floatatom 429 204 5 0 0 0 - - -, f 5;
#X text 466 204 Difference;
#X obj 870 536 vsl 15 215 0 3000 0 0 empty empty empty 0 -9 0 10 -262144
-1 -1 12908 1;
#X obj 1058 323 fase1;
#X obj 1046 442 *~;
#X obj 1075 442 *~;
#X obj 1104 442 *~;
#X obj 1133 442 *~;
#X obj 1133 368 sig~;
#X obj 1133 390 lop~ 10;
#X obj 35 339 s cam1;
#X obj 129 339 s cam2;
#X obj 226 339 s cam3;
#X obj 317 339 s cam4;
#X obj 469 293 s diff;
#X obj 35 219 line;
#X obj 137 226 line;
#X obj 229 225 line;
#X obj 317 216 line;
#X obj 472 261 line;
#X msg 472 231 \$1 1000;
#X msg 35 189 \$1 500;
#X msg 137 196 \$1 500;
#X msg 229 195 \$1 500;
#X msg 317 186 \$1 500;
#X obj 1303 324 fase2;
#X obj 1286 442 *~;
#X obj 1400 287 hsl 128 15 0.01 1 1 0 empty empty empty -2 -8 0 10
-262144 -1 -1 12700 1;
#X obj 1315 442 *~;
#X obj 1344 442 *~;
#X obj 1373 442 *~;
#X obj 1403 368 sig~;
#X obj 1403 390 lop~ 10;
#X obj 1400 307 - 0.01;
#X obj 1134 274 hsl 128 15 0.01 1 1 0 empty empty empty -2 -8 0 10
-262144 -1 -1 12700 1;
#X obj 1128 307 - 0.01;
#X obj 1130 334 * 2;
#X obj 1716 442 *~;
#X obj 1830 287 hsl 128 15 0.01 1 1 0 empty empty empty -2 -8 0 10
-262144 -1 -1 12700 1;
#X obj 1745 442 *~;
#X obj 1774 442 *~;
#X obj 1803 442 *~;
#X obj 1833 368 sig~;
#X obj 1833 390 lop~ 10;
#X obj 1830 307 - 0.01;
#X obj 1723 374 fase4;
#X obj 1649 326 bng 15 250 50 0 empty empty empty 17 7 0 10 -262144
-1 -1;
#X text 1667 325 start;
#X obj 1778 325 bng 15 250 50 0 empty empty empty 17 7 0 10 -262144
-1 -1;
#X text 1796 324 stop;
#X text 2098 629 rechts;
#X obj 1258 898 *~;
#X obj 1462 803 hsl 128 15 0.01 1 1 0 empty empty empty -2 -8 0 10
-262144 -1 -1 9200 1;
#X obj 1287 898 *~;
#X obj 1316 898 *~;
#X obj 1345 898 *~;
#X obj 1465 854 sig~;
#X obj 1465 876 lop~ 10;
#X obj 1462 823 - 0.01;
#X obj 1264 955 dac~ 1 2 3 4;
#X obj 1386 241 tgl 15 0 empty empty empty 17 7 0 10 -262144 -1 -1
1 1;
#X obj 1282 241 tgl 15 0 empty empty empty 17 7 0 10 -262144 -1 -1
0 1;
#X text 1408 240 saw, f 5;
#X text 1301 238 sine/glass;
#X msg 324 308 0;
#X obj 324 268 bng 28 250 50 0 empty empty empty 17 7 0 10 -262144
-1 -1;
#X text 356 284 PANIC BUTTON;
#X text 361 267 <<<;
#X floatatom 870 761 7 0 0 0 - - -, f 7;
#X obj 970 536 vsl 15 215 0 3000 0 0 empty empty empty 0 -9 0 10 -262144
-1 -1 12899 1;
#X obj 970 513 line;
#X floatatom 970 761 7 0 0 0 - - -, f 7;
#X obj 920 814 change;
#X obj 920 856 sel 0 1;
#X msg 920 908 1;
#X floatatom 990 950 5 0 0 0 - - -, f 5;
#X msg 970 908 2;
#X msg 1020 908 3;
#X msg 1070 908 4;
#X obj 970 814 change;
#X obj 970 856 sel 0 1;
#X obj 1020 814 change;
#X obj 990 970 s fase;
#X obj 1295 44 r fase;
#X obj 1295 96 == 2;
#X obj 1328 96 == 3;
#X obj 1287 184 ||;
#X msg 970 491 \$1 1000;
#X obj 1295 66 t f f f;
#X obj 1411 96 == 4;
#X obj 1830 329 * 2;
#X obj 1710 326 bng 15 250 50 0 empty empty empty 17 7 0 10 -262144
-1 -1;
#X text 1728 325 pauze;
#X obj 1020 856 sel 0 1;
#X floatatom 1255 66 5 0 0 0 - - -, f 5;
#X text 886 92 - speech afmaken tot het punt waar iedereen uit het
raam schreeuwt.................................................. -
sensors werkend en mappen naar dingen.................... - sine/glass
iets directer mappen (?)...................... - automatisch calibratie
systeem (?);
#X obj 1411 118 sel 1;
#X obj 1400 329 * 0.8;
#X obj 970 792 > 800;
#X obj 533 118 unpack f f f f, f 50;
#X floatatom 731 201 5 0 0 0 - - -, f 5;
#X obj 547 276 line;
#X obj 647 276 line;
#X obj 747 276 line;
#X obj 840 276 line;
#X obj 533 145 sel 0;
#X obj 632 145 sel 0;
#X obj 731 145 sel 0;
#X obj 830 145 sel 0;
#X obj 547 298 vsl 15 128 0 500 0 0 empty empty empty 0 -9 0 10 -262144
-1 -1 0 1;
#X obj 647 298 vsl 15 128 0 500 0 0 empty empty empty 0 -9 0 10 -262144
-1 -1 0 1;
#X obj 747 298 vsl 15 128 0 500 0 0 empty empty empty 0 -9 0 10 -262144
-1 -1 0 1;
#X obj 840 298 vsl 15 128 0 500 0 0 empty empty empty 0 -9 0 10 -262144
-1 -1 0 1;
#X msg 840 246 \$1 2000;
#X msg 747 246 \$1 2000;
#X msg 647 246 \$1 2000;
#X msg 547 246 \$1 2000;
#X obj 830 167 bng 15 250 50 0 empty empty empty 17 7 0 10 -262144
-1 -1;
#X obj 731 167 bng 15 250 50 0 empty empty empty 17 7 0 10 -262144
-1 -1;
#X obj 632 167 bng 15 250 50 0 empty empty empty 17 7 0 10 -262144
-1 -1;
#X obj 533 167 bng 15 250 50 0 empty empty empty 17 7 0 10 -262144
-1 -1;
#X obj 925 209 print;
#X obj 1132 218 loadbang;
#X msg 1132 240 1;
#X obj 824 851 f;
#X obj 851 851 + 1;
#X floatatom 824 873 5 0 0 0 - - -, f 5;
#X obj 825 784 sel 0 1;
#X msg 824 829 0;
#X obj 824 938 bng 15 250 50 0 empty empty empty 17 7 0 10 -262144
-1 -1;
#X obj 824 958 s calibrate;
#X obj 970 467 sel 3000;
#X obj 824 894 % 2000;
#X obj 824 916 sel 2000;
#X obj 920 792 > 300;
#X obj 1877 443 tgl 15 0 empty empty empty 17 7 0 10 -262144 -1 -1
1 1;
#X text 1907 441 ik mag door gaan :);
#X obj 1020 792 > 1400;
#X obj 1287 206 &&, f 5;
#X obj 1529 42 r speech;
#X obj 1530 124 == 0;
#X floatatom 1578 78 5 0 0 0 - - -, f 5;
#X floatatom 1530 146 5 0 0 0 - - -, f 5;
#X obj 1570 279 gate;
#X obj 1370 98 >= 3;
#X connect 0 0 40 0;
#X connect 1 0 24 0;
#X connect 1 0 65 0;
#X connect 1 0 26 0;
#X connect 2 0 25 0;
#X connect 2 0 66 0;
#X connect 2 0 7 0;
#X connect 3 0 26 0;
#X connect 3 0 67 0;
#X connect 4 0 7 0;
#X connect 4 0 68 0;
#X connect 5 0 6 0;
#X connect 5 0 13 0;
#X connect 6 0 5 1;
#X connect 7 0 27 0;
#X connect 7 1 5 0;
#X connect 13 0 10 0;
#X connect 13 0 24 1;
#X connect 13 0 25 1;
#X connect 13 0 26 1;
#X connect 13 0 27 1;
#X connect 14 0 16 0;
#X connect 16 0 17 0;
#X connect 16 1 19 0;
#X connect 16 2 18 0;
#X connect 17 0 24 0;
#X connect 17 0 25 0;
#X connect 17 0 26 0;
#X connect 17 0 27 0;
#X connect 17 0 28 0;
#X connect 17 0 29 0;
#X connect 17 0 30 0;
#X connect 17 0 31 0;
#X connect 18 0 24 1;
#X connect 18 0 25 1;
#X connect 18 0 26 1;
#X connect 18 0 27 1;
#X connect 18 0 28 1;
#X connect 18 0 29 1;
#X connect 18 0 30 1;
#X connect 18 0 31 1;
#X connect 19 0 5 0;
#X connect 20 0 28 0;
#X connect 20 0 160 0;
#X connect 21 0 29 0;
#X connect 21 0 159 0;
#X connect 22 0 38 0;
#X connect 22 0 157 0;
#X connect 23 0 143 0;
#X connect 23 0 165 0;
#X connect 36 0 37 0;
#X connect 36 0 39 0;
#X connect 37 0 36 1;
#X connect 38 0 31 0;
#X connect 38 1 36 0;
#X connect 39 0 31 1;
#X connect 39 0 30 1;
#X connect 39 0 29 1;
#X connect 39 0 28 1;
#X connect 40 1 1 0;
#X connect 40 2 41 0;
#X connect 40 3 2 0;
#X connect 40 4 41 1;
#X connect 40 5 3 0;
#X connect 40 6 42 0;
#X connect 40 7 4 0;
#X connect 40 8 42 1;
#X connect 41 0 43 0;
#X connect 42 0 43 1;
#X connect 43 0 44 0;
#X connect 44 0 46 0;
#X connect 44 0 64 0;
#X connect 46 0 112 0;
#X connect 47 0 48 0;
#X connect 47 1 49 0;
#X connect 47 2 50 0;
#X connect 47 3 51 0;
#X connect 48 0 95 0;
#X connect 49 0 97 0;
#X connect 50 0 98 0;
#X connect 51 0 99 0;
#X connect 52 0 53 0;
#X connect 53 0 51 1;
#X connect 53 0 50 1;
#X connect 53 0 49 1;
#X connect 53 0 48 1;
#X connect 59 0 54 0;
#X connect 59 0 56 0;
#X connect 60 0 55 0;
#X connect 60 0 57 0;
#X connect 61 0 56 0;
#X connect 62 0 57 0;
#X connect 63 0 58 0;
#X connect 64 0 63 0;
#X connect 65 0 59 0;
#X connect 66 0 60 0;
#X connect 67 0 61 0;
#X connect 68 0 62 0;
#X connect 69 0 70 0;
#X connect 69 1 72 0;
#X connect 69 2 73 0;
#X connect 69 3 74 0;
#X connect 70 0 95 0;
#X connect 71 0 77 0;
#X connect 72 0 97 0;
#X connect 73 0 98 0;
#X connect 74 0 99 0;
#X connect 75 0 76 0;
#X connect 76 0 74 1;
#X connect 76 0 73 1;
#X connect 76 0 72 1;
#X connect 76 0 70 1;
#X connect 77 0 141 0;
#X connect 78 0 79 0;
#X connect 79 0 80 0;
#X connect 80 0 52 0;
#X connect 81 0 95 0;
#X connect 82 0 88 0;
#X connect 83 0 97 0;
#X connect 84 0 98 0;
#X connect 85 0 99 0;
#X connect 86 0 87 0;
#X connect 87 0 85 1;
#X connect 87 0 84 1;
#X connect 87 0 83 1;
#X connect 87 0 81 1;
#X connect 88 0 134 0;
#X connect 89 0 81 0;
#X connect 89 1 83 0;
#X connect 89 2 84 0;
#X connect 89 3 85 0;
#X connect 89 4 179 0;
#X connect 90 0 89 0;
#X connect 92 0 89 1;
#X connect 95 0 103 0;
#X connect 96 0 102 0;
#X connect 97 0 103 1;
#X connect 98 0 103 2;
#X connect 99 0 103 3;
#X connect 100 0 101 0;
#X connect 101 0 99 1;
#X connect 101 0 98 1;
#X connect 101 0 97 1;
#X connect 101 0 95 1;
#X connect 102 0 100 0;
#X connect 104 0 69 0;
#X connect 105 0 69 1;
#X connect 108 0 57 0;
#X connect 108 0 56 0;
#X connect 108 0 55 0;
#X connect 108 0 54 0;
#X connect 108 0 58 0;
#X connect 109 0 108 0;
#X connect 112 0 175 0;
#X connect 113 0 115 0;
#X connect 114 0 113 0;
#X connect 115 0 142 0;
#X connect 115 0 178 0;
#X connect 115 0 181 0;
#X connect 116 0 117 0;
#X connect 117 0 118 0;
#X connect 117 1 120 0;
#X connect 118 0 119 0;
#X connect 119 0 126 0;
#X connect 120 0 119 0;
#X connect 121 0 119 0;
#X connect 122 0 119 0;
#X connect 123 0 124 0;
#X connect 124 0 120 0;
#X connect 124 1 121 0;
#X connect 125 0 137 0;
#X connect 127 0 132 0;
#X connect 127 0 138 0;
#X connect 128 0 130 0;
#X connect 129 0 130 1;
#X connect 130 0 182 0;
#X connect 131 0 114 0;
#X connect 132 0 133 0;
#X connect 132 1 128 0;
#X connect 132 2 129 0;
#X connect 132 2 188 0;
#X connect 133 0 140 0;
#X connect 134 0 86 0;
#X connect 135 0 89 2;
#X connect 137 0 121 0;
#X connect 137 1 122 0;
#X connect 140 0 187 1;
#X connect 141 0 75 0;
#X connect 142 0 123 0;
#X connect 143 0 149 0;
#X connect 143 1 150 0;
#X connect 143 2 151 0;
#X connect 143 3 152 0;
#X connect 144 0 30 0;
#X connect 144 0 158 0;
#X connect 145 0 153 0;
#X connect 146 0 154 0;
#X connect 147 0 155 0;
#X connect 148 0 156 0;
#X connect 149 0 164 0;
#X connect 149 1 20 0;
#X connect 150 0 163 0;
#X connect 150 1 21 0;
#X connect 151 0 162 0;
#X connect 151 1 144 0;
#X connect 152 0 161 0;
#X connect 152 1 22 0;
#X connect 157 0 148 0;
#X connect 158 0 147 0;
#X connect 159 0 146 0;
#X connect 160 0 145 0;
#X connect 161 0 22 0;
#X connect 162 0 144 0;
#X connect 163 0 21 0;
#X connect 164 0 20 0;
#X connect 166 0 167 0;
#X connect 167 0 78 0;
#X connect 167 0 71 0;
#X connect 167 0 82 0;
#X connect 168 0 169 0;
#X connect 168 0 170 0;
#X connect 169 0 168 1;
#X connect 170 0 176 0;
#X connect 171 0 168 0;
#X connect 171 1 172 0;
#X connect 172 0 168 0;
#X connect 173 0 174 0;
#X connect 175 1 131 0;
#X connect 176 0 177 0;
#X connect 177 0 173 0;
#X connect 178 0 116 0;
#X connect 178 0 171 0;
#X connect 181 0 125 0;
#X connect 182 0 105 0;
#X connect 183 0 184 0;
#X connect 183 0 185 0;
#X connect 184 0 182 1;
#X connect 184 0 186 0;
#X connect 186 0 187 0;
#X connect 187 0 90 0;
#X connect 188 0 104 0;
