#N canvas 62 0 1826 1010 10;
#X obj 102 503 dac~ 1 2 3 4;
#X obj 98 470 *~;
#X obj 123 470 *~;
#X obj 148 470 *~;
#X obj 173 470 *~;
#X obj 27 196 osc~;
#X obj 30 98 mtof;
#X msg 31 27 60 64 67 71;
#X obj 42 56 unpack f f f f;
#X obj 30 120 sig~;
#X obj 83 195 osc~;
#X obj 86 97 mtof;
#X obj 86 119 sig~;
#X obj 136 191 osc~;
#X obj 139 93 mtof;
#X obj 139 115 sig~;
#X obj 188 192 osc~;
#X obj 191 94 mtof;
#X obj 191 116 sig~;
#X msg 135 20 62 65 69 74;
#X obj 30 154 lop~ 2;
#X obj 86 153 lop~ 2;
#X obj 139 149 lop~ 2;
#X obj 191 150 lop~ 2;
#X floatatom 244 119 5 0 0 0 - - -, f 5;
#X obj 218 346 hsl 128 15 0.01 1 1 0 empty empty empty -2 -8 0 10 -262144
-1 -1 0 1;
#X obj 218 406 sig~;
#X obj 218 437 lop~ 10;
#X obj 218 375 - 0.01;
#X obj 694 654 dac~;
#X obj 714 618 fdn~;
#X obj 607 344 -~ 0.5;
#X obj 607 322 phasor~;
#X obj 657 344 -~ 0.5;
#X obj 657 322 phasor~;
#X obj 708 344 -~ 0.5;
#X obj 708 322 phasor~;
#X msg 758 575 exponential 32 10 10000;
#X floatatom 611 227 5 0 0 0 - - -, f 5;
#X obj 596 58 random 4;
#X obj 606 140 sel 0 1 2 3;
#X obj 593 8 tgl 15 0 empty empty empty 17 7 0 10 -262144 -1 -1 1 1
;
#X obj 713 572 *~ 0.05;
#X obj 702 244 mtof;
#X obj 569 466 *~, f 2;
#X obj 571 496 *~ 0.5;
#X msg 606 165 50;
#X msg 633 165 54;
#X msg 660 165 57;
#X msg 687 165 61;
#X obj 489 592 lop~ 3000;
#X obj 597 34 metro 1500;
#X obj 491 618 *~ 0.1;
#X obj 758 540 loadbang;
#X msg 905 575 10;
#X msg 932 575 3;
#X obj 575 120 t b f;
#X obj 594 83 change;
#X obj 648 469 hip~ 5000;
#X obj 494 198 ead~ 20 3000;
#X obj 649 442 *~ 0.1;
#X obj 767 302 +~;
#X obj 647 419 lop~ 250;
#X obj 763 276 * 0.5;
#X obj 766 322 phasor~;
#X obj 766 344 >~ 0.5;
#X obj 766 366 -~ 0.5;
#X text 814 325 square sub;
#X obj 617 199 + 0;
#X obj 765 387 *~ 0.25;
#X obj 706 294 * 1.005;
#X obj 602 292 * 0.995;
#X obj 489 568 lofidelay~ 600 0.7;
#X connect 1 0 0 0;
#X connect 2 0 0 1;
#X connect 3 0 0 2;
#X connect 4 0 0 3;
#X connect 5 0 1 0;
#X connect 6 0 9 0;
#X connect 7 0 8 0;
#X connect 8 0 6 0;
#X connect 8 1 11 0;
#X connect 8 2 14 0;
#X connect 8 3 17 0;
#X connect 9 0 20 0;
#X connect 10 0 2 0;
#X connect 11 0 12 0;
#X connect 12 0 21 0;
#X connect 13 0 3 0;
#X connect 14 0 15 0;
#X connect 15 0 22 0;
#X connect 16 0 4 0;
#X connect 17 0 18 0;
#X connect 18 0 23 0;
#X connect 19 0 8 0;
#X connect 20 0 5 0;
#X connect 21 0 10 0;
#X connect 22 0 13 0;
#X connect 23 0 16 0;
#X connect 24 0 23 1;
#X connect 24 0 22 1;
#X connect 24 0 21 1;
#X connect 24 0 20 1;
#X connect 25 0 28 0;
#X connect 26 0 27 0;
#X connect 27 0 4 1;
#X connect 27 0 3 1;
#X connect 27 0 2 1;
#X connect 27 0 1 1;
#X connect 28 0 26 0;
#X connect 30 0 29 0;
#X connect 30 1 29 1;
#X connect 31 0 62 0;
#X connect 32 0 31 0;
#X connect 34 0 33 0;
#X connect 35 0 62 0;
#X connect 36 0 35 0;
#X connect 37 0 30 0;
#X connect 38 0 43 0;
#X connect 39 0 57 0;
#X connect 40 0 46 0;
#X connect 40 1 47 0;
#X connect 40 2 48 0;
#X connect 40 3 49 0;
#X connect 41 0 51 0;
#X connect 42 0 30 0;
#X connect 43 0 34 0;
#X connect 43 0 63 0;
#X connect 43 0 70 0;
#X connect 43 0 71 0;
#X connect 44 0 45 0;
#X connect 45 0 29 0;
#X connect 45 0 29 1;
#X connect 45 0 42 0;
#X connect 45 0 72 0;
#X connect 46 0 68 0;
#X connect 47 0 68 0;
#X connect 48 0 68 0;
#X connect 49 0 68 0;
#X connect 50 0 52 0;
#X connect 51 0 39 0;
#X connect 52 0 29 0;
#X connect 52 0 29 1;
#X connect 53 0 37 0;
#X connect 53 0 54 0;
#X connect 53 0 55 0;
#X connect 54 0 30 1;
#X connect 55 0 30 2;
#X connect 56 0 59 0;
#X connect 56 1 40 0;
#X connect 57 0 56 0;
#X connect 58 0 45 0;
#X connect 59 0 44 0;
#X connect 60 0 58 0;
#X connect 61 0 64 0;
#X connect 62 0 44 1;
#X connect 62 0 60 0;
#X connect 63 0 61 0;
#X connect 64 0 65 0;
#X connect 65 0 66 0;
#X connect 66 0 69 0;
#X connect 68 0 38 0;
#X connect 69 0 62 0;
#X connect 70 0 36 0;
#X connect 71 0 32 0;
#X connect 72 0 50 0;
