#N canvas 55 0 911 1017 10;
#X obj 23 25 cnv 15 537 484 empty empty Webcam\ data 435 11 0 14 -233017
-66577 0;
#X obj 741 536 cnv 15 500 135 empty empty fx 470 12 0 14 -233017 -66577
0;
#X obj 745 357 cnv 15 283 149 empty empty fm\ pluck 207 8 0 14 -233017
-66577 0;
#X obj 755 12 cnv 15 494 321 empty empty midi 454 11 0 14 -233017 -66577
0;
#X obj 967 633 fdn~;
#X msg 1060 543 exponential 32 10 10000;
#X floatatom 801 312 5 0 0 0 - - -, f 5;
#X obj 771 71 random 4;
#X obj 765 174 sel 0 1 2 3;
#X obj 768 21 tgl 15 0 empty empty empty 17 7 0 10 -262144 -1 -1 0
1;
#X obj 758 376 mtof;
#X obj 758 480 *~ 0.5;
#X obj 1040 520 loadbang;
#X obj 769 96 change;
#X obj 943 213 f;
#X obj 958 61 t b b;
#X obj 801 287 +;
#X msg 979 155 4;
#X msg 1007 155 7;
#X obj 789 119 t f b;
#X floatatom 1019 188 5 0 0 0 - - -, f 5;
#X msg 1074 154 0;
#X floatatom 902 291 5 0 0 0 - - -, f 5;
#X obj 943 237 +, f 5;
#X obj 939 269 % 12;
#X msg 1043 155 -5;
#X msg 765 199 60;
#X msg 792 199 64;
#X msg 819 199 64;
#X msg 846 199 71;
#X obj 985 90 random 32;
#X text 1050 91 4/32th chance to modulate;
#X text 939 293 transposition;
#X text 935 422 fm modulator;
#X obj 1015 634 fdn~;
#X text 1055 633 reverb;
#X obj 985 117 sel 0 1 2, f 19;
#X obj 772 47 metro 700;
#X obj 798 248 + 4;
#X obj 995 818 dac~ 1 2 3 4;
#X obj 991 785 *~;
#X obj 1016 785 *~;
#X obj 1041 785 *~;
#X obj 1066 785 *~;
#X obj 1113 687 hsl 128 15 0.01 1 1 0 empty empty empty -2 -8 0 10
-262144 -1 -1 0 1;
#X obj 1113 729 sig~;
#X obj 1113 751 lop~ 10;
#X obj 1113 707 - 0.01;
#X obj 884 372 * 0.5;
#X msg 1061 584 10;
#X obj 884 420 *~ 500;
#X msg 1062 565 15;
#X obj 884 396 synths/sine-pluck 200 5000;
#X obj 756 448 synths/sine-pluck 10 2000;
#X obj 33 35 util/osc-in;
#X floatatom 33 100 9 0 0 0 - - -, f 9;
#X floatatom 157 100 9 0 0 0 - - -, f 9;
#X floatatom 287 100 9 0 0 0 - - -, f 9;
#X floatatom 411 100 9 0 0 0 - - -, f 9;
#X obj 964 559 *~ 0.1;
#X obj 60 127 f 0;
#X obj 87 157 + 1;
#X obj 33 97 t f b;
#X obj 33 221 tabwrite upperLeft;
#X obj 157 221 tabwrite upperRight;
#N canvas 0 0 450 300 (subpatch) 0;
#X array lowerLeft 32 float 6 black black;
#X coords 0 1000 32 0 200 100 1;
#X restore 60 396 graph;
#N canvas 0 0 450 300 (subpatch) 0;
#X array lowerRight 32 float 6 black black;
#X coords 0 1000 32 0 200 100 1;
#X restore 270 396 graph;
#X obj 287 221 tabwrite lowerLeft;
#X obj 411 221 tabwrite lowerRight;
#X obj 33 58 unpack s f f f f;
#X obj 60 367 hsl 195 15 0 32 0 0 empty empty empty -2 -8 0 10 -262144
-1 -1 6062 1;
#N canvas 0 0 450 300 (subpatch) 0;
#X array upperRight 32 float 6 black black;
#X coords 0 1000 32 0 200 100 1;
#X restore 270 256 graph;
#N canvas 0 0 450 300 (subpatch) 0;
#X array upperLeft 32 float 6 black black;
#X coords 0 1000 32 0 200 100 1;
#X restore 60 256 graph;
#X obj 60 179 % 32;
#X obj 459 139 bng 15 250 50 0 empty empty empty 17 7 0 10 -262144
-1 -1;
#X text 479 139 Clear graphs;
#X obj 459 159 uzi 32, f 11;
#X msg 459 181 0;
#X obj 522 181 - 1;
#X msg 490 181 -1;
#X connect 4 0 40 0;
#X connect 4 1 41 0;
#X connect 5 0 4 0;
#X connect 5 0 34 0;
#X connect 6 0 10 0;
#X connect 7 0 13 0;
#X connect 8 0 26 0;
#X connect 8 1 27 0;
#X connect 8 2 28 0;
#X connect 8 3 29 0;
#X connect 9 0 37 0;
#X connect 10 0 48 0;
#X connect 10 0 53 0;
#X connect 11 0 59 0;
#X connect 12 0 5 0;
#X connect 12 0 51 0;
#X connect 12 0 49 0;
#X connect 13 0 19 0;
#X connect 14 0 23 0;
#X connect 15 0 14 0;
#X connect 15 1 30 0;
#X connect 16 0 6 0;
#X connect 17 0 20 0;
#X connect 18 0 20 0;
#X connect 19 0 8 0;
#X connect 19 1 15 0;
#X connect 20 0 23 1;
#X connect 21 0 20 0;
#X connect 22 0 14 1;
#X connect 22 0 16 1;
#X connect 23 0 24 0;
#X connect 24 0 22 0;
#X connect 25 0 20 0;
#X connect 26 0 38 0;
#X connect 27 0 38 0;
#X connect 28 0 38 0;
#X connect 29 0 38 0;
#X connect 30 0 36 0;
#X connect 34 0 42 0;
#X connect 34 1 43 0;
#X connect 36 0 17 0;
#X connect 36 1 18 0;
#X connect 36 2 25 0;
#X connect 36 3 21 0;
#X connect 37 0 7 0;
#X connect 38 0 16 0;
#X connect 40 0 39 0;
#X connect 41 0 39 1;
#X connect 42 0 39 2;
#X connect 43 0 39 3;
#X connect 44 0 47 0;
#X connect 45 0 46 0;
#X connect 46 0 43 1;
#X connect 46 0 42 1;
#X connect 46 0 41 1;
#X connect 46 0 40 1;
#X connect 47 0 45 0;
#X connect 48 0 52 0;
#X connect 49 0 4 2;
#X connect 49 0 34 2;
#X connect 50 0 53 1;
#X connect 51 0 4 1;
#X connect 51 0 34 1;
#X connect 52 0 50 0;
#X connect 53 0 11 0;
#X connect 54 0 69 0;
#X connect 55 0 62 0;
#X connect 56 0 64 0;
#X connect 57 0 67 0;
#X connect 58 0 68 0;
#X connect 59 0 4 0;
#X connect 59 0 34 0;
#X connect 60 0 61 0;
#X connect 60 0 73 0;
#X connect 61 0 60 1;
#X connect 62 0 63 0;
#X connect 62 1 60 0;
#X connect 69 1 55 0;
#X connect 69 2 56 0;
#X connect 69 3 57 0;
#X connect 69 4 58 0;
#X connect 73 0 63 1;
#X connect 73 0 64 1;
#X connect 73 0 67 1;
#X connect 73 0 68 1;
#X connect 73 0 70 0;
#X connect 74 0 76 0;
#X connect 76 0 77 0;
#X connect 76 1 79 0;
#X connect 76 2 78 0;
#X connect 77 0 68 0;
#X connect 77 0 67 0;
#X connect 77 0 64 0;
#X connect 77 0 63 0;
#X connect 78 0 68 1;
#X connect 78 0 67 1;
#X connect 78 0 64 1;
#X connect 78 0 63 1;
#X connect 79 0 60 0;
