#N canvas 330 22 959 833 10;
#X obj 516 277 print ERROR;
#X obj 405 244 convert.ascii2pd CR;
#N canvas 712 205 905 623 in&out 0;
#X obj 114 116 list-extend;
#X obj 191 77 sel 10;
#X msg 191 185 50 49 48 46 48 48 48 48 48 48 48 48 48 48 32 57 48 46
50 51 49 57 55 49 55 52 48 55 32 51 48 46 55 55 53 51 49 52 51 51 49
49 13;
#X obj 190 157 prepend set;
#X obj 193 236 gate;
#X msg 126 209 0;
#X msg 160 207 1;
#X obj 116 30 inlet;
#X obj 198 268 outlet;
#X obj 87 80 route 10;
#X connect 0 0 3 0;
#X connect 1 0 0 1;
#X connect 1 0 6 0;
#X connect 1 0 2 0;
#X connect 1 1 5 0;
#X connect 2 0 4 1;
#X connect 3 0 2 0;
#X connect 4 0 8 0;
#X connect 5 0 4 0;
#X connect 6 0 4 0;
#X connect 7 0 1 0;
#X connect 7 0 9 0;
#X connect 9 1 0 0;
#X restore 405 207 pd in&out;
#X floatatom 298 372 5 0 0 0 - - -, f 5;
#X floatatom 408 415 5 0 0 0 - - -, f 5;
#X floatatom 534 373 5 0 0 0 - - -, f 5;
#X msg 371 123 devices;
#X text 503 166 < change the numer 2 to the comport used by Arduino
;
#X text 434 123 < Click me to see what is connected to serial port
;
#X text 479 208 < click me to see what's in the sub patch;
#X text 538 245 < don't worry about this one!;
#X text 63 42 Arduino 2 Pd - communication protocole by recyclism;
#X text 62 79 NOTE: You need to have the file convert.ascii2pd.pd in
the same folder as this patch;
#X text 516 325 < unpack each sensor vaule (or switches connected)
;
#X text 504 178 < change the numer 9600 to the boudrate used by Arduino
;
#X obj 404 172 comport 1 9600;
#X obj 380 323 unpack 0 0 0;
#X text 233 371 PIN 8 \, 9;
#X text 345 415 PIN 2 \, 3;
#X text 469 374 PIN 4 \, 5;
#X connect 1 0 16 0;
#X connect 1 2 0 0;
#X connect 2 0 1 0;
#X connect 6 0 15 0;
#X connect 15 0 2 0;
#X connect 16 0 3 0;
#X connect 16 1 4 0;
#X connect 16 2 5 0;
