#N canvas 62 0 1826 1010 10;
#X obj 106 172 max;
#X obj 196 168 max;
#X obj 137 230 max;
#X obj 89 293 ==;
#X obj 129 293 ==;
#X obj 169 293 ==;
#X obj 209 293 ==;
#X obj 84 98 t f f;
#X obj 134 98 t f f;
#X obj 184 98 t f f;
#X obj 234 98 t f f;
#X msg 89 375 1;
#X msg 129 375 2;
#X msg 169 375 3;
#X msg 209 375 4;
#X floatatom 152 446 5 0 0 0 - - -, f 5;
#X obj 84 65 inlet;
#X obj 133 65 inlet;
#X obj 182 65 inlet;
#X obj 231 65 inlet;
#X obj 156 501 outlet;
#X floatatom 251 216 5 0 0 0 - - -, f 5;
#X floatatom 58 218 5 0 0 0 - - -, f 5;
#X obj 543 230 vsl 15 128 0 127 0 0 empty empty empty 0 -9 0 10 -262144
-1 -1 8300 1;
#X obj 563 230 vsl 15 128 0 127 0 0 empty empty empty 0 -9 0 10 -262144
-1 -1 4800 1;
#X obj 583 230 vsl 15 128 0 127 0 0 empty empty empty 0 -9 0 10 -262144
-1 -1 7400 1;
#X obj 603 230 vsl 15 128 0 127 0 0 empty empty empty 0 -9 0 10 -262144
-1 -1 6200 1;
#X obj 495 174 random 127;
#X obj 564 174 random 127;
#X obj 633 174 random 127;
#X obj 702 174 random 127;
#X obj 596 93 bng 15 250 50 0 empty empty empty 17 7 0 10 -262144 -1
-1;
#X floatatom 509 398 5 0 0 0 - - -, f 5;
#X floatatom 546 398 5 0 0 0 - - -, f 5;
#X floatatom 583 398 5 0 0 0 - - -, f 5;
#X floatatom 620 398 5 0 0 0 - - -, f 5;
#X obj 596 113 t b b b b;
#X obj 137 252 t f f f f;
#X obj 89 315 tgl 15 0 empty empty empty 17 7 0 10 -262144 -1 -1 0
1;
#X obj 129 315 tgl 15 0 empty empty empty 17 7 0 10 -262144 -1 -1 0
1;
#X obj 169 315 tgl 15 0 empty empty empty 17 7 0 10 -262144 -1 -1 0
1;
#X obj 209 315 tgl 15 0 empty empty empty 17 7 0 10 -262144 -1 -1 0
1;
#X connect 0 0 2 0;
#X connect 0 0 22 0;
#X connect 1 0 2 1;
#X connect 1 0 21 0;
#X connect 2 0 37 0;
#X connect 3 0 38 0;
#X connect 4 0 39 0;
#X connect 5 0 40 0;
#X connect 6 0 41 0;
#X connect 7 0 3 1;
#X connect 7 1 0 0;
#X connect 8 0 4 1;
#X connect 8 1 0 1;
#X connect 9 0 5 1;
#X connect 9 1 1 0;
#X connect 10 0 6 1;
#X connect 10 1 1 1;
#X connect 11 0 15 0;
#X connect 12 0 15 0;
#X connect 13 0 15 0;
#X connect 14 0 15 0;
#X connect 15 0 20 0;
#X connect 16 0 7 0;
#X connect 17 0 8 0;
#X connect 18 0 9 0;
#X connect 19 0 10 0;
#X connect 23 0 32 0;
#X connect 23 0 7 0;
#X connect 24 0 33 0;
#X connect 24 0 8 0;
#X connect 25 0 34 0;
#X connect 25 0 9 0;
#X connect 26 0 35 0;
#X connect 26 0 10 0;
#X connect 27 0 23 0;
#X connect 28 0 24 0;
#X connect 29 0 25 0;
#X connect 30 0 26 0;
#X connect 31 0 36 0;
#X connect 36 0 27 0;
#X connect 36 1 28 0;
#X connect 36 2 29 0;
#X connect 36 3 30 0;
#X connect 37 0 3 0;
#X connect 37 1 4 0;
#X connect 37 2 5 0;
#X connect 37 3 6 0;
