#N canvas 62 0 1826 1010 10;
#X obj 20 126 import mrpeach;
#X obj 124 128 udpreceive 12000;
#X obj 124 150 unpackOSC;
#X obj 124 172 outlet;
#X obj 286 16 inlet;
#X msg 568 85 connect localhost 12001;
#X obj 300 135 packOSC;
#X msg 300 104 send /calibrate;
#X obj 413 181 udpsend;
#X obj 569 23 loadbang;
#X text 322 16 bang hier voor calibratie verzoek;
#X obj 300 48 r calibrate;
#X connect 1 0 2 0;
#X connect 2 0 3 0;
#X connect 4 0 7 0;
#X connect 5 0 8 0;
#X connect 6 0 8 0;
#X connect 7 0 6 0;
#X connect 9 0 5 0;
#X connect 11 0 7 0;
