#N canvas 983 315 450 602 10;
#X obj 37 111 sel 1;
#X obj 37 89 snapshot~;
#X obj 104 69 metro 10;
#X obj 104 47 loadbang;
#X obj 30 11 inlet~;
#X obj 37 133 outlet;
#X obj 37 67 >~ \$1;
#X connect 0 0 5 0;
#X connect 1 0 0 0;
#X connect 2 0 1 0;
#X connect 3 0 2 0;
#X connect 4 0 6 0;
#X connect 6 0 1 0;
