#N canvas 54 -8 1842 1026 10;
#X obj 32 564 cnv 15 500 135 empty empty fx 470 12 0 14 -233017 -66577
0;
#X obj 36 385 cnv 15 283 149 empty empty fm\ pluck 207 8 0 14 -233017
-66577 0;
#X obj 46 40 cnv 15 494 321 empty empty midi 454 11 0 14 -233017 -66577
0;
#X obj 258 661 fdn~;
#X msg 351 571 exponential 32 10 10000;
#X floatatom 92 340 5 0 0 0 - - -, f 5;
#X obj 62 99 random 4;
#X obj 56 202 sel 0 1 2 3;
#X obj 59 49 tgl 15 0 empty empty empty 17 7 0 10 -262144 -1 -1 0 1
;
#X obj 49 404 mtof;
#X obj 49 508 *~ 0.5;
#X obj 331 548 loadbang;
#X obj 60 124 change;
#X obj 234 241 f;
#X obj 249 89 t b b;
#X obj 92 315 +;
#X msg 270 183 4;
#X msg 298 183 7;
#X obj 80 147 t f b;
#X floatatom 310 216 5 0 0 0 - - -, f 5;
#X msg 365 182 0;
#X floatatom 193 319 5 0 0 0 - - -, f 5;
#X obj 234 265 +, f 5;
#X obj 230 297 % 12;
#X msg 334 183 -5;
#X msg 56 227 60;
#X msg 83 227 64;
#X msg 110 227 64;
#X msg 137 227 71;
#X obj 276 118 random 32;
#X text 341 119 4/32th chance to modulate;
#X text 230 321 transposition;
#X text 226 450 fm modulator;
#X obj 306 662 fdn~;
#X text 346 661 reverb;
#X obj 276 145 sel 0 1 2, f 19;
#X obj 63 75 metro 700;
#X obj 89 276 + 4;
#X obj 286 846 dac~ 1 2 3 4;
#X obj 282 813 *~;
#X obj 307 813 *~;
#X obj 332 813 *~;
#X obj 357 813 *~;
#X obj 404 715 hsl 128 15 0.01 1 1 0 empty empty empty -2 -8 0 10 -262144
-1 -1 0 1;
#X obj 404 757 sig~;
#X obj 404 779 lop~ 10;
#X obj 404 735 - 0.01;
#X obj 175 400 * 0.5;
#X msg 352 612 10;
#X obj 175 448 *~ 500;
#X msg 353 593 15;
#X obj 175 424 synths/sine-pluck 200 5000;
#X obj 47 476 synths/sine-pluck 10 2000;
#X obj 255 587 *~ 0.1;
#X connect 3 0 39 0;
#X connect 3 1 40 0;
#X connect 4 0 3 0;
#X connect 4 0 33 0;
#X connect 5 0 9 0;
#X connect 6 0 12 0;
#X connect 7 0 25 0;
#X connect 7 1 26 0;
#X connect 7 2 27 0;
#X connect 7 3 28 0;
#X connect 8 0 36 0;
#X connect 9 0 47 0;
#X connect 9 0 52 0;
#X connect 10 0 53 0;
#X connect 11 0 4 0;
#X connect 11 0 50 0;
#X connect 11 0 48 0;
#X connect 12 0 18 0;
#X connect 13 0 22 0;
#X connect 14 0 13 0;
#X connect 14 1 29 0;
#X connect 15 0 5 0;
#X connect 16 0 19 0;
#X connect 17 0 19 0;
#X connect 18 0 7 0;
#X connect 18 1 14 0;
#X connect 19 0 22 1;
#X connect 20 0 19 0;
#X connect 21 0 13 1;
#X connect 21 0 15 1;
#X connect 22 0 23 0;
#X connect 23 0 21 0;
#X connect 24 0 19 0;
#X connect 25 0 37 0;
#X connect 26 0 37 0;
#X connect 27 0 37 0;
#X connect 28 0 37 0;
#X connect 29 0 35 0;
#X connect 33 0 41 0;
#X connect 33 1 42 0;
#X connect 35 0 16 0;
#X connect 35 1 17 0;
#X connect 35 2 24 0;
#X connect 35 3 20 0;
#X connect 36 0 6 0;
#X connect 37 0 15 0;
#X connect 39 0 38 0;
#X connect 40 0 38 1;
#X connect 41 0 38 2;
#X connect 42 0 38 3;
#X connect 43 0 46 0;
#X connect 44 0 45 0;
#X connect 45 0 42 1;
#X connect 45 0 41 1;
#X connect 45 0 40 1;
#X connect 45 0 39 1;
#X connect 46 0 44 0;
#X connect 47 0 51 0;
#X connect 48 0 3 2;
#X connect 48 0 33 2;
#X connect 50 0 3 1;
#X connect 50 0 33 1;
#X connect 51 0 49 0;
#X connect 52 0 10 0;
#X connect 53 0 3 0;
#X connect 53 0 33 0;
