#N canvas 274 99 1415 832 10;
#X obj 19 87 inlet~;
#X text 18 71 FL;
#X text 76 71 FR;
#X text 132 71 BL;
#X text 191 71 BR;
#X obj 241 171 *~ 0.25;
#X obj 196 212 -~ 0.25;
#X obj 82 439 -~ 0.25;
#X obj 19 272 *~;
#X obj 76 87 inlet~;
#X obj 76 272 *~;
#X obj 82 237 cos~;
#X obj 133 87 inlet~;
#X obj 133 272 *~;
#X obj 190 87 inlet~;
#X obj 190 272 *~;
#X obj 196 237 cos~;
#X obj 19 516 outlet~;
#X obj 76 516 outlet~;
#X obj 133 516 outlet~;
#X obj 190 516 outlet~;
#X text 19 533 FL;
#X text 77 533 FR;
#X text 133 533 BL;
#X text 192 533 BR;
#X obj 25 237 cos~;
#X obj 139 237 cos~;
#X obj 190 490 *~;
#X obj 196 468 cos~;
#X obj 133 490 *~;
#X obj 139 468 cos~;
#X obj 19 490 *~;
#X obj 76 490 *~;
#X obj 82 468 cos~;
#X obj 25 468 cos~;
#X obj 241 56 inlet~;
#X text 241 34 X;
#X text 253 236 Y;
#X obj 241 108 *~ 0.5;
#X obj 241 130 +~ 0.5;
#X obj 253 370 *~ 0.25;
#X obj 253 317 *~ 0.5;
#X obj 253 339 +~ 0.5;
#X text 290 119 Make signal unipolar;
#X obj 241 78 clip~ -1 1;
#X obj 253 258 inlet~;
#X obj 253 280 clip~ -1 1;
#X text 292 170 Scale signal to only use 1/4th of the cosine;
#X text 312 78 Clip signal in range to prevent unwanted side-effects
;
#X connect 0 0 8 0;
#X connect 5 0 6 0;
#X connect 5 0 25 0;
#X connect 5 0 26 0;
#X connect 6 0 11 0;
#X connect 6 0 16 0;
#X connect 7 0 33 0;
#X connect 7 0 34 0;
#X connect 8 0 31 0;
#X connect 9 0 10 0;
#X connect 10 0 32 0;
#X connect 11 0 10 1;
#X connect 12 0 13 0;
#X connect 13 0 29 0;
#X connect 14 0 15 0;
#X connect 15 0 27 0;
#X connect 16 0 15 1;
#X connect 25 0 8 1;
#X connect 26 0 13 1;
#X connect 27 0 20 0;
#X connect 28 0 27 1;
#X connect 29 0 19 0;
#X connect 30 0 29 1;
#X connect 31 0 17 0;
#X connect 32 0 18 0;
#X connect 33 0 32 1;
#X connect 34 0 31 1;
#X connect 35 0 44 0;
#X connect 38 0 39 0;
#X connect 39 0 5 0;
#X connect 40 0 7 0;
#X connect 40 0 30 0;
#X connect 40 0 28 0;
#X connect 41 0 42 0;
#X connect 42 0 40 0;
#X connect 44 0 38 0;
#X connect 45 0 46 0;
#X connect 46 0 41 0;
#X coords 0 0 1 1 128 128 0;
