#N canvas 316 207 1415 698 10;
#X obj 19 87 inlet~;
#X text 465 194 FL, f 17;
#X text 576 194 FR;
#X text 465 283 BL;
#X text 576 283 BR;
#X floatatom 468 300 4 -50 50 1 X - -, f 4;
#X floatatom 505 300 4 -50 50 1 Y - -, f 4;
#X msg 480 171 values \$1 \$2;
#X obj 480 149 pack f f;
#X obj 519 121 t b f;
#X obj 480 77 * 100;
#X obj 519 77 * 100;
#X obj 519 99 - 50;
#X obj 480 99 - 50;
#X obj 468 332 s \$0_X;
#X obj 582 332 s \$0_Y;
#X obj 480 199 grid grid1 96 -50 50 96 -50 50 1 1 1 2 2 575 231;
#X obj 272 20 r \$0_X;
#X obj 277 220 r \$0_Y;
#X obj 272 42 * 0.01;
#X obj 272 64 + 0.5;
#X obj 277 242 * 0.01;
#X obj 277 264 + 0.5;
#X text 18 71 FL;
#X text 76 71 FR;
#X text 132 71 BL;
#X text 191 71 BR;
#X obj 282 86 sig~;
#X obj 282 130 *~ 0.25;
#X text 269 2 LR;
#X text 277 202 FB;
#X obj 287 286 sig~;
#X obj 287 330 *~ 0.25;
#X obj 282 152 -~ 0.25;
#X obj 287 352 -~ 0.25;
#X obj 19 272 *~;
#X obj 76 87 inlet~;
#X obj 76 272 *~;
#X obj 82 237 cos~;
#X obj 133 87 inlet~;
#X obj 133 272 *~;
#X obj 190 87 inlet~;
#X obj 190 272 *~;
#X obj 196 237 cos~;
#X obj 19 516 outlet~;
#X obj 76 516 outlet~;
#X obj 133 516 outlet~;
#X obj 190 516 outlet~;
#X text 19 533 FL;
#X text 77 533 FR;
#X text 133 533 BL;
#X text 192 533 BR;
#X obj 25 237 cos~;
#X obj 25 213 +~ 0.25;
#X obj 139 237 cos~;
#X obj 139 213 +~ 0.25;
#X obj 190 490 *~;
#X obj 196 468 cos~;
#X obj 196 442 +~ 0.25;
#X obj 133 490 *~;
#X obj 139 468 cos~;
#X obj 139 442 +~ 0.25;
#X obj 19 490 *~;
#X obj 76 490 *~;
#X obj 82 468 cos~;
#X obj 25 468 cos~;
#X msg 548 52 0.5;
#X obj 567 21 r \$0_reset;
#X obj 513 332 s \$0_reset;
#X obj 542 300 bng 16 250 50 0 empty empty Reset 18 5 0 10 -262144
-1 -1;
#X obj 282 108 lop~ 5;
#X obj 287 308 lop~ 5;
#X text 313 53 Scale values;
#X text 331 107 Smooth values;
#X obj 480 14 inlet;
#X obj 519 14 inlet;
#X connect 0 0 35 0;
#X connect 7 0 16 0;
#X connect 8 0 7 0;
#X connect 9 0 8 0;
#X connect 9 1 8 1;
#X connect 10 0 13 0;
#X connect 11 0 12 0;
#X connect 12 0 9 0;
#X connect 13 0 8 0;
#X connect 16 0 5 0;
#X connect 16 0 14 0;
#X connect 16 1 6 0;
#X connect 16 1 15 0;
#X connect 17 0 19 0;
#X connect 18 0 21 0;
#X connect 19 0 20 0;
#X connect 20 0 27 0;
#X connect 21 0 22 0;
#X connect 22 0 31 0;
#X connect 27 0 70 0;
#X connect 28 0 33 0;
#X connect 31 0 71 0;
#X connect 32 0 34 0;
#X connect 33 0 38 0;
#X connect 33 0 53 0;
#X connect 33 0 55 0;
#X connect 33 0 43 0;
#X connect 34 0 58 0;
#X connect 34 0 61 0;
#X connect 34 0 64 0;
#X connect 34 0 65 0;
#X connect 35 0 62 0;
#X connect 36 0 37 0;
#X connect 37 0 63 0;
#X connect 38 0 37 1;
#X connect 39 0 40 0;
#X connect 40 0 59 0;
#X connect 41 0 42 0;
#X connect 42 0 56 0;
#X connect 43 0 42 1;
#X connect 52 0 35 1;
#X connect 53 0 52 0;
#X connect 54 0 40 1;
#X connect 55 0 54 0;
#X connect 56 0 47 0;
#X connect 57 0 56 1;
#X connect 58 0 57 0;
#X connect 59 0 46 0;
#X connect 60 0 59 1;
#X connect 61 0 60 0;
#X connect 62 0 44 0;
#X connect 63 0 45 0;
#X connect 64 0 63 1;
#X connect 65 0 62 1;
#X connect 66 0 10 0;
#X connect 66 0 11 0;
#X connect 67 0 66 0;
#X connect 69 0 68 0;
#X connect 70 0 28 0;
#X connect 71 0 32 0;
#X connect 74 0 10 0;
#X connect 75 0 11 0;
#X coords 0 -1 1 1 128 128 2 464 192;
