#N canvas 62 0 1826 1010 10;
#X obj 139 85 inlet~;
#X obj 134 445 outlet~;
#X obj 249 87 inlet;
#X text 295 86 bang to switch speaker;
#X obj 249 119 random 4;
#X obj 135 414 *~;
#X obj 159 334 == 0;
#X obj 159 356 sig~;
#X obj 225 414 *~;
#X obj 249 356 sig~;
#X obj 305 414 *~;
#X obj 329 356 sig~;
#X obj 385 414 *~;
#X obj 409 356 sig~;
#X obj 224 445 outlet~;
#X obj 304 445 outlet~;
#X obj 384 445 outlet~;
#X obj 249 334 == 1;
#X obj 329 334 == 2;
#X obj 409 334 == 3;
#X obj 564 323 outlet;
#X obj 159 381 lop~ 50;
#X obj 249 381 lop~ 50;
#X obj 329 381 lop~ 50;
#X obj 409 381 lop~ 50;
#X obj 449 356 tgl 15 0 empty empty empty 17 7 0 10 -262144 -1 -1 1
1;
#X obj 369 356 tgl 15 0 empty empty empty 17 7 0 10 -262144 -1 -1 0
1;
#X obj 289 356 tgl 15 0 empty empty empty 17 7 0 10 -262144 -1 -1 0
1;
#X obj 189 356 tgl 15 0 empty empty empty 17 7 0 10 -262144 -1 -1 0
1;
#X obj 249 271 t f f f f f;
#X obj 561 87 inlet;
#X obj 222 151 sel \$1;
#X connect 0 0 5 0;
#X connect 0 0 8 0;
#X connect 0 0 10 0;
#X connect 0 0 12 0;
#X connect 2 0 4 0;
#X connect 4 0 31 0;
#X connect 5 0 1 0;
#X connect 6 0 7 0;
#X connect 6 0 28 0;
#X connect 7 0 21 0;
#X connect 8 0 14 0;
#X connect 9 0 22 0;
#X connect 10 0 15 0;
#X connect 11 0 23 0;
#X connect 12 0 16 0;
#X connect 13 0 24 0;
#X connect 17 0 9 0;
#X connect 17 0 27 0;
#X connect 18 0 11 0;
#X connect 18 0 26 0;
#X connect 19 0 13 0;
#X connect 19 0 25 0;
#X connect 21 0 5 1;
#X connect 22 0 8 1;
#X connect 23 0 10 1;
#X connect 24 0 12 1;
#X connect 29 0 6 0;
#X connect 29 1 17 0;
#X connect 29 2 18 0;
#X connect 29 3 19 0;
#X connect 29 4 20 0;
#X connect 30 0 31 1;
#X connect 31 0 4 0;
#X connect 31 1 29 0;
