#N canvas 446 167 754 488 10;
#X obj 91 192 inlet~;
#X obj 86 412 outlet~;
#X obj 87 381 *~;
#X obj 111 348 lop~ 10;
#X obj 111 323 sig~;
#X obj 177 381 *~;
#X obj 201 348 lop~ 10;
#X obj 201 323 sig~;
#X obj 257 381 *~;
#X obj 281 348 lop~ 10;
#X obj 281 323 sig~;
#X obj 337 381 *~;
#X obj 361 348 lop~ 10;
#X obj 361 323 sig~;
#X obj 176 412 outlet~;
#X obj 256 412 outlet~;
#X obj 336 412 outlet~;
#X obj 201 216 inlet;
#X obj 111 301 == 1;
#X obj 201 301 == 2;
#X obj 281 301 == 3;
#X obj 361 301 == 4;
#X connect 0 0 2 0;
#X connect 0 0 5 0;
#X connect 0 0 8 0;
#X connect 0 0 11 0;
#X connect 2 0 1 0;
#X connect 3 0 2 1;
#X connect 4 0 3 0;
#X connect 5 0 14 0;
#X connect 6 0 5 1;
#X connect 7 0 6 0;
#X connect 8 0 15 0;
#X connect 9 0 8 1;
#X connect 10 0 9 0;
#X connect 11 0 16 0;
#X connect 12 0 11 1;
#X connect 13 0 12 0;
#X connect 17 0 18 0;
#X connect 17 0 19 0;
#X connect 17 0 20 0;
#X connect 17 0 21 0;
#X connect 18 0 4 0;
#X connect 19 0 7 0;
#X connect 20 0 10 0;
#X connect 21 0 13 0;
