#N canvas 62 0 1826 1010 10;
#X obj 371 20 inlet;
#X obj 131 82 > \$1;
#X obj 131 142 sig~;
#X obj 77 219 inlet~;
#X obj 77 251 *~, f 7;
#X obj 77 283 outlet~;
#X obj 431 20 inlet;
#X obj 203 92 > \$1;
#X obj 202 150 sig~;
#X obj 137 219 inlet~;
#X obj 137 251 *~, f 7;
#X obj 137 283 outlet~;
#X obj 491 20 inlet;
#X obj 256 82 > \$1;
#X obj 251 154 sig~;
#X obj 197 219 inlet~;
#X obj 197 251 *~, f 7;
#X obj 197 283 outlet~;
#X obj 551 20 inlet;
#X obj 311 82 > \$1;
#X obj 311 154 sig~;
#X obj 257 219 inlet~;
#X obj 257 251 *~, f 7;
#X obj 257 283 outlet~;
#X obj 131 112 + \$2;
#X obj 201 115 + \$2;
#X obj 311 104 + \$2;
#X obj 251 104 + \$2;
#X obj 122 180 lop~ \$3;
#X obj 191 186 lop~ \$3;
#X obj 251 186 lop~ \$3;
#X obj 311 186 lop~ \$3;
#X connect 0 0 1 0;
#X connect 1 0 24 0;
#X connect 2 0 28 0;
#X connect 3 0 4 0;
#X connect 4 0 5 0;
#X connect 6 0 7 0;
#X connect 7 0 25 0;
#X connect 8 0 29 0;
#X connect 9 0 10 0;
#X connect 10 0 11 0;
#X connect 12 0 13 0;
#X connect 13 0 27 0;
#X connect 14 0 30 0;
#X connect 15 0 16 0;
#X connect 16 0 17 0;
#X connect 18 0 19 0;
#X connect 19 0 26 0;
#X connect 20 0 31 0;
#X connect 21 0 22 0;
#X connect 22 0 23 0;
#X connect 24 0 2 0;
#X connect 25 0 8 0;
#X connect 26 0 20 0;
#X connect 27 0 14 0;
#X connect 28 0 4 1;
#X connect 29 0 10 1;
#X connect 30 0 16 1;
#X connect 31 0 22 1;
