#N canvas 378 0 1194 1010 10;
#X obj 25 477 inlet~;
#X obj 132 594 outlet~;
#X obj 144 120 sig~;
#X obj 140 142 lop~ 2;
#X obj 117 631 *~ 0.2, f 9;
#X obj 109 253 +~;
#X obj 207 206 *~ 5;
#X obj 198 176 osc~ 0.8;
#X obj 341 92 hsl 64 15 100 1900 0 1 empty empty ms 75 5 0 10 -262144
-1 -1 3000 1;
#X obj 341 109 hsl 64 15 0 1 0 1 empty empty fb 75 5 0 10 -262144 -1
-1 3700 1;
#X obj 341 126 hsl 64 15 0 20 0 1 empty empty mod 75 5 0 10 -262144
-1 -1 650 1;
#X obj 341 143 hsl 64 15 0.01 10 1 1 empty empty rate 75 5 0 10 -262144
-1 -1 4000 1;
#X obj 112 278 clip~ 50 2000;
#X obj 207 228 lop~ 10;
#X obj 341 160 hsl 64 15 0.01 500 1 1 empty empty spread 75 5 0 10
-262144 -1 -1 6300 1;
#X obj 334 296 t b b b b f;
#X obj 483 409 random;
#X obj 351 403 random;
#X obj 226 397 random;
#X obj 121 395 random;
#X obj 111 424 +~ 0;
#X obj 228 435 +~ 0;
#X obj 354 432 +~ 0;
#X obj 473 436 +~ 0;
#X obj 111 455 delread4~ \$0_del1;
#X obj 231 455 delread4~ \$0_del2;
#X obj 351 455 delread4~ \$0_del3;
#X obj 471 455 delread4~ \$0_del4;
#X obj 67 711 delwrite~ \$0_del1 2000;
#X obj 241 632 *~ 0.2, f 9;
#X obj 362 631 *~ 0.2, f 9;
#X obj 484 632 *~ 0.2, f 9;
#X obj 235 711 delwrite~ \$0_del2 2000;
#X obj 390 715 delwrite~ \$0_del3 2000;
#X obj 540 710 delwrite~ \$0_del4 2000;
#X obj 341 177 hsl 64 15 0 1 0 1 empty empty mix 75 5 0 10 -262144
-1 -1 0 1;
#X obj 591 513 swap 1;
#X obj 591 535 -;
#X obj 436 237 s \$0_mix;
#X obj 590 477 r \$0_mix;
#X obj 132 557 *~ 0;
#X obj 167 566 *~ 0;
#X obj 253 600 outlet~;
#X obj 253 563 *~ 0;
#X obj 288 572 *~ 0;
#X obj 373 606 outlet~;
#X obj 373 569 *~ 0;
#X obj 408 578 *~ 0;
#X obj 490 608 outlet~;
#X obj 490 571 *~ 0;
#X obj 525 580 *~ 0;
#X connect 0 0 28 0;
#X connect 0 0 32 0;
#X connect 0 0 33 0;
#X connect 0 0 34 0;
#X connect 0 0 41 0;
#X connect 0 0 44 0;
#X connect 0 0 47 0;
#X connect 0 0 50 0;
#X connect 2 0 3 0;
#X connect 3 0 5 0;
#X connect 4 0 28 0;
#X connect 5 0 12 0;
#X connect 6 0 13 0;
#X connect 7 0 6 0;
#X connect 8 0 2 0;
#X connect 9 0 4 1;
#X connect 9 0 29 1;
#X connect 9 0 30 1;
#X connect 9 0 31 1;
#X connect 10 0 6 1;
#X connect 11 0 7 0;
#X connect 12 0 20 0;
#X connect 12 0 21 0;
#X connect 12 0 22 0;
#X connect 12 0 23 0;
#X connect 13 0 5 1;
#X connect 14 0 15 0;
#X connect 15 0 19 0;
#X connect 15 1 18 0;
#X connect 15 2 17 0;
#X connect 15 3 16 0;
#X connect 15 4 16 1;
#X connect 15 4 17 1;
#X connect 15 4 18 1;
#X connect 15 4 19 1;
#X connect 16 0 23 1;
#X connect 17 0 22 1;
#X connect 18 0 21 1;
#X connect 19 0 20 1;
#X connect 20 0 24 0;
#X connect 21 0 25 0;
#X connect 22 0 26 0;
#X connect 23 0 27 0;
#X connect 24 0 4 0;
#X connect 24 0 40 0;
#X connect 25 0 29 0;
#X connect 25 0 43 0;
#X connect 26 0 30 0;
#X connect 26 0 46 0;
#X connect 27 0 31 0;
#X connect 27 0 49 0;
#X connect 29 0 32 0;
#X connect 30 0 33 0;
#X connect 31 0 34 0;
#X connect 35 0 38 0;
#X connect 36 0 37 0;
#X connect 36 1 37 1;
#X connect 37 0 41 1;
#X connect 37 0 50 1;
#X connect 37 0 47 1;
#X connect 37 0 44 1;
#X connect 39 0 36 0;
#X connect 39 0 40 1;
#X connect 39 0 49 1;
#X connect 39 0 46 1;
#X connect 39 0 43 1;
#X connect 40 0 1 0;
#X connect 41 0 1 0;
#X connect 43 0 42 0;
#X connect 44 0 42 0;
#X connect 46 0 45 0;
#X connect 47 0 45 0;
#X connect 49 0 48 0;
#X connect 50 0 48 0;
#X coords 0 -1 1 1 120 104 2 339 90;
