#N canvas 120 22 700 691 10;
#X floatatom 36 113 5 0 0 0 - - -, f 5;
#X obj 36 140 * 0.05776;
#X obj 36 170 exp;
#X obj 36 197 1.4983;
#X obj 37 220 - 1;
#X obj 38 246 * -1;
#X obj 38 280 /;
#X obj 38 309 -6.228;
#X obj 38 339 phasor~;
#X obj 38 365 -~ 0.5;
#X obj 37 392 *~ 0.5;
#X obj 37 417 cos~;
#X obj 37 442 *~;
#X obj 37 501 +~;
#X obj 90 364 *~;
#X obj 90 393 +~;
#X floatatom 231 113 5 0 0 0 - - -, f 5;
#X obj 232 149 max 1;
#X obj 180 223 * 0.001;
#X obj 181 251 t b f;
#X obj 238 279 pack 0 200;
#X obj 239 305 line~;
#X obj 272 364 *~;
#X obj 113 302 +~ 0.5;
#X obj 113 326 wrap~;
#X obj 219 364 -~ 0.5;
#X obj 221 388 *~ 0.5;
#X obj 221 413 cos~;
#X obj 278 455 vd~ G09-del;
#X obj 90 423 vd~ G09-del;
#X obj 272 393 +~;
#X obj 225 465 *~;
#X floatatom 369 112 5 0 0 0 - - -, f 5;
#X obj 373 368 max 1.5;
#X obj 374 395 pack 0 200;
#X obj 375 422 line~;
#X obj 36 81 delwrite~ G09-del 1000;
#X obj 36 38 inlet~;
#X obj 37 557 outlet~;
#X text 410 112 delay(ms);
#X text 271 112 window(ms);
#X text 79 112 transpose(semi-tones);
#X connect 0 0 1 0;
#X connect 1 0 2 0;
#X connect 2 0 3 0;
#X connect 3 0 4 0;
#X connect 4 0 5 0;
#X connect 5 0 6 0;
#X connect 6 0 7 0;
#X connect 7 0 8 0;
#X connect 8 0 9 0;
#X connect 8 0 14 0;
#X connect 8 0 23 0;
#X connect 9 0 10 0;
#X connect 10 0 11 0;
#X connect 11 0 12 0;
#X connect 12 0 13 0;
#X connect 13 0 38 0;
#X connect 14 0 15 0;
#X connect 15 0 29 0;
#X connect 16 0 17 0;
#X connect 17 0 18 0;
#X connect 17 0 20 0;
#X connect 18 0 19 0;
#X connect 19 0 6 0;
#X connect 19 1 6 1;
#X connect 20 0 21 0;
#X connect 21 0 22 1;
#X connect 21 0 14 1;
#X connect 22 0 30 0;
#X connect 23 0 24 0;
#X connect 24 0 22 0;
#X connect 24 0 25 0;
#X connect 25 0 26 0;
#X connect 26 0 27 0;
#X connect 27 0 31 0;
#X connect 28 0 31 1;
#X connect 29 0 12 1;
#X connect 30 0 28 0;
#X connect 31 0 13 1;
#X connect 32 0 33 0;
#X connect 33 0 34 0;
#X connect 34 0 35 0;
#X connect 35 0 30 1;
#X connect 35 0 15 1;
#X connect 37 0 36 0;
