#N canvas 120 22 1160 669 10;
#X obj 36 140 * 0.05776;
#X obj 36 170 exp;
#X obj 36 197 1.4983;
#X obj 37 220 - 1;
#X obj 38 246 * -1;
#X obj 38 280 /;
#X obj 38 309 -6.228;
#X obj 38 339 phasor~;
#X obj 38 365 -~ 0.5;
#X obj 37 392 *~ 0.5;
#X obj 37 417 cos~;
#X obj 37 442 *~;
#X obj 37 501 +~;
#X obj 90 364 *~;
#X obj 90 393 +~;
#X obj 237 149 max 1;
#X obj 180 223 * 0.001;
#X obj 181 251 t b f;
#X obj 238 279 pack 0 200;
#X obj 239 305 line~;
#X obj 272 364 *~;
#X obj 113 302 +~ 0.5;
#X obj 113 326 wrap~;
#X obj 219 364 -~ 0.5;
#X obj 221 388 *~ 0.5;
#X obj 221 413 cos~;
#X obj 272 393 +~;
#X obj 225 465 *~;
#X obj 373 368 max 1.5;
#X obj 374 395 pack 0 200;
#X obj 375 422 line~;
#X obj 36 38 inlet~;
#X obj 37 557 outlet~;
#X text 308 42 delay(ms);
#X text 79 112 transpose(semi-tones);
#X obj 36 81 delwrite~ \$0-G09-del 1000;
#X obj 276 500 vd~ \$0-G09-del;
#X obj 90 423 vd~ \$0-G09-del;
#X obj 533 361 +~;
#X obj 631 314 *~ 5;
#X obj 630 284 osc~ 0.8;
#X obj 536 386 clip~ 50 2000;
#X obj 631 336 lop~ 10;
#X obj 95 37 inlet;
#X obj 236 43 inlet;
#X obj 368 44 inlet;
#X obj 628 51 inlet;
#X text 559 51 modulation;
#X text 173 42 window(ms);
#X connect 0 0 1 0;
#X connect 1 0 2 0;
#X connect 2 0 3 0;
#X connect 3 0 4 0;
#X connect 4 0 5 0;
#X connect 5 0 6 0;
#X connect 6 0 7 0;
#X connect 7 0 8 0;
#X connect 7 0 13 0;
#X connect 7 0 21 0;
#X connect 8 0 9 0;
#X connect 9 0 10 0;
#X connect 10 0 11 0;
#X connect 11 0 12 0;
#X connect 12 0 32 0;
#X connect 13 0 14 0;
#X connect 14 0 37 0;
#X connect 15 0 16 0;
#X connect 15 0 18 0;
#X connect 16 0 17 0;
#X connect 17 0 5 0;
#X connect 17 1 5 1;
#X connect 18 0 19 0;
#X connect 19 0 20 1;
#X connect 19 0 13 1;
#X connect 20 0 26 0;
#X connect 21 0 22 0;
#X connect 22 0 20 0;
#X connect 22 0 23 0;
#X connect 23 0 24 0;
#X connect 24 0 25 0;
#X connect 25 0 27 0;
#X connect 26 0 36 0;
#X connect 27 0 12 1;
#X connect 28 0 29 0;
#X connect 29 0 30 0;
#X connect 30 0 26 1;
#X connect 30 0 14 1;
#X connect 31 0 35 0;
#X connect 36 0 27 1;
#X connect 37 0 11 1;
#X connect 38 0 41 0;
#X connect 39 0 42 0;
#X connect 40 0 39 0;
#X connect 42 0 26 1;
#X connect 43 0 0 0;
#X connect 44 0 15 0;
#X connect 45 0 28 0;
#X connect 46 0 40 0;
